<svg class="animated" id="freepik_stories-airport-terminal" xmlns="http://www.w3.org/2000/svg" viewBox="0 0 750 500" version="1.1" xmlns:xlink="http://www.w3.org/1999/xlink" xmlns:svgjs="http://svgjs.com/svgjs"><style>svg#freepik_stories-airport-terminal:not(.animated) .animable {opacity: 0;}svg#freepik_stories-airport-terminal.animated #freepik--Signs--inject-1047 {animation: 6s Infinite  linear floating;animation-delay: 0s;}svg#freepik_stories-airport-terminal.animated #freepik--character-1--inject-1047 {animation: 6s Infinite  linear floating;animation-delay: 0s;}            @keyframes floating {                0% {                    opacity: 1;                    transform: translateY(0px);                }                50% {                    transform: translateY(-10px);                }                100% {                    opacity: 1;                    transform: translateY(0px);                }            }        </style><g id="freepik--background-complete--inject-1047" class="animable" style="transform-origin: 375px 252.005px;"><path d="M242.55,147.73a8,8,0,0,0,7.22-8.71l-4.89-63.93a9.6,9.6,0,0,0-9.41-8.75H103.25a8.12,8.12,0,0,0-.86,0,8,8,0,0,0-7.22,8.71L100,139a9.6,9.6,0,0,0,9.41,8.74H241.69A8.24,8.24,0,0,0,242.55,147.73Z" style="fill: rgb(224, 224, 224); transform-origin: 172.47px 107.038px;" id="elxsg517cfysf" class="animable"></path><path d="M239.71,147.73a8,8,0,0,0,7.22-8.71l-4.88-63.93a9.61,9.61,0,0,0-9.42-8.75H100.39a8.12,8.12,0,0,0-.86,0,8,8,0,0,0-7.22,8.71L97.19,139a9.6,9.6,0,0,0,9.41,8.74H238.85A8.24,8.24,0,0,0,239.71,147.73Z" style="fill: rgb(235, 235, 235); transform-origin: 169.62px 107.038px;" id="el1jpx7sl32ld" class="animable"></path><rect x="211.73" y="76.65" width="21.11" height="2" style="fill: rgb(255, 255, 255); transform-origin: 222.285px 77.65px;" id="el949hku2ah6" class="animable"></rect><rect x="153.7" y="76.66" width="48.08" height="2" style="fill: rgb(255, 255, 255); transform-origin: 177.74px 77.66px;" id="el7d7sko87xys" class="animable"></rect><rect x="105.8" y="76.28" width="35.31" height="2" style="fill: rgb(255, 255, 255); transform-origin: 123.455px 77.28px;" id="elpla10d0yo4" class="animable"></rect><rect x="211.16" y="84.19" width="21.11" height="2" style="fill: rgb(255, 255, 255); transform-origin: 221.715px 85.19px;" id="elx2nhw6uz6is" class="animable"></rect><rect x="169.83" y="84.2" width="32.29" height="2" style="fill: rgb(255, 255, 255); transform-origin: 185.975px 85.2px;" id="el4ugpiljycba" class="animable"></rect><rect x="106.84" y="84.2" width="35.31" height="2" style="fill: rgb(255, 255, 255); transform-origin: 124.495px 85.2px;" id="el4rca8hyg4oc" class="animable"></rect><rect x="211.73" y="91.74" width="21.11" height="2" style="fill: rgb(255, 255, 255); transform-origin: 222.285px 92.74px;" id="elki7ikpfr8pr" class="animable"></rect><rect x="160.43" y="91.74" width="41.69" height="2" style="fill: rgb(255, 255, 255); transform-origin: 181.275px 92.74px;" id="elivu4s26jyh" class="animable"></rect><rect x="107.28" y="91.74" width="35.31" height="2" style="fill: rgb(255, 255, 255); transform-origin: 124.935px 92.74px;" id="eloqyboc4j3" class="animable"></rect><rect x="211.73" y="99.29" width="21.11" height="2" style="fill: rgb(255, 255, 255); transform-origin: 222.285px 100.29px;" id="el126mhknxfvi" class="animable"></rect><rect x="156.74" y="99.29" width="45.95" height="2" style="fill: rgb(255, 255, 255); transform-origin: 179.715px 100.29px;" id="eli8h3769trgd" class="animable"></rect><rect x="107.85" y="99.29" width="35.31" height="2" style="fill: rgb(255, 255, 255); transform-origin: 125.505px 100.29px;" id="ellre7xl9dhh" class="animable"></rect><rect x="211.73" y="106.83" width="21.11" height="2" style="fill: rgb(255, 255, 255); transform-origin: 222.285px 107.83px;" id="el6zgq081oktr" class="animable"></rect><rect x="185.97" y="106.83" width="16.14" height="2" style="fill: rgb(255, 255, 255); transform-origin: 194.04px 107.83px;" id="elslzsnauuwzh" class="animable"></rect><rect x="168.94" y="106.83" width="11.53" height="2" style="fill: rgb(255, 255, 255); transform-origin: 174.705px 107.83px;" id="elenjxgdhlgpg" class="animable"></rect><rect x="107.85" y="106.83" width="35.31" height="2" style="fill: rgb(255, 255, 255); transform-origin: 125.505px 107.83px;" id="elw7en6xrfwhc" class="animable"></rect><rect x="211.73" y="114.37" width="21.11" height="2" style="fill: rgb(255, 255, 255); transform-origin: 222.285px 115.37px;" id="el9565x2ccmu5" class="animable"></rect><rect x="154.61" y="114.37" width="48.08" height="2" style="fill: rgb(255, 255, 255); transform-origin: 178.65px 115.37px;" id="elge1xv0h0n4o" class="animable"></rect><rect x="107.85" y="114.38" width="35.31" height="2" style="fill: rgb(255, 255, 255); transform-origin: 125.505px 115.38px;" id="elru7fcaaant" class="animable"></rect><rect x="108.43" y="121.94" width="35.31" height="2" style="fill: rgb(255, 255, 255); transform-origin: 126.085px 122.94px;" id="elrwn70d2sool" class="animable"></rect><rect x="212.4" y="121.91" width="21.11" height="2" style="fill: rgb(255, 255, 255); transform-origin: 222.955px 122.91px;" id="elc9j7guw9h7" class="animable"></rect><rect x="166.32" y="121.92" width="36.37" height="2" style="fill: rgb(255, 255, 255); transform-origin: 184.505px 122.92px;" id="el2eue8r2pvrw" class="animable"></rect><rect x="212.4" y="129.46" width="21.11" height="2" style="fill: rgb(255, 255, 255); transform-origin: 222.955px 130.46px;" id="elwk14imtn1yq" class="animable"></rect><rect x="170.4" y="129.46" width="32.29" height="2" style="fill: rgb(255, 255, 255); transform-origin: 186.545px 130.46px;" id="elxtg2kxhjtt" class="animable"></rect><rect x="154.61" y="129.46" width="10.11" height="2" style="fill: rgb(255, 255, 255); transform-origin: 159.665px 130.46px;" id="elj61jdo9cvo9" class="animable"></rect><rect x="108.43" y="129.46" width="35.31" height="2" style="fill: rgb(255, 255, 255); transform-origin: 126.085px 130.46px;" id="elrmagqa5jtsj" class="animable"></rect><rect x="212.4" y="136.54" width="21.11" height="2" style="fill: rgb(255, 255, 255); transform-origin: 222.955px 137.54px;" id="elr2f1n6m694" class="animable"></rect><rect x="158.12" y="136.54" width="44.71" height="2" style="fill: rgb(255, 255, 255); transform-origin: 180.475px 137.54px;" id="el5xess9ledwe" class="animable"></rect><rect x="109.07" y="136.91" width="35.31" height="2" style="fill: rgb(255, 255, 255); transform-origin: 126.725px 137.91px;" id="elgtjuoas8yh" class="animable"></rect><rect x="411.01" y="328.22" width="60.3" height="67.99" style="fill: rgb(224, 224, 224); transform-origin: 441.16px 362.215px;" id="elq8yrnwcpmy" class="animable"></rect><rect x="397.65" y="392.16" width="73.67" height="7.33" style="fill: rgb(224, 224, 224); transform-origin: 434.485px 395.825px;" id="elplxz4ldppps" class="animable"></rect><rect x="402.61" y="399.5" width="3.39" height="50.93" style="fill: rgb(224, 224, 224); transform-origin: 404.305px 424.965px;" id="el3cjl82o7ci8" class="animable"></rect><rect x="461.2" y="399.5" width="3.39" height="50.93" style="fill: rgb(224, 224, 224); transform-origin: 462.895px 424.965px;" id="elf0rgen4lfyv" class="animable"></rect><rect x="490.59" y="328.22" width="60.3" height="67.99" style="fill: rgb(224, 224, 224); transform-origin: 520.74px 362.215px;" id="elm2uvfvjetk" class="animable"></rect><rect x="477.23" y="392.16" width="73.67" height="7.33" style="fill: rgb(224, 224, 224); transform-origin: 514.065px 395.825px;" id="elzxqbafjwz" class="animable"></rect><rect x="482.2" y="399.5" width="3.39" height="50.93" style="fill: rgb(224, 224, 224); transform-origin: 483.895px 424.965px;" id="elpp9gukdlzp" class="animable"></rect><rect x="540.79" y="399.5" width="3.39" height="50.93" style="fill: rgb(224, 224, 224); transform-origin: 542.485px 424.965px;" id="el0ju9252soh1" class="animable"></rect><rect x="566.8" y="328.22" width="60.3" height="67.99" style="fill: rgb(224, 224, 224); transform-origin: 596.95px 362.215px;" id="elwftrwszom5f" class="animable"></rect><rect x="553.44" y="392.16" width="73.67" height="7.33" style="fill: rgb(224, 224, 224); transform-origin: 590.275px 395.825px;" id="els6y9ti490zi" class="animable"></rect><rect x="558.41" y="399.5" width="3.39" height="50.93" style="fill: rgb(224, 224, 224); transform-origin: 560.105px 424.965px;" id="eld4pc1yyo2r" class="animable"></rect><rect x="617" y="399.5" width="3.39" height="50.93" style="fill: rgb(224, 224, 224); transform-origin: 618.695px 424.965px;" id="elh1lwih7jah" class="animable"></rect><polygon points="341.46 325.5 344.4 322.11 344.4 319.61 346.46 319.75 346.52 322.46 342.81 326.78 341.46 325.5" style="fill: rgb(224, 224, 224); transform-origin: 343.99px 323.195px;" id="elciakay2262d" class="animable"></polygon><circle cx="342.41" cy="325.53" r="2.57" style="fill: rgb(224, 224, 224); transform-origin: 342.41px 325.53px;" id="el1yx83v5fafr" class="animable"></circle><g id="elx5mu47p0b6q"><path d="M343.73,325.53a1.32,1.32,0,1,1-1.32-1.32A1.32,1.32,0,0,1,343.73,325.53Z" style="fill: rgb(255, 255, 255); opacity: 0.3; transform-origin: 342.41px 325.53px;" class="animable"></path></g><polygon points="420.84 327.19 423.78 323.8 423.85 319.62 425.92 319.75 425.89 324.15 422.18 328.46 420.84 327.19" style="fill: rgb(224, 224, 224); transform-origin: 423.38px 324.04px;" id="eldktatf7v6po" class="animable"></polygon><path d="M424.36,327.21a2.57,2.57,0,1,1-2.57-2.57A2.58,2.58,0,0,1,424.36,327.21Z" style="fill: rgb(224, 224, 224); transform-origin: 421.79px 327.21px;" id="elgrk7u93pif6" class="animable"></path><g id="el1wmqc9xt6gj"><path d="M423.1,327.21a1.32,1.32,0,1,1-1.31-1.31A1.32,1.32,0,0,1,423.1,327.21Z" style="fill: rgb(255, 255, 255); opacity: 0.3; transform-origin: 421.78px 327.22px;" class="animable"></path></g><polygon points="425.56 323.18 423.8 324.15 427.51 328.46 428.86 327.19 425.56 323.18" style="fill: rgb(224, 224, 224); transform-origin: 426.33px 325.82px;" id="ely0jov3mzui" class="animable"></polygon><circle cx="427.91" cy="327.21" r="2.57" style="fill: rgb(224, 224, 224); transform-origin: 427.91px 327.21px;" id="elfnxk13hgt4" class="animable"></circle><g id="el7uvb0e3moqq"><path d="M426.6,327.21a1.32,1.32,0,1,0,1.31-1.31A1.31,1.31,0,0,0,426.6,327.21Z" style="fill: rgb(255, 255, 255); opacity: 0.3; transform-origin: 427.92px 327.22px;" class="animable"></path></g><path d="M331.69,319.86s-7.93-.25-13.19-3.52a7,7,0,0,1-.86-11.14,51.34,51.34,0,0,1,25.78-11.82c20.18-3.32,140.57-.69,140.57-.69l54.29,1.89-1.48,7.78S453.68,317,429.11,319.92,331.69,319.86,331.69,319.86Z" style="fill: rgb(230, 230, 230); transform-origin: 426.778px 306.452px;" id="elr1todwg3shn" class="animable"></path><path d="M499,293.21,528.8,264a20,20,0,0,1,14-5.73l9.38,0-13.86,36.33Z" style="fill: rgb(224, 224, 224); transform-origin: 525.59px 276.435px;" id="el2z5stfgesl7" class="animable"></path><path d="M518.17,301.47l18.89.68,21.35-6.23s-5-2.45-12.37-.73C544.84,295.47,519.67,301.2,518.17,301.47Z" style="fill: rgb(224, 224, 224); transform-origin: 538.29px 298.364px;" id="ellwss2ld2u6m" class="animable"></path><path d="M319.27,303.84H336.8a1.1,1.1,0,0,0,.93-.52l1-1.61a1.11,1.11,0,0,0-.94-1.7l-13.05,0a44,44,0,0,0-5.5,3.77Z" style="fill: rgb(250, 250, 250); transform-origin: 329.07px 301.925px;" id="eloodr76orut" class="animable"></path><g id="el8y7e6oanuai"><path d="M538.29,278.61a6.72,6.72,0,1,1-6.71-6.72A6.71,6.71,0,0,1,538.29,278.61Z" style="fill: rgb(255, 255, 255); opacity: 0.4; transform-origin: 531.57px 278.61px;" class="animable"></path></g><rect x="349.88" y="300.02" width="2.78" height="4.37" rx="0.86" style="fill: rgb(250, 250, 250); transform-origin: 351.27px 302.205px;" id="ela28onzumdzm" class="animable"></rect><rect x="354.87" y="300.02" width="2.78" height="4.37" rx="0.86" style="fill: rgb(250, 250, 250); transform-origin: 356.26px 302.205px;" id="elwyetbq993n" class="animable"></rect><rect x="359.85" y="300.02" width="2.78" height="4.37" rx="0.86" style="fill: rgb(250, 250, 250); transform-origin: 361.24px 302.205px;" id="el31yvw03w3er" class="animable"></rect><rect x="364.84" y="300.02" width="2.78" height="4.37" rx="0.86" style="fill: rgb(250, 250, 250); transform-origin: 366.23px 302.205px;" id="elj2oh8eojyn" class="animable"></rect><rect x="369.82" y="300.02" width="2.78" height="4.37" rx="0.86" style="fill: rgb(250, 250, 250); transform-origin: 371.21px 302.205px;" id="el31h7qeid9h1" class="animable"></rect><rect x="374.81" y="300.02" width="2.78" height="4.37" rx="0.86" style="fill: rgb(250, 250, 250); transform-origin: 376.2px 302.205px;" id="elooq84ll1mtb" class="animable"></rect><rect x="379.8" y="300.02" width="2.78" height="4.37" rx="0.86" style="fill: rgb(250, 250, 250); transform-origin: 381.19px 302.205px;" id="el24n9rzx9nps" class="animable"></rect><rect x="384.78" y="300.02" width="2.78" height="4.37" rx="0.86" style="fill: rgb(250, 250, 250); transform-origin: 386.17px 302.205px;" id="elypsrxndl2rg" class="animable"></rect><rect x="389.77" y="300.02" width="2.78" height="4.37" rx="0.86" style="fill: rgb(250, 250, 250); transform-origin: 391.16px 302.205px;" id="el3zjztgpbk9y" class="animable"></rect><rect x="394.76" y="300.02" width="2.78" height="4.37" rx="0.86" style="fill: rgb(250, 250, 250); transform-origin: 396.15px 302.205px;" id="eljopo0skelq" class="animable"></rect><rect x="405.39" y="300.02" width="2.78" height="4.37" rx="0.86" style="fill: rgb(250, 250, 250); transform-origin: 406.78px 302.205px;" id="elsj2fytf6eq" class="animable"></rect><rect x="410.09" y="300.02" width="2.78" height="4.37" rx="0.86" style="fill: rgb(250, 250, 250); transform-origin: 411.48px 302.205px;" id="elf58zfudpwdo" class="animable"></rect><rect x="414.8" y="300.02" width="2.78" height="4.37" rx="0.86" style="fill: rgb(250, 250, 250); transform-origin: 416.19px 302.205px;" id="el1cuzjww5iu2" class="animable"></rect><rect x="419.5" y="300.02" width="2.78" height="4.37" rx="0.86" style="fill: rgb(250, 250, 250); transform-origin: 420.89px 302.205px;" id="elsbxr7ens12" class="animable"></rect><rect x="424.21" y="300.02" width="2.78" height="4.37" rx="0.86" style="fill: rgb(250, 250, 250); transform-origin: 425.6px 302.205px;" id="el7j8y2zyfo38" class="animable"></rect><rect x="428.91" y="300.02" width="2.78" height="4.37" rx="0.86" style="fill: rgb(250, 250, 250); transform-origin: 430.3px 302.205px;" id="elfupyjrbns7" class="animable"></rect><rect x="433.62" y="300.02" width="2.78" height="4.37" rx="0.86" style="fill: rgb(250, 250, 250); transform-origin: 435.01px 302.205px;" id="elq8rl6waaz1" class="animable"></rect><rect x="438.32" y="300.02" width="2.78" height="4.37" rx="0.86" style="fill: rgb(250, 250, 250); transform-origin: 439.71px 302.205px;" id="elkbqivd5lq2" class="animable"></rect><rect x="443.03" y="300.02" width="2.78" height="4.37" rx="0.86" style="fill: rgb(250, 250, 250); transform-origin: 444.42px 302.205px;" id="elh6rfk7jwtj" class="animable"></rect><rect x="447.73" y="300.02" width="2.78" height="4.37" rx="0.86" style="fill: rgb(250, 250, 250); transform-origin: 449.12px 302.205px;" id="elafkwhtcpfco" class="animable"></rect><rect x="452.44" y="300.02" width="2.78" height="4.37" rx="0.86" style="fill: rgb(250, 250, 250); transform-origin: 453.83px 302.205px;" id="el3ykk18t493u" class="animable"></rect><rect x="457.14" y="300.02" width="2.78" height="4.37" rx="0.86" style="fill: rgb(250, 250, 250); transform-origin: 458.53px 302.205px;" id="ely2ege72uba9" class="animable"></rect><rect x="461.85" y="300.02" width="2.78" height="4.37" rx="0.86" style="fill: rgb(250, 250, 250); transform-origin: 463.24px 302.205px;" id="elgy5v7kr7nyj" class="animable"></rect><rect x="466.56" y="300.02" width="2.78" height="4.37" rx="0.86" style="fill: rgb(250, 250, 250); transform-origin: 467.95px 302.205px;" id="elg0ekqroseh9" class="animable"></rect><rect x="471.26" y="300.02" width="2.78" height="4.37" rx="0.86" style="fill: rgb(250, 250, 250); transform-origin: 472.65px 302.205px;" id="elokuwycidrg7" class="animable"></rect><rect x="475.97" y="300.02" width="2.78" height="4.37" rx="0.86" style="fill: rgb(250, 250, 250); transform-origin: 477.36px 302.205px;" id="elzsvm7s3p40o" class="animable"></rect><rect x="480.67" y="300.02" width="2.78" height="4.37" rx="0.86" style="fill: rgb(250, 250, 250); transform-origin: 482.06px 302.205px;" id="elm6m1ijajvzc" class="animable"></rect><rect x="485.38" y="300.02" width="2.78" height="4.37" rx="0.86" style="fill: rgb(250, 250, 250); transform-origin: 486.77px 302.205px;" id="elf3qdlgcdiu" class="animable"></rect><rect x="490.08" y="300.02" width="2.78" height="4.37" rx="0.86" style="fill: rgb(250, 250, 250); transform-origin: 491.47px 302.205px;" id="elgei1njnm99j" class="animable"></rect><rect x="494.79" y="300.02" width="2.78" height="4.37" rx="0.86" style="fill: rgb(250, 250, 250); transform-origin: 496.18px 302.205px;" id="el523u8juoh1c" class="animable"></rect><path d="M388.25,318.62s2.22,1.86,19.85,2.49,35.88-2.61,46.84-4.62,36.32-7.71,37.95-9.72-40.17-3-76.42,1.18C386.84,311.34,386.76,315.68,388.25,318.62Z" style="fill: rgb(240, 240, 240); transform-origin: 440.349px 313.114px;" id="elt4kp91cj0cj" class="animable"></path><path d="M428.82,311v13.37s13.51.82,18.24-3.13c3.24-2.7,2-7.84-4.21-9.25A44.13,44.13,0,0,0,428.82,311Z" style="fill: rgb(224, 224, 224); transform-origin: 438.807px 317.632px;" id="elwu2nh3ogmc" class="animable"></path><path d="M401.45,311.32v13.37s13.51.82,18.24-3.13c3.24-2.7,2-7.84-4.21-9.25A44.13,44.13,0,0,0,401.45,311.32Z" style="fill: rgb(224, 224, 224); transform-origin: 411.437px 317.952px;" id="elcsdxnp4kaw" class="animable"></path><path d="M403.26,311.18v13.58H405l-.06-13.62C404.33,311.14,403.77,311.15,403.26,311.18Z" style="fill: rgb(255, 255, 255); transform-origin: 404.13px 317.95px;" id="elcto7tl83u4v" class="animable"></path><path d="M430.82,310.86v13.57h1.71l0-13.62C431.88,310.82,431.32,310.83,430.82,310.86Z" style="fill: rgb(255, 255, 255); transform-origin: 431.675px 317.62px;" id="el6dq9u5ciulh" class="animable"></path><g id="elmqg5inwcx4"><polygon points="323.24 303.85 330.17 300.02 333.22 300.02 326.6 303.85 323.24 303.85" style="fill: rgb(255, 255, 255); opacity: 0.4; transform-origin: 328.23px 301.935px;" class="animable"></polygon></g><g id="elsa10qh8a6gi"><polygon points="328.99 303.84 335.03 300.02 336.03 300.02 329.79 303.85 328.99 303.84" style="fill: rgb(255, 255, 255); opacity: 0.4; transform-origin: 332.51px 301.935px;" class="animable"></polygon></g><polygon points="123.26 179.07 125.1 178 125.49 176.88 126.39 177.26 126 178.49 123.66 179.85 123.26 179.07" style="fill: rgb(224, 224, 224); transform-origin: 124.825px 178.365px;" id="el7s9s5m8bavc" class="animable"></polygon><path d="M124.83,179.63a1.22,1.22,0,1,1-.75-1.56A1.22,1.22,0,0,1,124.83,179.63Z" style="fill: rgb(224, 224, 224); transform-origin: 123.68px 179.223px;" id="elmca6x2xfbf" class="animable"></path><g id="elfuk1yw15099"><path d="M124.27,179.43a.62.62,0,0,1-.79.39.63.63,0,0,1-.39-.8.62.62,0,0,1,1.18.41Z" style="fill: rgb(255, 255, 255); opacity: 0.3; transform-origin: 123.68px 179.227px;" class="animable"></path></g><polygon points="158.64 192.1 160.49 191.04 161.17 189.17 162.07 189.55 161.38 191.52 159.05 192.89 158.64 192.1" style="fill: rgb(224, 224, 224); transform-origin: 160.355px 191.03px;" id="elh8tw79duglc" class="animable"></polygon><path d="M160.22,192.66a1.22,1.22,0,1,1-.76-1.55A1.22,1.22,0,0,1,160.22,192.66Z" style="fill: rgb(224, 224, 224); transform-origin: 159.066px 192.265px;" id="el57hq3l7pkqb" class="animable"></path><g id="elozpd3y62mps"><path d="M159.66,192.47a.63.63,0,1,1-.39-.8A.64.64,0,0,1,159.66,192.47Z" style="fill: rgb(255, 255, 255); opacity: 0.3; transform-origin: 159.063px 192.265px;" class="animable"></path></g><polygon points="161.38 191.03 160.44 191.2 161.44 193.71 162.25 193.34 161.38 191.03" style="fill: rgb(224, 224, 224); transform-origin: 161.345px 192.37px;" id="elchpdb0cw328" class="animable"></polygon><path d="M160.66,192.81a1.22,1.22,0,0,0,2.31.8,1.22,1.22,0,1,0-2.31-.8Z" style="fill: rgb(224, 224, 224); transform-origin: 161.817px 193.206px;" id="elh0p946b1rkq" class="animable"></path><g id="elbjkexpwbdvi"><path d="M161.22,193a.63.63,0,1,0,.8-.39A.63.63,0,0,0,161.22,193Z" style="fill: rgb(255, 255, 255); opacity: 0.3; transform-origin: 161.815px 193.206px;" class="animable"></path></g><path d="M119.74,175a15,15,0,0,1-5.38-3.63,3.32,3.32,0,0,1,1.34-5.13A24.33,24.33,0,0,1,129.1,165c9.58,1.63,63.24,21.43,63.24,21.43l24.09,9.24-1.87,3.27s-39.6-6.27-51.08-8.77S119.74,175,119.74,175Z" style="fill: rgb(230, 230, 230); transform-origin: 165.037px 181.756px;" id="elfxve45qqm3a" class="animable"></path><path d="M199,188.94l17.88-8.52a9.55,9.55,0,0,1,7.16-.41l4.22,1.44-11.85,14.17Z" style="fill: rgb(224, 224, 224); transform-origin: 213.63px 187.561px;" id="elshdj7c23nlh" class="animable"></path><path d="M206.33,195.61l8.38,3.22,10.55.51a9.41,9.41,0,0,0-5.44-2.24C219.24,197,207.05,195.72,206.33,195.61Z" style="fill: rgb(224, 224, 224); transform-origin: 215.795px 197.475px;" id="eljdsam1zbig" class="animable"></path><path d="M116.64,165.91l7.87,2.71a.53.53,0,0,0,.5-.08l.71-.57a.53.53,0,0,0-.16-.91l-5.86-2a21.11,21.11,0,0,0-3.06.85Z" style="fill: rgb(250, 250, 250); transform-origin: 121.277px 166.855px;" id="eld58oknf0eka" class="animable"></path><g id="elnaqhai9wd8"><path d="M218.9,188.45a3.19,3.19,0,1,1-2-4A3.19,3.19,0,0,1,218.9,188.45Z" style="fill: rgb(255, 255, 255); opacity: 0.4; transform-origin: 215.865px 187.467px;" class="animable"></path></g><path d="M130.92,171.11h0a.66.66,0,0,1-.4-.84l.24-.72a.67.67,0,0,1,.84-.41h0a.67.67,0,0,1,.41.84l-.25.72A.67.67,0,0,1,130.92,171.11Z" style="fill: rgb(250, 250, 250); transform-origin: 131.263px 170.125px;" id="eluis8jtt0hd" class="animable"></path><path d="M133.16,171.88h0a.68.68,0,0,1-.41-.84l.25-.72a.68.68,0,0,1,.84-.41h0a.67.67,0,0,1,.41.84l-.25.72A.66.66,0,0,1,133.16,171.88Z" style="fill: rgb(250, 250, 250); transform-origin: 133.501px 170.898px;" id="el33x1odgipaw" class="animable"></path><path d="M135.4,172.65h0a.68.68,0,0,1-.41-.84l.25-.72a.66.66,0,0,1,.84-.4h0a.65.65,0,0,1,.41.83l-.25.72A.66.66,0,0,1,135.4,172.65Z" style="fill: rgb(250, 250, 250); transform-origin: 135.742px 171.669px;" id="el0d6y8twigmp6" class="animable"></path><path d="M137.64,173.42h0a.66.66,0,0,1-.41-.84l.25-.71a.65.65,0,0,1,.84-.41h0a.66.66,0,0,1,.41.84l-.25.71A.66.66,0,0,1,137.64,173.42Z" style="fill: rgb(250, 250, 250); transform-origin: 137.98px 172.439px;" id="eld9jjp2ryr2t" class="animable"></path><path d="M139.88,174.19h0a.66.66,0,0,1-.41-.84l.25-.71a.65.65,0,0,1,.84-.41h0a.66.66,0,0,1,.41.84l-.25.71A.65.65,0,0,1,139.88,174.19Z" style="fill: rgb(250, 250, 250); transform-origin: 140.22px 173.21px;" id="el7qk89kuyor" class="animable"></path><path d="M142.12,175h0a.66.66,0,0,1-.41-.84l.25-.71a.65.65,0,0,1,.84-.41h0a.67.67,0,0,1,.41.84l-.25.71A.65.65,0,0,1,142.12,175Z" style="fill: rgb(250, 250, 250); transform-origin: 142.459px 174.02px;" id="elg8afajxaj1r" class="animable"></path><path d="M144.36,175.73h0a.66.66,0,0,1-.41-.84l.25-.71a.65.65,0,0,1,.84-.41h0a.67.67,0,0,1,.41.84l-.25.71A.66.66,0,0,1,144.36,175.73Z" style="fill: rgb(250, 250, 250); transform-origin: 144.699px 174.749px;" id="elhbsx2wapvjh" class="animable"></path><path d="M146.6,176.5h0a.65.65,0,0,1-.41-.83l.25-.72a.66.66,0,0,1,.84-.41h0a.66.66,0,0,1,.4.84l-.24.72A.66.66,0,0,1,146.6,176.5Z" style="fill: rgb(250, 250, 250); transform-origin: 146.936px 175.521px;" id="eldydcevsgelo" class="animable"></path><path d="M148.84,177.28h0a.66.66,0,0,1-.41-.84l.25-.72a.66.66,0,0,1,.84-.41h0a.66.66,0,0,1,.4.84l-.24.72A.68.68,0,0,1,148.84,177.28Z" style="fill: rgb(250, 250, 250); transform-origin: 149.176px 176.292px;" id="el6h1g30gcwa6" class="animable"></path><path d="M151.08,178.05h0a.66.66,0,0,1-.41-.84l.25-.72a.66.66,0,0,1,.83-.41h0a.66.66,0,0,1,.41.84l-.24.72A.67.67,0,0,1,151.08,178.05Z" style="fill: rgb(250, 250, 250); transform-origin: 151.415px 177.065px;" id="elu6rxaj060w" class="animable"></path><path d="M155.85,179.69h0a.67.67,0,0,1-.41-.84l.25-.71a.65.65,0,0,1,.84-.41h0a.66.66,0,0,1,.41.84l-.25.71A.65.65,0,0,1,155.85,179.69Z" style="fill: rgb(250, 250, 250); transform-origin: 156.191px 178.71px;" id="el3m0vu3zyvvj" class="animable"></path><path d="M158,180.42h0a.66.66,0,0,1-.41-.84l.24-.72a.66.66,0,0,1,.84-.4h0a.64.64,0,0,1,.41.83l-.25.72A.65.65,0,0,1,158,180.42Z" style="fill: rgb(250, 250, 250); transform-origin: 158.336px 179.439px;" id="elq88137yxex" class="animable"></path><path d="M160.08,181.15h0a.67.67,0,0,1-.41-.84l.25-.72a.66.66,0,0,1,.84-.41h0a.66.66,0,0,1,.4.84l-.24.72A.67.67,0,0,1,160.08,181.15Z" style="fill: rgb(250, 250, 250); transform-origin: 160.417px 180.164px;" id="eldt0qnr6r2xf" class="animable"></path><path d="M162.19,181.87h0a.66.66,0,0,1-.41-.83l.25-.72a.66.66,0,0,1,.84-.41h0a.67.67,0,0,1,.41.84l-.25.72A.66.66,0,0,1,162.19,181.87Z" style="fill: rgb(250, 250, 250); transform-origin: 162.53px 180.891px;" id="el9i3ckgm5udo" class="animable"></path><path d="M164.31,182.6h0a.65.65,0,0,1-.41-.84l.24-.71a.66.66,0,0,1,.84-.41h0a.65.65,0,0,1,.41.84l-.25.71A.64.64,0,0,1,164.31,182.6Z" style="fill: rgb(250, 250, 250); transform-origin: 164.645px 181.621px;" id="el5eess5xh44v" class="animable"></path><path d="M166.42,183.33h0a.65.65,0,0,1-.41-.84l.25-.71a.65.65,0,0,1,.83-.41h0a.65.65,0,0,1,.41.84l-.24.71A.66.66,0,0,1,166.42,183.33Z" style="fill: rgb(250, 250, 250); transform-origin: 166.755px 182.35px;" id="ells8bxkpywur" class="animable"></path><path d="M168.53,184.06h0a.67.67,0,0,1-.41-.84l.25-.72a.67.67,0,0,1,.84-.41h0a.67.67,0,0,1,.41.84l-.25.72A.66.66,0,0,1,168.53,184.06Z" style="fill: rgb(250, 250, 250); transform-origin: 168.87px 183.076px;" id="elnu36ic01c3" class="animable"></path><path d="M170.65,184.79h0a.66.66,0,0,1-.41-.84l.24-.72a.67.67,0,0,1,.84-.41h0a.66.66,0,0,1,.41.84l-.25.72A.66.66,0,0,1,170.65,184.79Z" style="fill: rgb(250, 250, 250); transform-origin: 170.985px 183.805px;" id="els7cdjwpmnkp" class="animable"></path><path d="M172.76,185.51h0a.65.65,0,0,1-.41-.84l.25-.71a.64.64,0,0,1,.83-.41h0a.65.65,0,0,1,.41.84l-.24.71A.66.66,0,0,1,172.76,185.51Z" style="fill: rgb(250, 250, 250); transform-origin: 173.095px 184.529px;" id="elyaj7o0mk0w" class="animable"></path><path d="M174.87,186.24h0a.66.66,0,0,1-.41-.84l.25-.71a.65.65,0,0,1,.84-.41h0a.67.67,0,0,1,.41.84l-.25.71A.65.65,0,0,1,174.87,186.24Z" style="fill: rgb(250, 250, 250); transform-origin: 175.209px 185.26px;" id="eli50gvh2mse" class="animable"></path><path d="M177,187h0a.66.66,0,0,1-.4-.84l.24-.72a.66.66,0,0,1,.84-.4h0a.65.65,0,0,1,.41.83l-.25.72A.66.66,0,0,1,177,187Z" style="fill: rgb(250, 250, 250); transform-origin: 177.344px 186.019px;" id="elhau30tpwx1g" class="animable"></path><path d="M179.1,187.7h0a.66.66,0,0,1-.41-.84l.25-.72a.65.65,0,0,1,.83-.41h0a.66.66,0,0,1,.41.84l-.24.72A.68.68,0,0,1,179.1,187.7Z" style="fill: rgb(250, 250, 250); transform-origin: 179.435px 186.713px;" id="el55k67ohd57k" class="animable"></path><path d="M181.21,188.42h0a.65.65,0,0,1-.41-.83l.25-.72a.66.66,0,0,1,.84-.41h0a.67.67,0,0,1,.41.84l-.25.71A.65.65,0,0,1,181.21,188.42Z" style="fill: rgb(250, 250, 250); transform-origin: 181.549px 187.441px;" id="eln1kpt7f5xhr" class="animable"></path><path d="M183.32,189.15h0a.67.67,0,0,1-.41-.84l.25-.71a.66.66,0,0,1,.84-.41h0a.66.66,0,0,1,.41.84l-.25.71A.65.65,0,0,1,183.32,189.15Z" style="fill: rgb(250, 250, 250); transform-origin: 183.661px 188.171px;" id="elfwxrgzpggcv" class="animable"></path><path d="M185.44,189.88h0A.65.65,0,0,1,185,189l.24-.71a.66.66,0,0,1,.84-.41h0a.64.64,0,0,1,.41.83l-.24.72A.67.67,0,0,1,185.44,189.88Z" style="fill: rgb(250, 250, 250); transform-origin: 185.739px 188.873px;" id="elkpi4kp7it3p" class="animable"></path><path d="M187.55,190.61h0a.67.67,0,0,1-.41-.84l.25-.72a.67.67,0,0,1,.84-.41h0a.66.66,0,0,1,.4.84l-.24.72A.67.67,0,0,1,187.55,190.61Z" style="fill: rgb(250, 250, 250); transform-origin: 187.887px 189.625px;" id="elh8df4w7sltj" class="animable"></path><path d="M189.66,191.33h0a.66.66,0,0,1-.41-.83l.25-.72a.66.66,0,0,1,.84-.41h0a.67.67,0,0,1,.41.84l-.25.72A.66.66,0,0,1,189.66,191.33Z" style="fill: rgb(250, 250, 250); transform-origin: 190px 190.351px;" id="el4mwycbex1r8" class="animable"></path><path d="M191.78,192.06h0a.65.65,0,0,1-.41-.84l.24-.71a.66.66,0,0,1,.84-.41h0a.65.65,0,0,1,.41.84l-.25.71A.64.64,0,0,1,191.78,192.06Z" style="fill: rgb(250, 250, 250); transform-origin: 192.115px 191.081px;" id="elyltn6uhp55l" class="animable"></path><path d="M193.89,192.79h0a.65.65,0,0,1-.41-.84l.25-.71a.65.65,0,0,1,.84-.41h0a.66.66,0,0,1,.4.84l-.24.71A.66.66,0,0,1,193.89,192.79Z" style="fill: rgb(250, 250, 250); transform-origin: 194.224px 191.809px;" id="elsgel0vpfcca" class="animable"></path><path d="M196,193.52h0a.67.67,0,0,1-.41-.84l.25-.72a.67.67,0,0,1,.84-.41h0a.67.67,0,0,1,.41.84l-.25.72A.66.66,0,0,1,196,193.52Z" style="fill: rgb(250, 250, 250); transform-origin: 196.34px 192.536px;" id="eltg7qxjtaand" class="animable"></path><path d="M145.33,183.22s.71,1.17,8.53,4.18,16.52,4.38,21.75,5.18,17.51,2.15,18.55,1.5-17.58-7.55-34.5-11.29C145.82,179.73,145.12,181.67,145.33,183.22Z" style="fill: rgb(240, 240, 240); transform-origin: 169.752px 187.711px;" id="elj9bc5j11hw" class="animable"></path><path d="M164.73,186.08l-2.07,6s5.94,2.46,8.67,1.42c1.87-.72,2.11-3.22-.46-4.81A20.75,20.75,0,0,0,164.73,186.08Z" style="fill: rgb(224, 224, 224); transform-origin: 167.713px 189.918px;" id="elgb8eydtekuc" class="animable"></path><path d="M152.39,182l-2.07,6s5.94,2.46,8.67,1.42c1.88-.71,2.11-3.21-.46-4.81A20.75,20.75,0,0,0,152.39,182Z" style="fill: rgb(224, 224, 224); transform-origin: 155.375px 185.838px;" id="elu8a7a9z53r8" class="animable"></path><path d="M153.23,182.2l-2.11,6.09.77.27,2.08-6.13C153.71,182.34,153.46,182.26,153.23,182.2Z" style="fill: rgb(255, 255, 255); transform-origin: 152.545px 185.38px;" id="eljzefsw9keha" class="animable"></path><path d="M165.65,186.31l-2.1,6.1.77.27,2.08-6.13Z" style="fill: rgb(255, 255, 255); transform-origin: 164.975px 189.495px;" id="elz7tlc6mc63h" class="animable"></path><g id="elp872hpjs89r"><polygon points="118.42 166.53 122.12 165.88 123.5 166.35 119.93 167.05 118.42 166.53" style="fill: rgb(255, 255, 255); opacity: 0.4; transform-origin: 120.96px 166.465px;" class="animable"></polygon></g><g id="el3bl39xme109"><polygon points="121 167.41 124.31 166.63 124.76 166.79 121.36 167.54 121 167.41" style="fill: rgb(255, 255, 255); opacity: 0.4; transform-origin: 122.88px 167.085px;" class="animable"></polygon></g><path d="M429.77,180.11a6.77,6.77,0,0,0-7.34-.43c-3-6-11.28-8.67-17.19-5.5a14.82,14.82,0,0,0-28.91.34,5.58,5.58,0,0,1-1.11,2.93c-1.2,1.23-3.21.82-4.92.68a12.21,12.21,0,0,0-12.3,8.58l74.31-.27C433,183.92,431.84,181.68,429.77,180.11Z" style="fill: rgb(230, 230, 230); transform-origin: 395.255px 174.752px;" id="el3tm0at5ko3s" class="animable"></path><path d="M632.72,215a6.81,6.81,0,0,0-7.34-.43c-3-6-11.28-8.67-17.19-5.5a14.82,14.82,0,0,0-28.91.35,5.73,5.73,0,0,1-1.11,2.93c-1.2,1.22-3.21.81-4.92.68a12.21,12.21,0,0,0-12.3,8.58l74.31-.28C635.91,218.85,634.79,216.6,632.72,215Z" style="fill: rgb(230, 230, 230); transform-origin: 598.197px 209.649px;" id="elbgoiwfc4goo" class="animable"></path><path d="M350.47,232a3.79,3.79,0,0,0-4.09-.24,7.27,7.27,0,0,0-9.56-3.06,8.24,8.24,0,0,0-16.08.2,3.14,3.14,0,0,1-.61,1.62c-.67.69-1.79.46-2.75.38a6.78,6.78,0,0,0-6.83,4.78l41.33-.15A3.3,3.3,0,0,0,350.47,232Z" style="fill: rgb(230, 230, 230); transform-origin: 331.26px 229.021px;" id="elthhepzghz3" class="animable"></path><path d="M576.3,176.19a3.79,3.79,0,0,0-4.09-.24,7.26,7.26,0,0,0-9.56-3.06,8.24,8.24,0,0,0-16.08.19,3.07,3.07,0,0,1-.62,1.63c-.67.69-1.78.46-2.74.38a6.79,6.79,0,0,0-6.84,4.77l41.34-.15A3.3,3.3,0,0,0,576.3,176.19Z" style="fill: rgb(230, 230, 230); transform-origin: 557.084px 173.203px;" id="ele13eaebutt9" class="animable"></path><path d="M119.73,217.5a2.35,2.35,0,0,0-2.53-.15,4.49,4.49,0,0,0-5.91-1.89,5.1,5.1,0,0,0-10,.12,1.86,1.86,0,0,1-.38,1c-.41.42-1.1.28-1.69.23a4.21,4.21,0,0,0-4.23,3l25.56-.09A2,2,0,0,0,119.73,217.5Z" style="fill: rgb(230, 230, 230); transform-origin: 107.809px 215.617px;" id="elz66xhi1ns5" class="animable"></path><path d="M498.09,103.85a2.34,2.34,0,0,0-2.53-.15,4.49,4.49,0,0,0-5.91-1.89,5.09,5.09,0,0,0-9.94.11,2,2,0,0,1-.38,1c-.42.42-1.11.28-1.7.24a4.19,4.19,0,0,0-4.23,3L499,106A2,2,0,0,0,498.09,103.85Z" style="fill: rgb(230, 230, 230); transform-origin: 486.225px 102.016px;" id="el94q5h8439y" class="animable"></path><path d="M673.73,328.57H493a5.87,5.87,0,0,1-5.86-5.86V59.44A5.87,5.87,0,0,1,493,53.58H673.73a5.87,5.87,0,0,1,5.87,5.86V322.71A5.87,5.87,0,0,1,673.73,328.57ZM493,53.83a5.61,5.61,0,0,0-5.61,5.61V322.71a5.61,5.61,0,0,0,5.61,5.61H673.73a5.62,5.62,0,0,0,5.62-5.61V59.44a5.62,5.62,0,0,0-5.62-5.61Z" style="fill: rgb(224, 224, 224); transform-origin: 583.37px 191.075px;" id="elb98cblp35an" class="animable"></path><path d="M465.31,328.57H284.56a5.87,5.87,0,0,1-5.86-5.86V59.44a5.87,5.87,0,0,1,5.86-5.86H465.31a5.87,5.87,0,0,1,5.86,5.86V322.71A5.87,5.87,0,0,1,465.31,328.57ZM284.56,53.83A5.61,5.61,0,0,0,279,59.44V322.71a5.61,5.61,0,0,0,5.61,5.61H465.31a5.61,5.61,0,0,0,5.61-5.61V59.44a5.61,5.61,0,0,0-5.61-5.61Z" style="fill: rgb(224, 224, 224); transform-origin: 374.935px 191.075px;" id="eli7lgtf9cbb" class="animable"></path><path d="M257,328.57H76.27a5.87,5.87,0,0,1-5.87-5.86V59.44a5.87,5.87,0,0,1,5.87-5.86H257a5.87,5.87,0,0,1,5.86,5.86V322.71A5.87,5.87,0,0,1,257,328.57ZM76.27,53.83a5.62,5.62,0,0,0-5.62,5.61V322.71a5.62,5.62,0,0,0,5.62,5.61H257a5.61,5.61,0,0,0,5.61-5.61V59.44A5.61,5.61,0,0,0,257,53.83Z" style="fill: rgb(224, 224, 224); transform-origin: 166.63px 191.075px;" id="elr4zk3r91fq" class="animable"></path><rect y="389.64" width="750" height="0.12" style="fill: rgb(224, 224, 224); transform-origin: 375px 389.7px;" id="elavpfdlixmsr" class="animable"></rect><rect x="653.63" y="419.02" width="55.73" height="0.42" style="fill: rgb(235, 235, 235); transform-origin: 681.495px 419.23px;" id="elejknpf8r26w" class="animable"></rect><rect x="495.04" y="423.59" width="14.63" height="0.42" style="fill: rgb(235, 235, 235); transform-origin: 502.355px 423.8px;" id="eltgjcewf1dlr" class="animable"></rect><rect x="40.64" y="406.22" width="72.67" height="0.42" style="fill: rgb(235, 235, 235); transform-origin: 76.975px 406.43px;" id="elkhzz6oqu0d" class="animable"></rect><rect x="128.3" y="406.22" width="10.66" height="0.42" style="fill: rgb(235, 235, 235); transform-origin: 133.63px 406.43px;" id="eluih4lbg6lmf" class="animable"></rect><rect x="173.59" y="413.33" width="157.61" height="0.42" style="fill: rgb(235, 235, 235); transform-origin: 252.395px 413.54px;" id="elaaguiun3lu9" class="animable"></rect></g><g id="freepik--Shadow--inject-1047" class="animable" style="transform-origin: 375px 448.395px;"><path d="M583.88,448.39c0,3.39-93.52,6.14-208.88,6.14s-208.88-2.75-208.88-6.14,93.52-6.13,208.88-6.13S583.88,445,583.88,448.39Z" style="fill: rgb(245, 245, 245); transform-origin: 375px 448.395px;" id="elh7ee6f53gi6" class="animable"></path></g><g id="freepik--Screen--inject-1047" class="animable" style="transform-origin: 355.61px 107.745px;"><path d="M284.1,148.44a8,8,0,0,1-7.22-8.71l4.89-63.93a9.6,9.6,0,0,1,9.41-8.75H423.4a8.12,8.12,0,0,1,.86,0,8,8,0,0,1,7.22,8.71l-4.86,63.93a9.59,9.59,0,0,1-9.41,8.74H285A6.18,6.18,0,0,1,284.1,148.44Z" style="fill: rgb(38, 50, 56); transform-origin: 354.18px 107.745px;" id="eldlsiep68i1o" class="animable"></path><path d="M286.94,148.44a8,8,0,0,1-7.22-8.71L284.6,75.8A9.61,9.61,0,0,1,294,67.05H426.26a8.12,8.12,0,0,1,.86,0,8,8,0,0,1,7.22,8.71l-4.88,63.93a9.6,9.6,0,0,1-9.41,8.74H287.8A6.18,6.18,0,0,1,286.94,148.44Z" style="fill: rgb(38, 50, 56); transform-origin: 357.03px 107.745px;" id="el1oita436b8b" class="animable"></path><g id="eltb451cx7y9i"><path d="M286.94,148.44a8,8,0,0,1-7.22-8.71L284.6,75.8A9.61,9.61,0,0,1,294,67.05H426.26a8.12,8.12,0,0,1,.86,0,8,8,0,0,1,7.22,8.71l-4.88,63.93a9.6,9.6,0,0,1-9.41,8.74H287.8A6.18,6.18,0,0,1,286.94,148.44Z" style="fill: rgb(255, 255, 255); opacity: 0.4; transform-origin: 357.03px 107.745px;" class="animable"></path></g><rect x="293.81" y="77.36" width="21.11" height="2" style="fill: rgb(255, 255, 255); transform-origin: 304.365px 78.36px;" id="ele0ghbo7odkt" class="animable"></rect><rect x="324.87" y="77.37" width="48.08" height="2" style="fill: rgb(255, 255, 255); transform-origin: 348.91px 78.37px;" id="elcjyq8drnaqm" class="animable"></rect><rect x="385.55" y="77" width="35.31" height="2" style="fill: rgb(255, 255, 255); transform-origin: 403.205px 78px;" id="el0ih6gbllwrv" class="animable"></rect><rect x="294.38" y="84.91" width="21.11" height="2" style="fill: rgb(255, 255, 255); transform-origin: 304.935px 85.91px;" id="elqxekl3a6ju" class="animable"></rect><rect x="324.53" y="84.91" width="32.29" height="2" style="fill: rgb(255, 255, 255); transform-origin: 340.675px 85.91px;" id="elafgm7rnlbyb" class="animable"></rect><rect x="384.5" y="84.91" width="35.31" height="2" style="fill: rgb(255, 255, 255); transform-origin: 402.155px 85.91px;" id="el0ln785r2sgel" class="animable"></rect><rect x="293.81" y="92.45" width="21.11" height="2" style="fill: rgb(255, 255, 255); transform-origin: 304.365px 93.45px;" id="elaw6j2ccglbv" class="animable"></rect><rect x="324.53" y="92.45" width="41.69" height="2" style="fill: rgb(255, 255, 255); transform-origin: 345.375px 93.45px;" id="eli4d8cb4v7ta" class="animable"></rect><rect x="384.06" y="92.45" width="35.31" height="2" style="fill: rgb(255, 255, 255); transform-origin: 401.715px 93.45px;" id="el5vjsluh88qf" class="animable"></rect><rect x="293.81" y="100" width="21.11" height="2" style="fill: rgb(255, 255, 255); transform-origin: 304.365px 101px;" id="eljvno4ib8aa" class="animable"></rect><rect x="323.96" y="100" width="45.95" height="2" style="fill: rgb(255, 255, 255); transform-origin: 346.935px 101px;" id="elmwtagiadgvg" class="animable"></rect><rect x="383.49" y="100" width="35.31" height="2" style="fill: rgb(255, 255, 255); transform-origin: 401.145px 101px;" id="elbfei9b4zfno" class="animable"></rect><rect x="293.81" y="107.54" width="21.11" height="2" style="fill: rgb(255, 255, 255); transform-origin: 304.365px 108.54px;" id="elxwtyxe29zd" class="animable"></rect><rect x="324.54" y="107.54" width="16.14" height="2" style="fill: rgb(255, 255, 255); transform-origin: 332.61px 108.54px;" id="el59knlxpj17q" class="animable"></rect><rect x="346.18" y="107.54" width="11.53" height="2" style="fill: rgb(255, 255, 255); transform-origin: 351.945px 108.54px;" id="el7r2aoy7kvgn" class="animable"></rect><rect x="383.49" y="107.54" width="35.31" height="2" style="fill: rgb(255, 255, 255); transform-origin: 401.145px 108.54px;" id="el6kupnudocaw" class="animable"></rect><rect x="293.81" y="115.08" width="21.11" height="2" style="fill: rgb(255, 255, 255); transform-origin: 304.365px 116.08px;" id="el9x3rgprk6uq" class="animable"></rect><rect x="323.96" y="115.08" width="48.08" height="2" style="fill: rgb(255, 255, 255); transform-origin: 348px 116.08px;" id="elpbxqkrbfbpe" class="animable"></rect><rect x="383.49" y="115.09" width="35.31" height="2" style="fill: rgb(255, 255, 255); transform-origin: 401.145px 116.09px;" id="eliiqgo9h09ri" class="animable"></rect><rect x="382.91" y="122.65" width="35.31" height="2" style="fill: rgb(255, 255, 255); transform-origin: 400.565px 123.65px;" id="ell77sqows2l9" class="animable"></rect><rect x="293.14" y="122.63" width="21.11" height="2" style="fill: rgb(255, 255, 255); transform-origin: 303.695px 123.63px;" id="elqzsdtnvlhaq" class="animable"></rect><rect x="323.96" y="122.63" width="36.37" height="2" style="fill: rgb(255, 255, 255); transform-origin: 342.145px 123.63px;" id="el3nmu1xh4g6v" class="animable"></rect><rect x="293.14" y="130.17" width="21.11" height="2" style="fill: rgb(255, 255, 255); transform-origin: 303.695px 131.17px;" id="elgvis7dyhdp5" class="animable"></rect><rect x="323.96" y="130.17" width="32.29" height="2" style="fill: rgb(255, 255, 255); transform-origin: 340.105px 131.17px;" id="eln9gxpkch2gk" class="animable"></rect><rect x="361.93" y="130.17" width="10.11" height="2" style="fill: rgb(255, 255, 255); transform-origin: 366.985px 131.17px;" id="elnlz6j4zuq9g" class="animable"></rect><rect x="382.91" y="130.17" width="35.31" height="2" style="fill: rgb(255, 255, 255); transform-origin: 400.565px 131.17px;" id="el95nnbku0jen" class="animable"></rect><rect x="293.14" y="137.25" width="21.11" height="2" style="fill: rgb(255, 255, 255); transform-origin: 303.695px 138.25px;" id="el3c4xlgo0du5" class="animable"></rect><rect x="323.82" y="137.25" width="44.71" height="2" style="fill: rgb(255, 255, 255); transform-origin: 346.175px 138.25px;" id="el42gwcu2qcx" class="animable"></rect><rect x="382.27" y="137.62" width="35.31" height="2" style="fill: rgb(255, 255, 255); transform-origin: 399.925px 138.62px;" id="eld2adi2qu1kw" class="animable"></rect></g><g id="freepik--Signs--inject-1047" class="animable" style="transform-origin: 592.69px 106.8px;"><g id="freepik--freepik--Sign--inject-2--inject-1047" class="animable" style="transform-origin: 592.69px 106.8px;"><rect x="521.35" y="70.67" width="142.68" height="32.46" style="fill: rgb(0, 255, 136); transform-origin: 592.69px 86.9px;" id="eltfsjuct0dp" class="animable"></rect><polygon points="538.84 84.45 535.31 80.92 530.42 80.92 534.67 85.17 526.1 85.17 526.1 88.63 534.68 88.63 530.42 92.88 535.31 92.88 538.84 89.34 541.28 86.89 538.84 84.45" style="fill: rgb(255, 255, 255); transform-origin: 533.69px 86.9px;" id="elnz0qqdrol1h" class="animable"></polygon><rect x="574.84" y="82.16" width="21.97" height="9.48" style="fill: rgb(0, 255, 136); isolation: isolate; transform-origin: 585.825px 86.9px;" id="elcp9079ef3x" class="animable"></rect><rect x="547.42" y="77.23" width="19.35" height="19.35" style="fill: rgb(255, 255, 255); transform-origin: 557.095px 86.905px;" id="el0ud86ijvbifm" class="animable"></rect><path d="M564.55,82.16h-.68a3,3,0,0,0-1.14.32l-3,1.5L554.11,83a2.46,2.46,0,0,0-1.39.23l-.54.25,3.67,2.57-3.41,1.6L550.18,87l-1,.48,2.64,2,5.58-2.64,3.15-1.56,3.17-1.52a3.49,3.49,0,0,0,.65-.43h0a2.38,2.38,0,0,0,.47-.53.41.41,0,0,0,0-.58A.39.39,0,0,0,564.55,82.16Z" style="fill: rgb(38, 50, 56); transform-origin: 557.07px 85.8167px;" id="elumb9zjkyq3" class="animable"></path><rect x="548.74" y="92.64" width="16.7" height="1.62" style="fill: rgb(38, 50, 56); transform-origin: 557.09px 93.45px;" id="el9v3os80w3m" class="animable"></rect><rect x="521.35" y="112.78" width="142.68" height="32.46" style="fill: rgb(0, 255, 136); transform-origin: 592.69px 129.01px;" id="el3taekzbn2su" class="animable"></rect><g id="elvvt9qns2x4k"><rect x="521.35" y="112.78" width="142.68" height="32.46" style="fill: rgb(255, 255, 255); isolation: isolate; opacity: 0.3; transform-origin: 592.69px 129.01px;" class="animable"></rect></g><polygon points="528.54 126.56 532.08 123.03 536.97 123.03 532.71 127.28 541.28 127.28 541.28 130.73 532.71 130.73 536.97 134.99 532.08 134.99 528.54 131.45 526.1 129 528.54 126.56" style="fill: rgb(255, 255, 255); transform-origin: 533.69px 129.01px;" id="ela6u5k0fkde9" class="animable"></polygon><rect x="604.56" y="124.27" width="51.29" height="9.48" style="fill: rgb(0, 255, 136); isolation: isolate; transform-origin: 630.205px 129.01px;" id="elaw6t1z7cc2b" class="animable"></rect><rect x="574.84" y="124.27" width="21.97" height="9.48" style="fill: rgb(0, 255, 136); isolation: isolate; transform-origin: 585.825px 129.01px;" id="el00ejkwimfnzv" class="animable"></rect><rect x="547.42" y="119.33" width="19.35" height="19.35" style="fill: rgb(255, 255, 255); transform-origin: 557.095px 129.005px;" id="elcdbkpuk4a2j" class="animable"></rect><path d="M564.55,124.27h-.68a3,3,0,0,0-1.14.31l-3,1.5-5.62-.93a2.54,2.54,0,0,0-1.39.22l-.54.26,3.67,2.56-3.41,1.61-2.26-.65-1,.48,2.64,2,5.56-2.67,3.18-1.53,3.19-1.55a3.1,3.1,0,0,0,.65-.44h0a2.38,2.38,0,0,0,.47-.53.41.41,0,0,0-.32-.64Z" style="fill: rgb(38, 50, 56); transform-origin: 557.06px 127.95px;" id="el22p3uunbze7" class="animable"></path><rect x="548.74" y="134.74" width="16.7" height="1.62" style="fill: rgb(38, 50, 56); transform-origin: 557.09px 135.55px;" id="elc2yztk4y168" class="animable"></rect><path d="M599.15,69.36H577.63a.5.5,0,0,1-.5-.5.5.5,0,0,1,.5-.5h21.52a.5.5,0,0,1,.5.5A.5.5,0,0,1,599.15,69.36Z" style="fill: rgb(0, 255, 136); isolation: isolate; transform-origin: 588.39px 68.86px;" id="ely3jhv4kgbnl" class="animable"></path><path d="M604.56,69.36h-2.17a.5.5,0,0,1-.5-.5.5.5,0,0,1,.5-.5h2.17a.51.51,0,0,1,.5.5A.5.5,0,0,1,604.56,69.36Z" style="fill: rgb(0, 255, 136); isolation: isolate; transform-origin: 603.475px 68.86px;" id="elvkb18717mnb" class="animable"></path></g></g><g id="freepik--character-3--inject-1047" class="animable" style="transform-origin: 611.23px 329.836px;"><path d="M618.3,249.9l17,35.18,20.3,21.51-4.5,3.87s-19.51-13.41-25-20.84c-5.09-6.93-14.58-29.44-14.58-29.44Z" style="fill: rgb(185, 121, 100); transform-origin: 633.56px 280.18px;" id="el5o6fhz2l7u7" class="animable"></path><path d="M655.62,306.59c2.55.28,4.18-.4,7.13-1.2a8,8,0,0,1,1.4-.42.84.84,0,0,1,.87.55,1.75,1.75,0,0,1-.5,1.24,9.13,9.13,0,0,1-2.9,1.76,8.54,8.54,0,0,1,2.76,2.21,2.63,2.63,0,0,1,.54,1.65,1.15,1.15,0,0,1-1.12,1.1,2.14,2.14,0,0,1-1.72,2c-.23.68-.7,1.4-1.41,1.44a2.59,2.59,0,0,0-.74,0c-.21.08-.35.29-.53.43-.6.49-1.48.21-2.18-.1-2.83-1.24-4.23-4.32-6.1-6.8" style="fill: rgb(185, 121, 100); transform-origin: 658.07px 311.291px;" id="elw1svdnmhlm9" class="animable"></path><path d="M662.77,310.9h7.43a7,7,0,0,1,7,7V398.2a7,7,0,0,1-7,7h-7.43a7,7,0,0,1-7-7V317.88a7,7,0,0,1,7-7m-8.32,7V398.2a8.35,8.35,0,0,0,8.32,8.32h7.43a8.35,8.35,0,0,0,8.32-8.32V317.88a8.33,8.33,0,0,0-8.32-8.31h-7.43A8.34,8.34,0,0,0,654.45,317.88Z" id="el3o3y9t131cs" class="animable" style="transform-origin: 666.485px 358.045px;"></path><path d="M647.8,444.91a3.15,3.15,0,1,0,3.16,3.15A3.15,3.15,0,0,0,647.8,444.91Z" id="elhx9tbgo0r2i" class="animable" style="transform-origin: 647.81px 448.06px;"></path><path d="M655.74,448.06a3.16,3.16,0,1,0,3.2-3.11h0A3.14,3.14,0,0,0,655.74,448.06Z" id="elvf3wpvmq5s" class="animable" style="transform-origin: 658.9px 448.11px;"></path><path d="M673.88,448.06a3.15,3.15,0,1,0,3.15-3.15A3.15,3.15,0,0,0,673.88,448.06Z" id="elt3iyopffy3i" class="animable" style="transform-origin: 677.03px 448.06px;"></path><path d="M688.12,444.91a3.15,3.15,0,1,0,3.16,3.15A3.15,3.15,0,0,0,688.12,444.91Z" id="elre7k4wih0g" class="animable" style="transform-origin: 688.13px 448.06px;"></path><g id="elnrafj30xbz"><rect x="638.63" y="363.56" width="53.12" height="82.5" rx="4.77" style="fill: rgb(0, 255, 136); transform-origin: 665.19px 404.81px; transform: rotate(180deg);" class="animable"></rect></g><g id="elsyoyv66o2jb"><rect x="638.63" y="363.56" width="53.12" height="82.5" rx="4.77" style="opacity: 0.5; transform-origin: 665.19px 404.81px; transform: rotate(180deg);" class="animable"></rect></g><g id="elofz9nc11e9g"><rect x="648.77" y="363.56" width="48.1" height="82.5" rx="4.77" style="fill: rgb(0, 255, 136); transform-origin: 672.82px 404.81px; transform: rotate(180deg);" class="animable"></rect></g><g id="elqxtl6viwrr8"><rect x="648.77" y="363.56" width="48.1" height="82.5" rx="4.77" style="opacity: 0.3; transform-origin: 672.82px 404.81px; transform: rotate(180deg);" class="animable"></rect></g><g id="el2vpf70w4hmb"><path d="M687.52,438.1h0a2,2,0,0,0,2-2V377a2,2,0,0,0-2-2h0a2,2,0,0,0-2,2v59.12A2,2,0,0,0,687.52,438.1Z" style="fill: rgb(255, 255, 255); opacity: 0.3; transform-origin: 687.52px 406.55px;" class="animable"></path></g><g id="elx5jcvm166j"><path d="M677.72,438.1h0a2,2,0,0,0,2-2V377a2,2,0,0,0-2-2h0a2,2,0,0,0-2,2v59.12A2,2,0,0,0,677.72,438.1Z" style="fill: rgb(255, 255, 255); opacity: 0.3; transform-origin: 677.72px 406.55px;" class="animable"></path></g><g id="elmm0m59tq6vs"><path d="M667.92,438.1h0a2,2,0,0,0,2-2V377a2,2,0,0,0-2-2h0a2,2,0,0,0-2,2v59.12A2,2,0,0,0,667.92,438.1Z" style="fill: rgb(255, 255, 255); opacity: 0.3; transform-origin: 667.92px 406.55px;" class="animable"></path></g><g id="eleum638stntl"><path d="M658.12,438.1h0a2,2,0,0,0,2-2V377a2,2,0,0,0-2-2h0a2,2,0,0,0-2,2v59.12A2,2,0,0,0,658.12,438.1Z" style="fill: rgb(255, 255, 255); opacity: 0.3; transform-origin: 658.12px 406.55px;" class="animable"></path></g><g id="elol3afzjjqol"><g style="opacity: 0.3; transform-origin: 658.953px 311.596px;" class="animable"><path d="M662.42,308.88a7.39,7.39,0,0,0-6.7,3.27,1.59,1.59,0,0,0-.32,1.26,1.62,1.62,0,0,0,1,.87c.57.26.07-.55.67-.39.31.08,1-.31,1.31-.39a1.58,1.58,0,0,0,.88-.57c1-1.05,2.64-.89,3.27-2.19" id="el929qmhg7e7e" class="animable" style="transform-origin: 658.953px 311.596px;"></path></g></g><path d="M656.59,316.23a3,3,0,0,1-1.09-.7,1.06,1.06,0,0,1-.17-1.2,1,1,0,0,1,.79-.41,2.29,2.29,0,0,1,.89.19,5.92,5.92,0,0,1,1.18.59,3.85,3.85,0,0,1-.88-.72,1.35,1.35,0,0,1-.35-1.06.78.78,0,0,1,.22-.43,1,1,0,0,1,.93-.1,4.74,4.74,0,0,1,1.83,1,6.26,6.26,0,0,0-.8-.83,2.24,2.24,0,0,1-.63-.95,1,1,0,0,1,.31-1,1.23,1.23,0,0,1,1.07-.16,5.24,5.24,0,0,1,1.57.78,4.7,4.7,0,0,1-1.12-1.19.77.77,0,0,1-.16-.4c0-.29.27-.5.53-.6a2.3,2.3,0,0,1,1.65.12,5.55,5.55,0,0,1,2.15,1.86s-1.16,1.14-1.26,1.2L657.73,316Z" style="fill: rgb(185, 121, 100); transform-origin: 659.863px 312.585px;" id="eloayq0g21gas" class="animable"></path><path d="M537.87,357.9c6.42-1.4,13.11-.71,19.61.27,12.35,1.84,24.66,4.73,35.95,10.07,13.68,1.82,32.72,1.86,36.28,7-35.31,14.48-77.07-1-93.07-10.79-1.32-.8-2.77-1.94-2.68-3.49C534.06,359.21,536.12,358.28,537.87,357.9Z" style="fill: rgb(0, 255, 136); transform-origin: 581.833px 369.128px;" id="elpbyhaxo7ybo" class="animable"></path><g id="elbh4lxs3qjpe"><g style="opacity: 0.2; transform-origin: 581.833px 369.128px;" class="animable"><path d="M537.87,357.9c6.42-1.4,13.11-.71,19.61.27,12.35,1.84,24.66,4.73,35.95,10.07,13.68,1.82,32.72,1.86,36.28,7-35.31,14.48-77.07-1-93.07-10.79-1.32-.8-2.77-1.94-2.68-3.49C534.06,359.21,536.12,358.28,537.87,357.9Z" id="elhl13u6fyuab" class="animable" style="transform-origin: 581.833px 369.128px;"></path></g></g><path d="M554.67,389c2.36-3.95,6.49-7.86,8-11.16,1.36-2.86,1.2-5.1,3.49-11.92,2.74-8.26,7.08-19,12.8-26.33,0,0-4-12.51,6-22.41l6.54-6.23,24.9,6.85-37.81,64.1L542.7,434.69,536,431.82C540,419.54,548.14,400.54,554.67,389Z" style="fill: rgb(185, 121, 100); transform-origin: 576.2px 372.82px;" id="elb11rgds7fo" class="animable"></path><g id="el28bbn8k4pkm"><path d="M567.63,361.06l16.2,9.49v2.57l-1.29,2.13-1.42,2.41s-3.37-2.29-6.89-4.54-8.62-5.41-8.62-5.41Z" style="opacity: 0.2; transform-origin: 574.72px 369.36px;" class="animable"></path></g><path d="M540.41,453.24a12.44,12.44,0,0,0-1.76-3.28h0s-1.11-4.52,2.8-12.17L538.29,434a4.84,4.84,0,0,0-4.21-1.78,2.37,2.37,0,0,0-.55.18,17.66,17.66,0,0,0-2.08,1.77,60.5,60.5,0,0,0-5.86,7.13l.7.59,3.9-4.29c1.27-1.5,1.43,1.62.54,3.62s-1.4,4.57,2.95,8.24C538.67,453.65,540.92,455.26,540.41,453.24Z" style="fill: rgb(38, 50, 56); transform-origin: 533.52px 443.153px;" id="elhm5zmk3tqiu" class="animable"></path><path d="M543.88,432.5a101,101,0,0,0-4.19,10.43,16.2,16.2,0,0,0-1,7.07s-3.65-2.26-3.71-5.12,2.66-10.23-.93-12.67a7.19,7.19,0,0,1,1.93-.39l1.07-2.21Z" style="fill: rgb(185, 121, 100); transform-origin: 538.965px 439.805px;" id="elsumzk25fj8" class="animable"></path><path d="M584.48,264.15l-6.37-13.29c2.87-4.28,17.06-7.56,17.06-7.56l9.35.51s3.59.8,6.67,1.8c4.11,1.34,6.33,2.42,7.31,4.7,0,0,2,5.07.68,15.45-.35,2.87-1.32,19.47,1.3,24.24l-.05,1.32c-17.08,13.3-31.53,11.07-31.53,11.07.77-2.35.69-10.09,1-12.39a51,51,0,0,0-1.39-10.28C588.31,278.73,584.89,265.11,584.48,264.15Z" style="fill: rgb(185, 121, 100); transform-origin: 599.295px 272.915px;" id="el3lcjls4jvxs" class="animable"></path><path d="M593,212c-4.13-.92-9.2,2.32-10.59,6.51-1,3.07.35,9,1.17,13.36a6.44,6.44,0,0,0,.87,2.92c.85,1.06,3.43,1.34,4.74,1.45l34.13,3c1-3.5-2.11-6.73-2.79-10.31-.58-3.06.67-6.15,1-9.26a15.63,15.63,0,0,0-5-12.86,14.68,14.68,0,0,0-12.87-3.3A16.34,16.34,0,0,0,593,212" style="fill: rgb(38, 50, 56); transform-origin: 602.786px 221.2px;" id="elt4yubsljruj" class="animable"></path><path d="M592.85,244.78a35.9,35.9,0,0,1,6.76,4.7,13.79,13.79,0,0,0,2.55,1.73c2.44,1.3,4.67,2,5.27.87a3.84,3.84,0,0,0,.32-.84c.51-2,.3-4.75-1.3-6-1.79-1.43-2.66-2.66-2.34-4.6a14.36,14.36,0,0,1,1-3.33L603.07,236l-7.41-7.48C596.51,233.15,596.76,242.07,592.85,244.78Z" style="fill: rgb(185, 121, 100); transform-origin: 600.423px 240.583px;" id="el2onp8qkcj6i" class="animable"></path><g id="el8b9o8acqud2"><path d="M604.05,241.05c-2-1.21-4.27-3.31-4-5.7a10.79,10.79,0,0,1,.58-2.58l4.13,5.48A13.76,13.76,0,0,0,604.05,241.05Z" style="opacity: 0.2; transform-origin: 602.394px 236.91px;" class="animable"></path></g><path d="M594.22,220.14c.7,7.61.84,10.83,4.76,14.83,5.91,6,15,4,16.56-3.56,1.41-6.79,0-18.1-7.44-21.3A9.79,9.79,0,0,0,594.22,220.14Z" style="fill: rgb(185, 121, 100); transform-origin: 605.089px 223.834px;" id="el39chz8vodgi" class="animable"></path><path d="M604.08,222.61c0,.81.48,1.47,1,1.48s.87-.63.83-1.44-.47-1.46-1-1.48S604.05,221.81,604.08,222.61Z" style="fill: rgb(38, 50, 56); transform-origin: 604.996px 222.63px;" id="eldbfgoo21v9a" class="animable"></path><path d="M611.59,222.59c0,.78.47,1.42,1,1.43s.87-.61.84-1.39-.48-1.42-1-1.43S611.55,221.81,611.59,222.59Z" style="fill: rgb(38, 50, 56); transform-origin: 612.509px 222.61px;" id="elhvp75ntyvei" class="animable"></path><path d="M602.49,219.81a.33.33,0,0,0,.27-.09,2.79,2.79,0,0,1,2.51-.7.34.34,0,0,0,.44-.25.4.4,0,0,0-.28-.47,3.43,3.43,0,0,0-3.18.85.38.38,0,0,0,0,.53A.38.38,0,0,0,602.49,219.81Z" style="fill: rgb(38, 50, 56); transform-origin: 603.931px 219.007px;" id="elzvjmgms6f7n" class="animable"></path><path d="M614.11,218.77a.28.28,0,0,0,.18-.16.41.41,0,0,0-.19-.49,3.13,3.13,0,0,0-3.09-.2.34.34,0,0,0-.08.48.36.36,0,0,0,.47.15,2.53,2.53,0,0,1,2.45.19A.31.31,0,0,0,614.11,218.77Z" style="fill: rgb(38, 50, 56); transform-origin: 612.588px 218.195px;" id="elgmkz5o4qghl" class="animable"></path><path d="M609.55,222.22a26,26,0,0,0,2.53,4.63.58.58,0,0,1-.28.89,3.76,3.76,0,0,1-2,0Z" style="fill: rgb(162, 78, 63); transform-origin: 610.871px 225.048px;" id="elnx6zgj939w" class="animable"></path><path d="M604.63,221.21l1.75-.41S605.43,222.1,604.63,221.21Z" style="fill: rgb(38, 50, 56); transform-origin: 605.505px 221.161px;" id="el7ven8xhvyzk" class="animable"></path><path d="M612.24,221.22l1.75-.42S613,222.11,612.24,221.22Z" style="fill: rgb(38, 50, 56); transform-origin: 613.115px 221.165px;" id="el4zyplvdydc6" class="animable"></path><path d="M596.87,222.77s3.92-5.91,3.72-10.7c0,0,7.51-2,13.51,6.05.95,1.27,1.52,3.4,2.38,5.23,0,0,1.43-14.48-11.42-15.66s-15.35,16.85-9.09,22.92A9.4,9.4,0,0,1,596.87,222.77Z" style="fill: rgb(38, 50, 56); transform-origin: 604.606px 219.122px;" id="elwjcp6tmae9p" class="animable"></path><path d="M591.92,226.34a6.15,6.15,0,0,0,3.7,2.88c2,.5,3.06-2.74,2.37-4.76a4.05,4.05,0,0,0-4.56-2.62C591.5,222.23,590.89,224.55,591.92,226.34Z" style="fill: rgb(185, 121, 100); transform-origin: 594.813px 225.521px;" id="el6ooztafi9r5" class="animable"></path><g id="elfzv1ar2ne84"><path d="M596.18,226.18a.25.25,0,0,1-.25-.23,2.52,2.52,0,0,0-2.67-2.34.24.24,0,0,1-.26-.23.25.25,0,0,1,.23-.27,3,3,0,0,1,3.2,2.81.25.25,0,0,1-.23.26Z" style="opacity: 0.2; transform-origin: 594.715px 224.641px;" class="animable"></path></g><path d="M607.33,230.32a2.83,2.83,0,0,1-2.57-1.77.25.25,0,0,1,.15-.32.25.25,0,0,1,.32.15,2.29,2.29,0,0,0,2.71,1.38.24.24,0,0,1,.29.19.25.25,0,0,1-.19.3A3.63,3.63,0,0,1,607.33,230.32Z" style="fill: rgb(38, 50, 56); transform-origin: 606.491px 229.268px;" id="el2t0nbkt3tqn" class="animable"></path><path d="M623.75,311.54l2.8,65.34-2.24,63.33-7.88,2c-3.48-12.52-6.32-37.11-7.13-49.93-.19-4.4,1.23-9.47.74-12.93-.43-3.05-1.85-5-3.71-11.88-2.25-8.36-4.53-19.54-3.62-28.2,0,0-10.58-9.5-7.45-22.12Z" style="fill: rgb(185, 121, 100); transform-origin: 610.615px 376.875px;" id="elp53x6pz78h" class="animable"></path><g id="el12npfs78j6e"><path d="M626.55,376.88s-3.07-2.92-8.72-2.07a28.63,28.63,0,0,0-8.33,2.28L608,372.82l12.95-3.67,5.63,2.79Z" style="opacity: 0.2; transform-origin: 617.29px 373.12px;" class="animable"></path></g><path d="M634.22,455.1a12.52,12.52,0,0,0-3.45-1.38h0s-3.76-2.73-5.71-11.1l-4.89-.91a4.84,4.84,0,0,0-4.36,1.36,1.8,1.8,0,0,0-.3.49,15.53,15.53,0,0,0-.45,2.7,57.93,57.93,0,0,0,.11,9.22h.92l.21-5.79c0-2,2.14.32,2.75,2.42s1.87,4.4,7.56,4.4C633.16,456.53,635.92,456.31,634.22,455.1Z" style="fill: rgb(38, 50, 56); transform-origin: 624.819px 449.067px;" id="eld4kpyiag207" class="animable"></path><path d="M624.13,439.61a77.22,77.22,0,0,0,2.91,8.06,16,16,0,0,0,3.79,6.05s-4.26.63-6.15-1.51-4.56-9.54-8.87-9.1a7.31,7.31,0,0,1,1.22-1.54C617.73,440.79,624.13,439.61,624.13,439.61Z" style="fill: rgb(185, 121, 100); transform-origin: 623.32px 446.708px;" id="elislokzyimt8" class="animable"></path><path d="M583.58,265l-5.27-14.73c3.9-4,14.09-6.25,14.09-6.25l4.16,4.16A8.94,8.94,0,0,0,610.2,247l1-1.4c4.11,1.34,6.33,2.42,7.31,4.7,0,0,2,5.07.68,15.45-.35,2.87-1.32,19.47,1.3,24.24l-.05,1.32c-17.08,13.3-31.53,11.07-31.53,11.07.77-2.35.6-10.49.94-12.79a46.19,46.19,0,0,0-1.29-9.88C588.31,278.73,584,266,583.58,265Z" style="fill: rgb(0, 255, 136); transform-origin: 599.4px 273.27px;" id="elly9jt1wpnj" class="animable"></path><polyline points="618.5 250.31 626.14 264.01 618.5 273.96 618.5 250.77" style="fill: rgb(0, 255, 136); transform-origin: 622.32px 262.135px;" id="eln8aol3gxm1" class="animable"></polyline><g id="el953o5gfpnku"><path d="M618.5,274s1.5-6.3.92-9.89-4.93-8.68-4.93-8.68a17.2,17.2,0,0,1,6,7.76c1,3,.32,7.82.32,7.82Z" style="opacity: 0.3; transform-origin: 617.763px 264.715px;" class="animable"></path></g><path d="M626.56,311.3c3.69,17.59,3.73,48.72,3.15,64,0,0-8.06-6.77-21-2.23s-18.43,4.62-24.93,2.64-11.6-11.87-30.36-15.34-19.47.46-19.47.46-2.25-4.5,7.13-7.63,20.62-13.9,26-20.74,18-29.17,20.67-34.43a18.93,18.93,0,0,0,2.07-10.54l29.16-2.12A190.8,190.8,0,0,1,626.56,311.3Z" style="fill: rgb(38, 50, 56); transform-origin: 581.849px 331.157px;" id="elf3t0t4dj7yu" class="animable"></path><path d="M580.42,249.67s-2.43,1.51-4.14,7c-1.17,3.81-7.11,25.49-7.3,29.06-.28,5.57,3.85,36.61,3.85,36.61l5.59-.83s.64-33.67.7-34,7.9-23.13,7.9-23.13Z" style="fill: rgb(185, 121, 100); transform-origin: 577.993px 286.005px;" id="elr7dzl0kb4t" class="animable"></path><rect x="562.46" y="326.95" width="31.07" height="11.83" style="fill: rgb(224, 224, 224); transform-origin: 577.995px 332.865px;" id="elm2h1jp9irtd" class="animable"></rect><rect x="563.64" y="325.33" width="27.53" height="12.81" rx="1.88" style="fill: rgb(0, 255, 136); transform-origin: 577.405px 331.735px;" id="el8wyjmsha7pa" class="animable"></rect><path d="M578.15,319.65a11,11,0,0,1,3.33,2.5,10.43,10.43,0,0,1,2.09,3.18c.21.43-.59,0-1.7,0-.82,0-1.62-.35-2,.4s-.08,8.06-.74,9-1.08-.18-1.08-.18,0,1.77-.67,2c-.19.06-.69-.12-.83-.92-.32-1.82-.78-5.67-.78-5.67,0,.22.26,5,.2,5.73-.07,1-.59,1.35-1.14,1.29-.77-.09-1.26-6-1.46-6.25,0,0,.4,3.4-.42,4s-1.19-1.54-1.16-3.48c0-1.78-.37-5.27-.16-7.07.25-2.22.92-3.66,2.92-4.3A7.15,7.15,0,0,1,578.15,319.65Z" style="fill: rgb(185, 121, 100); transform-origin: 577.585px 328.253px;" id="elffd85o0rmhc" class="animable"></path><path d="M573,263.44l13.33,6.33,3.56-14.38-8.33-6.56S576.05,248.13,573,263.44Z" style="fill: rgb(0, 255, 136); transform-origin: 581.445px 259.298px;" id="elsorvk5ci8b9" class="animable"></path></g><g id="freepik--character-2--inject-1047" class="animable" style="transform-origin: 434.614px 319.208px;"><polygon points="407.55 429.74 401.1 447.16 395.25 445.27 397.27 426.88 407.55 429.74" style="fill: rgb(137, 85, 85); transform-origin: 401.4px 437.02px;" id="elpamrieuqzwj" class="animable"></polygon><path d="M391.58,441.44c-.1-1.13,0-2.07,1.19-2.13l1.71-.1a2.94,2.94,0,0,1,1.63.79c3.93,2.73,5.54-.79,7.06-.79,2,0,.7,6.26.79,6.58l2.14,7.27c.19.6-.19,1.91-.84,2.09a1.34,1.34,0,0,1-.35,0H382.23c-3.61,0-3.65-4.42-2.17-4.73a25,25,0,0,0,11.52-5.16A31.5,31.5,0,0,0,391.58,441.44Z" style="fill: rgb(0, 255, 136); transform-origin: 392.646px 447.186px;" id="el942j762iz79" class="animable"></path><g id="elqya55c0rmte"><path d="M382.23,455.19h22.68a1.34,1.34,0,0,0,.35,0c.44-.12.75-.76.85-1.35v-.55H379.33A2.86,2.86,0,0,0,382.23,455.19Z" style="fill: rgb(255, 255, 255); opacity: 0.4; transform-origin: 392.72px 454.246px;" class="animable"></path></g><path d="M389.62,449.83a.29.29,0,0,1-.23-.14,5.82,5.82,0,0,0-1.31-1.76.25.25,0,0,1,0-.35.26.26,0,0,1,.36,0,6.31,6.31,0,0,1,1.42,1.9.26.26,0,0,1-.11.34A.23.23,0,0,1,389.62,449.83Z" style="fill: rgb(38, 50, 56); transform-origin: 388.947px 448.671px;" id="el5q8bf7ezpww" class="animable"></path><path d="M391.63,448.43a.25.25,0,0,1-.22-.14,6.8,6.8,0,0,0-1.25-1.63.25.25,0,0,1,0-.35.24.24,0,0,1,.35,0,6.82,6.82,0,0,1,1.35,1.76.25.25,0,0,1-.1.34A.27.27,0,0,1,391.63,448.43Z" style="fill: rgb(38, 50, 56); transform-origin: 390.99px 447.333px;" id="el3nmk8jkprk8" class="animable"></path><path d="M393,446.85a.25.25,0,0,1-.23-.15,2.51,2.51,0,0,0-1-1.1.25.25,0,0,1-.11-.34.25.25,0,0,1,.34-.1,3,3,0,0,1,1.26,1.33.24.24,0,0,1-.12.33A.19.19,0,0,1,393,446.85Z" style="fill: rgb(38, 50, 56); transform-origin: 392.459px 445.991px;" id="elxl1ueymaibi" class="animable"></path><path d="M393.59,443.69l-.1,0a4.63,4.63,0,0,0-1.68-.35.23.23,0,0,1-.24-.25.25.25,0,0,1,.25-.25h0a5,5,0,0,1,1.87.39.25.25,0,0,1,.13.32A.25.25,0,0,1,393.59,443.69Z" style="fill: rgb(38, 50, 56); transform-origin: 392.703px 443.265px;" id="elm150mw7rvb" class="animable"></path><g id="elnr31gzrw2u9"><g style="opacity: 0.3; transform-origin: 401.275px 442.243px;" class="animable"><path d="M398.34,443.4a2,2,0,0,0,.84,1.66,2.39,2.39,0,0,0,1.19.17l3.61-.11v0c.19-1.71.7-5.88-.79-5.88-1.18,0-2.41,2.39-4.86,1.69C398.36,441.81,398.32,443,398.34,443.4Z" id="elv4ioocw0nwo" class="animable" style="transform-origin: 401.275px 442.243px;"></path></g></g><path d="M383.24,235.76c.1.33,17.26,23.41,17.26,23.41L412.77,243s8.75,11.85,8.37,11.95-16.29,24.15-24.09,18.16-20.22-32-20.22-32Z" style="fill: rgb(137, 85, 85); transform-origin: 398.991px 254.914px;" id="elfyz49elequ" class="animable"></path><g id="el2tlvv8eeb3g"><path d="M400.5,259.17a10.68,10.68,0,0,1,.68,5.73,5.81,5.81,0,0,0,1.09-3.34,8.45,8.45,0,0,0-.71-3.79Z" style="isolation: isolate; opacity: 0.2; transform-origin: 401.389px 261.335px;" class="animable"></path></g><path d="M383.55,236.22s.25-6.51-.84-7.4a4.82,4.82,0,0,0-2.28-1s-5.58-9.39-6.84-8.41c-.67.53.32,3.06,3,7.46,0,0-2.72-.41-2.53,1.42a1.92,1.92,0,0,0-2.11,2s-1.57,1-1.12,2.51,3.57,6.52,6,8.35,6.74-2.43,6.74-2.43Z" style="fill: rgb(137, 85, 85); transform-origin: 377.162px 230.473px;" id="eljysfgg79fp" class="animable"></path><g id="eluf11opju3c9"><path d="M379.75,236.5l-.12,0a3,3,0,0,1-1.44-2.44,7.8,7.8,0,0,1,.5-2.83,3.93,3.93,0,0,1-3.52-1.29,1.14,1.14,0,0,1,.24-1.66,2.45,2.45,0,0,1,1.41-.27h.31c.51,0,1.17-.1,1.84-.17l1.86-.17c.17,0,.25.1.26.24a.25.25,0,0,1-.23.26c-.52,0-1.18.1-1.84.17s-1.34.14-1.86.17h-.33a2.89,2.89,0,0,0-1.1.15c-.37.32-.4.58-.13,1,.54.88,2.39,1.29,3.43,1a.25.25,0,0,1,.3.34,7.65,7.65,0,0,0-.65,3,2.49,2.49,0,0,0,1.19,2,.25.25,0,0,1-.12.47Z" style="opacity: 0.3; transform-origin: 378.002px 232.085px;" class="animable"></path></g><g id="el7q81yqr84lr"><path d="M373.23,235.33a1.41,1.41,0,0,1-.94-.4,3.48,3.48,0,0,1-.63-.88.25.25,0,1,1,.43-.25,3.06,3.06,0,0,0,.54.76.85.85,0,0,0,.71.26c.4-.08.62-.58.65-1a2.34,2.34,0,0,0-.38-1.36,3.94,3.94,0,0,1-.41-.49.25.25,0,0,1,0-.33.24.24,0,0,1,.33,0,2.59,2.59,0,0,1,.44.5,2.26,2.26,0,0,0,.8.51,1.44,1.44,0,0,0,1.38-.2,1,1,0,0,0,.2-1.22.25.25,0,0,1,.41-.29,1.46,1.46,0,0,1-.28,1.89,1.93,1.93,0,0,1-1.87.29l-.24-.1a2.54,2.54,0,0,1,.08.82,1.5,1.5,0,0,1-1,1.49Z" style="opacity: 0.3; transform-origin: 374.3px 233.082px;" class="animable"></path></g><path d="M446.22,242.74s-1.11-16.73,3.21-22.18,16.24-6.62,30-3,20,5.19,18.91,14.53-8.64,14.53-8.64,14.53l-2.16,27.51s6.21,23.09,4.59,30.87-8.37,13-15.67,12.46a98.53,98.53,0,0,0-13.77,0l-20-1.86Z" style="fill: rgb(0, 255, 136); transform-origin: 470.576px 266.489px;" id="el4nzox4dzjuk" class="animable"></path><g id="elnva8zmjrc1"><path d="M446.22,242.74s-1.11-16.73,3.21-22.18,16.24-6.62,30-3,20,5.19,18.91,14.53-8.64,14.53-8.64,14.53l-2.16,27.51s6.21,23.09,4.59,30.87-8.37,13-15.67,12.46a98.53,98.53,0,0,0-13.77,0l-20-1.86Z" style="isolation: isolate; opacity: 0.4; transform-origin: 470.576px 266.489px;" class="animable"></path></g><g id="elvxnzdtbgtz"><path d="M462.79,306.52S458.72,287.36,465,286c-1.08,1.34,4.81,23.35,2.35,23.88-.35.07,1.69,7.38,1.69,7.38h-4.81Z" style="isolation: isolate; opacity: 0.2; transform-origin: 465.267px 301.63px;" class="animable"></path></g><path d="M479,317.27a.25.25,0,0,1-.25-.23c-.4-4.76-4.64-77.08-4.54-80.11s.34-6.29,2.28-8.93a13.32,13.32,0,0,1,7.74-4.95,16.22,16.22,0,0,1,9.2.75.26.26,0,0,1,.15.33.26.26,0,0,1-.33.14,15.66,15.66,0,0,0-8.91-.73,12.79,12.79,0,0,0-7.45,4.76c-1.85,2.52-2.09,5.65-2.18,8.64-.09,2.79,4.17,75.66,4.54,80.06a.25.25,0,0,1-.23.27Z" style="fill: rgb(38, 50, 56); transform-origin: 483.902px 269.987px;" id="eljxpdn8km6s" class="animable"></path><g id="el5uav25g9vuq"><path d="M476.28,236.93c.2.51,1.05,8,6.39,11.71,3.9,2.67,6.67,2.81,6.67,2.81l.5-7.13Z" style="opacity: 0.3; transform-origin: 483.06px 244.19px;" class="animable"></path></g><path d="M498.48,235.35a11.1,11.1,0,1,1-11.1-11.1A11.09,11.09,0,0,1,498.48,235.35Z" style="fill: rgb(38, 50, 56); transform-origin: 487.38px 235.35px;" id="el6x8l1a948ye" class="animable"></path><path d="M484.84,286.79a.24.24,0,0,1-.14-.05.25.25,0,0,1-.11-.17,289.12,289.12,0,0,1-2.07-40.84.27.27,0,0,1,.26-.24.25.25,0,0,1,.24.26,288.12,288.12,0,0,0,2,40.48l4.61-1.12a.25.25,0,0,1,.12.49l-4.88,1.18Z" style="fill: rgb(38, 50, 56); transform-origin: 486.202px 266.14px;" id="elrblkixl7zwp" class="animable"></path><path d="M483.33,272.72a.25.25,0,0,1-.24-.21.25.25,0,0,1,.21-.29s3.05-.45,4.12-.68a.25.25,0,0,1,.11.49c-1.09.23-4,.67-4.16.69Z" style="fill: rgb(38, 50, 56); transform-origin: 485.406px 272.127px;" id="el1m7e2o34h4y" class="animable"></path><path d="M483.33,268.18a.25.25,0,0,1-.05-.49l4.46-1a.26.26,0,0,1,.3.19.25.25,0,0,1-.2.3l-4.45,1Z" style="fill: rgb(38, 50, 56); transform-origin: 485.572px 267.433px;" id="elbw8bvpyc8yv" class="animable"></path><path d="M477,290.91a.26.26,0,0,1-.24-.18.25.25,0,0,1,.17-.31l13.26-4a.25.25,0,0,1,.31.16.26.26,0,0,1-.17.32l-13.25,4Z" style="fill: rgb(38, 50, 56); transform-origin: 483.63px 288.66px;" id="el6gtk7kp05ue" class="animable"></path><polygon points="449.68 426.63 452.26 445.59 458.44 445.9 460.44 427.63 449.68 426.63" style="fill: rgb(137, 85, 85); transform-origin: 455.06px 436.265px;" id="eljfwgnmgsg8" class="animable"></polygon><path d="M463.7,454.39H449.88a3.49,3.49,0,0,1,0-2.12,8,8,0,0,1,.21-.8.06.06,0,0,0,0,0c.13-.43.28-1,.44-1.52a61.55,61.55,0,0,0,1.06-7.64s2.62-2.62,5.31-1.39c2.36,1.08,2,2.44,2,2.44s0,3.53,1.83,5.13c1.1,1,2.2,1.75,2.73,3a4,4,0,0,1,.24.74s0,.06,0,.09A5.73,5.73,0,0,1,463.7,454.39Z" style="fill: rgb(0, 255, 136); transform-origin: 456.755px 447.491px;" id="el9uva3jbe1j6" class="animable"></path><g id="elkohv4j0bmt"><g style="opacity: 0.4; transform-origin: 456.791px 453.325px;" class="animable"><path d="M449.92,452.27a3.49,3.49,0,0,0,0,2.12H463.7a5.73,5.73,0,0,0,.05-2.13Z" style="fill: rgb(255, 255, 255); transform-origin: 456.791px 453.325px;" id="elfi3kja6w25l" class="animable"></path></g></g><path d="M458.19,445.82a1.86,1.86,0,0,0-2.5.15.2.2,0,0,1-.28-.29,2.27,2.27,0,0,1,3.07-.15c.21.16-.08.44-.29.29Z" style="fill: rgb(38, 50, 56); transform-origin: 456.951px 445.515px;" id="eldmmzi4lr9r7" class="animable"></path><path d="M458.58,447.11a1.86,1.86,0,0,0-2.5.15.2.2,0,0,1-.28-.29,2.27,2.27,0,0,1,3.07-.15c.21.16-.08.45-.29.29Z" style="fill: rgb(38, 50, 56); transform-origin: 457.341px 446.804px;" id="elruchimrxwp8" class="animable"></path><path d="M459,448.29a1.86,1.86,0,0,0-2.49.16c-.19.18-.48-.11-.29-.29a2.28,2.28,0,0,1,3.07-.16c.21.17-.08.45-.29.29Z" style="fill: rgb(38, 50, 56); transform-origin: 457.76px 447.994px;" id="el69srkbe0p1s" class="animable"></path><path d="M464,306.38l-29.83.26L416,306.09s-12.75,55-13.83,65.32-10.38,64.87-10.38,64.87l14.12,3.1s16.05-58.29,17.21-63.89c1-4.88,12.16-36.18,15-44.14.28,1.63.58,3.27.88,4.89.72,7.34,3,30.74,4,39.44,0,0,2.18,49.73,4.72,64.17l13.29,0c1.75-20.5,2.87-92.51,2.87-92.51h0C464.88,331.72,464,306.38,464,306.38Z" style="fill: rgb(38, 50, 56); transform-origin: 428.074px 372.97px;" id="elbeuzplgwbr" class="animable"></path><g id="el53krly9p72i"><g style="opacity: 0.5; transform-origin: 437.906px 345.903px;" class="animable"><path d="M423.41,314.31a17.57,17.57,0,0,1-11.76,11.62.24.24,0,0,0,.12.47,18.07,18.07,0,0,0,12.11-12,.24.24,0,0,0-.47-.13Z" id="el2sah2tihoy4" class="animable" style="transform-origin: 417.678px 320.249px;"></path><path d="M438.56,314.31q-.49,7.28-1,14.56c0,.31-.5.31-.48,0,.17-2.49.34-5,.5-7.48-1.2.92-2.6-.2-3-1.43a12.16,12.16,0,0,1,.1-6.39.24.24,0,0,1,.47.13,13.75,13.75,0,0,0-.4,4.29,6,6,0,0,0,.46,2.26c.39.75,1.36,1.38,2.13.7a.23.23,0,0,1,.26,0l.45-6.6C438.09,314,438.58,314,438.56,314.31Z" id="elozlh9r16ro" class="animable" style="transform-origin: 436.381px 321.247px;"></path><path d="M452.83,315.13a12.26,12.26,0,0,0,11.29,12.33c.3,0,.3-.46,0-.48a11.77,11.77,0,0,1-10.81-11.85.24.24,0,0,0-.48,0Z" id="ela1ugp6yhusr" class="animable" style="transform-origin: 458.587px 321.175px;"></path><path d="M456,377.87a8.94,8.94,0,0,0,6.14,0c.29-.1.16-.57-.13-.46a8.55,8.55,0,0,1-5.88,0c-.29-.1-.42.36-.13.46Z" id="eldw8fisqhrhu" class="animable" style="transform-origin: 459.07px 377.904px;"></path></g></g><path d="M427.71,229.06c5.11,3.73,5.75,14.21-10,36.76l-12.54-13.25c3.25-5.74,6.07-8.55,10.9-15.37C423.64,226.63,427.71,229.06,427.71,229.06Z" style="fill: rgb(0, 255, 136); transform-origin: 418.057px 247.319px;" id="elfwzd7l53o6d" class="animable"></path><path d="M427.59,228.66c1.8-.11,6-.63,11.49-.73a121.21,121.21,0,0,1,25.38,2.17l-1,63.51s.43,8.41,1.51,16.86c-17.33,6.7-39.61,4.71-50.65-2.17.11.27.82-6.67,1.9-16.83,1.9-17.91,4.95-45.83,7.9-61.93C424.23,229.14,427.19,228.69,427.59,228.66Z" style="fill: rgb(0, 255, 136); transform-origin: 439.645px 271.251px;" id="elv1rl163juz" class="animable"></path><g id="elrwia79etli"><polygon points="419.39 263.32 421.99 243.14 416.08 264.14 417.67 265.82 419.39 263.32" style="isolation: isolate; opacity: 0.2; transform-origin: 419.035px 254.48px;" class="animable"></polygon></g><g id="elvc0n7j84b3f"><polygon points="462.64 265.75 461.73 265.86 458.44 249.73 459.96 267.84 462.86 268.31 462.64 265.75" style="isolation: isolate; opacity: 0.2; transform-origin: 460.65px 259.02px;" class="animable"></polygon></g><path d="M465.23,292.06s-11.82-9.89-14.85-16.19a52.23,52.23,0,0,1-4.92-22.64c0-8.71,1.38-14.41,4-19.58a20,20,0,0,1,5.8-7.26c3.43.49,6.48,1.34,9.17,3.71,0,0-9.07,1.63-10.17,11.31-.56,4.92-1,17.91,1.19,25.6s16.23,17.89,16.23,17.89Z" style="fill: rgb(0, 255, 136); transform-origin: 458.569px 259.225px;" id="ellwbi7m5j7tq" class="animable"></path><g id="eld2d7kh166a"><path d="M465.23,292.06s-11.82-9.89-14.85-16.19a52.23,52.23,0,0,1-4.92-22.64c0-8.71,1.38-14.41,4-19.58a20,20,0,0,1,5.8-7.26c3.43.49,6.48,1.34,9.17,3.71,0,0-9.07,1.63-10.17,11.31-.56,4.92-1,17.91,1.19,25.6s16.23,17.89,16.23,17.89Z" style="isolation: isolate; opacity: 0.4; transform-origin: 458.569px 259.225px;" class="animable"></path></g><path d="M462.29,260.32l2.7,12.15-8.8-11.57-7.42,4.15S462,289.11,470,289.36c11.66.37,5.81-31.3,5.81-31.3Z" style="fill: rgb(137, 85, 85); transform-origin: 463.024px 273.712px;" id="elmzugkc6qvl" class="animable"></path><path d="M464.46,230.1s6.52,1.21,8.09,9.38c1.45,7.53,5.51,24.27,5.51,24.27l-16.33,2.11-3.29-19.58Z" style="fill: rgb(0, 255, 136); transform-origin: 468.25px 247.98px;" id="elsdl2q165thc" class="animable"></path><path d="M418.15,274.06a36.58,36.58,0,0,1-2.34-12.25c.27-14.49,3.56-24.68,5.75-28.51a16.88,16.88,0,0,1,5.21-5.26,14.46,14.46,0,0,1,9.73-2c.93.14,1.6,2,1.6,2h-.38s-4.46-.76-10.36,5.6c-3.83,4.13-5.06,16.54-7.26,27.05C419.56,263.28,418.15,274.06,418.15,274.06Z" style="fill: rgb(0, 255, 136); transform-origin: 426.955px 249.971px;" id="elxye7xi9kt8c" class="animable"></path><g id="elbu5vtiqubi"><g style="isolation: isolate; opacity: 0.4; transform-origin: 426.955px 249.971px;" class="animable"><path d="M418.15,274.06a36.58,36.58,0,0,1-2.34-12.25c.27-14.49,3.56-24.68,5.75-28.51a16.88,16.88,0,0,1,5.21-5.26,14.46,14.46,0,0,1,9.73-2c.93.14,1.6,2,1.6,2h-.38s-4.46-.76-10.36,5.6c-3.83,4.13-5.06,16.54-7.26,27.05C419.56,263.28,418.15,274.06,418.15,274.06Z" id="el9e5o9x1ya7g" class="animable" style="transform-origin: 426.955px 249.971px;"></path></g></g><path d="M453.19,253.24s-7.5-5.48-8-5a5.14,5.14,0,0,0-1.53,3.9,2.84,2.84,0,0,0-.7,3.22l.7,1s-2.26.22-1.17,3.05,4.11,5,6.35,6.1,7.34.44,7.35,0,.68-9.88.52-12.32-2.85-5.23-3.11-5.29Z" style="fill: rgb(137, 85, 85); transform-origin: 449.464px 257.006px;" id="elnk786ecwi1" class="animable"></path><path d="M416,293.8a66.71,66.71,0,0,0,21.43,5.27c13.22.67,25.51,0,25.51,0v6s-18,1.1-29.35-.21-18.27-4.76-18.27-4.76Z" style="fill: rgb(38, 50, 56); transform-origin: 439.13px 299.651px;" id="el1273m02bu6pp" class="animable"></path><path d="M451,300.45a8.85,8.85,0,0,1,2.68-5.79c4-3.42,17.31-1.34,21-2.92a52.91,52.91,0,0,1,9.17-2.58s0,15-1,16-11.95,5.09-18,3.7S451.91,307.87,451,300.45Z" style="fill: rgb(0, 255, 136); transform-origin: 467.425px 299.153px;" id="elj3sw0ez46nq" class="animable"></path><g id="elf9b5q67n295"><path d="M451,300.45a8.85,8.85,0,0,1,2.68-5.79c4-3.42,17.31-1.34,21-2.92a52.91,52.91,0,0,1,9.17-2.58s0,15-1,16-11.95,5.09-18,3.7S451.91,307.87,451,300.45Z" style="isolation: isolate; opacity: 0.4; transform-origin: 467.425px 299.153px;" class="animable"></path></g><path d="M426.82,296.74l-1.28,7.53s5.07,1.71,7,1.3l1.25-7.52Z" style="fill: rgb(38, 50, 56); transform-origin: 429.665px 301.187px;" id="elvtb1j907cc" class="animable"></path><g id="el47x6s4z5muq"><path d="M426.82,296.74l-1.28,7.53s5.07,1.71,7,1.3l1.25-7.52Z" style="fill: rgb(255, 255, 255); opacity: 0.3; transform-origin: 429.665px 301.187px;" class="animable"></path></g><path d="M451,229.59s.43-5.21,5.36-13.3c0,0-.4-.34-.4-.35.69-1.13,1.37-2.16,2-3.05a.16.16,0,0,0,0,0l-14,4.16c-.48,2.89-3,8-4.19,10.17,0,0-2.64,3.73,2.83,5.41C446.55,233.82,451,229.59,451,229.59Z" style="fill: rgb(137, 85, 85); transform-origin: 448.547px 222.866px;" id="eld1hcdosv01i" class="animable"></path><g id="elgt9nz9pmac"><path d="M442.63,220.9l7.34.32c-1.22,2-3.81,4-8.68,2.92A21.59,21.59,0,0,0,442.63,220.9Z" style="opacity: 0.2; transform-origin: 445.63px 222.672px;" class="animable"></path></g><path d="M459.61,207c-2.88,7.4-4.35,11.63-9.39,14.24-7.59,3.93-15.62-2.35-15-10.48.55-7.32,5.17-18.18,13.5-18.74A10.94,10.94,0,0,1,459.61,207Z" style="fill: rgb(137, 85, 85); transform-origin: 447.79px 207.219px;" id="eliv4vg2wkor" class="animable"></path><path d="M463.47,198.28c.3-4.49-10.11-7.87-13.7-6.68-.53.18,4.65,5.26,4.32,5l2.58,1.94c.48,0,1.19.84,1.2,2.38,0,0-4,11.46-1.83,15.85,3-.44,4.67-5,6.37-7.43C465,205.67,468.35,200.19,463.47,198.28Z" style="fill: rgb(38, 50, 56); transform-origin: 457.847px 204.065px;" id="elu9f027p9rxd" class="animable"></path><g id="eluihal5p7f1e"><path d="M435.21,210.8a70.37,70.37,0,0,0,9,.43,37.05,37.05,0,0,1,5.55,0c1.54.12,6-2.91,6-2.91l.84.74-.9,8.23s-6.27,7.35-13.46,4.63a11,11,0,0,1-7-11.14" style="opacity: 0.1; transform-origin: 445.902px 215.422px;" class="animable"></path></g><path d="M460.58,214.28a7.5,7.5,0,0,1-4.88,3c-2.61.4-2.66-2.33-1.69-4.64.88-2.08,2.34-4.49,4.84-3.83A3.42,3.42,0,0,1,460.58,214.28Z" style="fill: rgb(137, 85, 85); transform-origin: 457.395px 213.009px;" id="elzqade53bl9f" class="animable"></path><path d="M448.12,205.76c-.25.78-.86,1.27-1.36,1.1s-.71-.93-.46-1.7.85-1.26,1.35-1.1S448.37,205,448.12,205.76Z" style="fill: rgb(38, 50, 56); transform-origin: 447.209px 205.462px;" id="el4ix7cq4eyov" class="animable"></path><path d="M440.5,203.49c-.25.77-.85,1.26-1.36,1.1s-.71-.93-.46-1.7.85-1.26,1.36-1.1S440.75,202.72,440.5,203.49Z" style="fill: rgb(38, 50, 56); transform-origin: 439.59px 203.19px;" id="elwzqllc939wq" class="animable"></path><path d="M443.1,203.85s-3.67,3.06-5,4.37a3.83,3.83,0,0,0,2.75,1.46Z" style="fill: rgb(86, 22, 22); transform-origin: 440.6px 206.765px;" id="elaf6tix6niq9" class="animable"></path><path d="M451.17,202.73a.39.39,0,0,1-.35-.17,3.05,3.05,0,0,0-2.36-1.4.37.37,0,0,1-.39-.37.37.37,0,0,1,.37-.38,3.77,3.77,0,0,1,3,1.73.38.38,0,0,1-.1.53A.3.3,0,0,1,451.17,202.73Z" style="fill: rgb(38, 50, 56); transform-origin: 449.788px 201.57px;" id="elk8a26m5po7m" class="animable"></path><path d="M443.8,213.51a4.17,4.17,0,0,1-1.27-.21.37.37,0,0,1-.24-.47.37.37,0,0,1,.47-.24,4.29,4.29,0,0,0,3.41-.51.38.38,0,0,1,.5.17.39.39,0,0,1-.17.51A6.27,6.27,0,0,1,443.8,213.51Z" style="fill: rgb(38, 50, 56); transform-origin: 444.489px 212.777px;" id="elajgbyx8r1yv" class="animable"></path><g id="elpe8i957c6ei"><path d="M455.36,213.05a.22.22,0,0,1-.11,0,.25.25,0,0,1-.12-.33,4.11,4.11,0,0,1,1.36-1.67,2.64,2.64,0,0,1,1.76-.58,1.68,1.68,0,0,1,1.51,1.13.25.25,0,0,1-.17.31.26.26,0,0,1-.31-.17,1.17,1.17,0,0,0-1.07-.77,2.29,2.29,0,0,0-1.43.48,3.77,3.77,0,0,0-1.2,1.48A.24.24,0,0,1,455.36,213.05Z" style="opacity: 0.2; transform-origin: 457.439px 211.762px;" class="animable"></path></g><path d="M438.2,199.16a.38.38,0,0,1,0-.67,3.76,3.76,0,0,1,3.45,0,.38.38,0,0,1-.38.66,2.91,2.91,0,0,0-2.73.06A.38.38,0,0,1,438.2,199.16Z" style="fill: rgb(38, 50, 56); transform-origin: 439.919px 198.65px;" id="el91prgfh55qc" class="animable"></path><path d="M466.07,195.5c-.05-1.87-2.14-2.91-3.92-3.07.71-2.05-1.63-4.06-3.35-4.52a3.57,3.57,0,0,0-2.64,0,4.51,4.51,0,0,0-.52-1.74,5.62,5.62,0,0,0-5.57-2.92,6.09,6.09,0,0,0-4.86,4.3,3,3,0,0,0-4.13-1.14,3.42,3.42,0,0,0-1.12,4.38,2.7,2.7,0,0,0-3.08,2.14A2.67,2.67,0,0,0,439,196c-.38,1.56-.79,3.53-1.18,5.09l3.75-5c1.17-.06,1.51-.48,2.07-1.57.34,1.68,1.6,1.93,3.19,2.34a4.56,4.56,0,0,0,4.51-1.5,4.88,4.88,0,0,0,3.22,3.83,3.5,3.5,0,0,0,4.19-2.25,3.76,3.76,0,0,0,4.18,2.6A4.12,4.12,0,0,0,466.07,195.5Z" style="fill: rgb(38, 50, 56); transform-origin: 451.456px 192.153px;" id="elp6lrgrjje5" class="animable"></path></g><g id="freepik--character-1--inject-1047" class="animable animator-active" style="transform-origin: 192.602px 276.275px;"><polygon points="101.01 329.81 154.24 279.09 185.89 298.71 116.02 366.31 80.63 350.08 101.01 329.81" style="fill: rgb(230, 230, 230); transform-origin: 133.26px 322.7px;" id="el11y6p29djba9" class="animable"></polygon><polygon points="140.18 356.65 193.1 303.75 202.47 309.71 140.6 377.29 132.09 368.04 140.18 356.65" style="fill: rgb(230, 230, 230); transform-origin: 167.28px 340.52px;" id="elpxw665iupw" class="animable"></polygon><path d="M317,448.68H253.84a1,1,0,1,1,0-2H317a47.81,47.81,0,0,0,0-95.62h-51.1a1.06,1.06,0,0,1-.54-.16L19.63,194.54a1,1,0,1,1,1.08-1.69L266.16,349.06H317a49.81,49.81,0,0,1,0,99.62Z" style="fill: rgb(38, 50, 56); transform-origin: 192.989px 320.686px;" id="elvnaht3hdem" class="animable"></path><polygon points="282.97 444.58 282.97 423.61 237.31 423.61 237.31 402.31 192.48 402.31 192.48 378.07 146.42 378.07 146.42 357.42 101.01 357.42 101.01 336.75 57.01 336.75 54.42 358 145.7 411.06 245.88 448.95 278.21 448.95 328.21 449.59 328.21 444.58 282.97 444.58" style="fill: rgb(38, 50, 56); transform-origin: 191.315px 393.17px;" id="elrta4bn87l6" class="animable"></polygon><g id="ellihnub8952e"><polygon points="282.97 444.58 282.97 423.61 237.31 423.61 237.31 402.31 192.48 402.31 192.48 378.07 146.42 378.07 146.42 357.42 101.01 357.42 101.01 336.75 57.01 336.75 54.42 358 147.87 413.86 245.88 448.95 278.21 448.95 328.21 449.59 328.21 444.58 282.97 444.58" style="fill: rgb(255, 255, 255); opacity: 0.3; transform-origin: 191.315px 393.17px;" class="animable"></polygon></g><polygon points="250.64 444.58 250.64 423.61 204.99 423.61 204.99 402.31 160.15 402.31 160.15 378.07 114.09 378.07 114.09 357.42 68.68 357.42 68.68 336.75 24.69 336.75 24.73 347.7 24.69 448.95 245.36 449.81 295.88 449.81 295.88 444.58 250.64 444.58" style="fill: rgb(38, 50, 56); transform-origin: 160.285px 393.28px;" id="elubdttcu3p9" class="animable"></polygon><path d="M192.23,156c3.45,5.72,6.57,11.44,9.5,17.4,1.45,3,2.87,6,4.17,9.07s2.57,6.2,3.65,9.49l.41,1.23.2.63.22.78c.28,1,.45,1.92.62,2.81.32,1.79.52,3.5.68,5.19.36,3.31.51,6.62.63,9.93.2,6.63.95,13.51.53,20.09l-6.59,2-3.57-21.15c-.49-3.16-1.05-6.28-1.64-9.32-.29-1.51-.64-3-1-4.41a26,26,0,0,0-1.35-3.83c-2.33-5.59-5.21-11.24-8.18-16.82s-6.1-11.21-9.18-16.66Z" style="fill: rgb(205, 135, 123); transform-origin: 197.148px 195.31px;" id="elivqgy1fvamo" class="animable"></path><path d="M206.3,234.38a21.25,21.25,0,0,1-4.76,7.17,9.32,9.32,0,0,0-1.17,1.09.94.94,0,0,0,0,1.14,1.93,1.93,0,0,0,1.46.21,10.18,10.18,0,0,0,3.28-1.78,9,9,0,0,0,.57,3.84,2.9,2.9,0,0,0,1.26,1.43,1.27,1.27,0,0,0,1.66-.45,2.35,2.35,0,0,0,2.83-.55,2,2,0,0,0,2.16-.54,2.62,2.62,0,0,1,.43-.68,2.43,2.43,0,0,1,.71-.27c.79-.29,1-1.28,1.11-2.12.39-3.38-1.72-7.15-3-10.3" style="fill: rgb(205, 135, 123); transform-origin: 208.032px 240.097px;" id="elx660hrds1n" class="animable"></path><path d="M212,242.26a6.75,6.75,0,0,1,8.22,4.82l19.55,75.07a6.75,6.75,0,0,1-4.82,8.22l-7,1.81a6.75,6.75,0,0,1-8.22-4.82l-19.55-75.07a6.75,6.75,0,0,1,4.82-8.22l6.95-1.81m-.32-1.25-6.95,1.81a8.05,8.05,0,0,0-5.75,9.79l19.55,75.07a8,8,0,0,0,9.79,5.75l6.95-1.81a8,8,0,0,0,5.75-9.79l-19.55-75.07A8,8,0,0,0,211.72,241Z" id="eldi9ym58lhza" class="animable" style="transform-origin: 219.955px 287.226px;"></path><path d="M262.69,384.35a3,3,0,1,1-2.18,3.71A3,3,0,0,1,262.69,384.35Z" id="elnr5atj6jn5" class="animable" style="transform-origin: 263.403px 387.264px;"></path><path d="M256,389.22a3.05,3.05,0,1,1-3.75-2.13h0A3,3,0,0,1,256,389.22Z" id="el4uovj7ylnid" class="animable" style="transform-origin: 253.06px 390.025px;"></path><path d="M239.09,393.64a3,3,0,1,1-3.72-2.18A3,3,0,0,1,239.09,393.64Z" id="elom3rh1h90ce" class="animable" style="transform-origin: 236.175px 394.35px;"></path><path d="M225,394.16a3,3,0,1,1-2.18,3.71A3,3,0,0,1,225,394.16Z" id="elod2u9yp6wvp" class="animable" style="transform-origin: 225.713px 397.074px;"></path><g id="eladc6ktzu6pf"><rect x="211.03" y="311.27" width="51.3" height="79.68" rx="4.77" style="fill: rgb(0, 255, 136); transform-origin: 236.68px 351.11px; transform: rotate(-14.6deg);" class="animable"></rect></g><g id="eljknbhob5y8r"><rect x="211.03" y="311.27" width="51.3" height="79.68" rx="4.77" style="opacity: 0.5; transform-origin: 236.68px 351.11px; transform: rotate(-14.6deg);" class="animable"></rect></g><g id="elydjyt7z1qed"><rect x="206.32" y="313.12" width="46.46" height="79.68" rx="4.77" style="fill: rgb(0, 255, 136); transform-origin: 229.55px 352.96px; transform: rotate(-14.6deg);" class="animable"></rect></g><g id="elfsskflsr485"><rect x="206.32" y="313.12" width="46.46" height="79.68" rx="4.77" style="opacity: 0.3; transform-origin: 229.55px 352.96px; transform: rotate(-14.6deg);" class="animable"></rect></g><g id="elqh184ctw1k"><path d="M224.19,387.58h0a2,2,0,0,1-2.39-1.4l-14.39-55.25a2,2,0,0,1,1.4-2.38h0a2,2,0,0,1,2.39,1.4l14.39,55.24A2,2,0,0,1,224.19,387.58Z" style="fill: rgb(255, 255, 255); opacity: 0.3; transform-origin: 216.501px 358.065px;" class="animable"></path></g><g id="el1w1geofu4l4"><path d="M233.35,385.2h0a2,2,0,0,1-2.39-1.4l-14.39-55.25a2,2,0,0,1,1.4-2.39h0a2,2,0,0,1,2.39,1.4l14.39,55.25A2,2,0,0,1,233.35,385.2Z" style="fill: rgb(255, 255, 255); opacity: 0.3; transform-origin: 225.66px 355.68px;" class="animable"></path></g><g id="elc258zcuhhiq"><path d="M242.51,382.81h0a2,2,0,0,1-2.39-1.4l-14.39-55.25a2,2,0,0,1,1.4-2.39h0a2,2,0,0,1,2.39,1.4l14.39,55.25A2,2,0,0,1,242.51,382.81Z" style="fill: rgb(255, 255, 255); opacity: 0.3; transform-origin: 234.82px 353.29px;" class="animable"></path></g><g id="elay97pmgins9"><path d="M251.67,380.42h0a2,2,0,0,1-2.39-1.4l-14.39-55.25a2,2,0,0,1,1.4-2.38h0a2,2,0,0,1,2.39,1.4L253.06,378A1.94,1.94,0,0,1,251.67,380.42Z" style="fill: rgb(255, 255, 255); opacity: 0.3; transform-origin: 243.987px 350.905px;" class="animable"></path></g><g id="elm3ksf72zr"><g style="opacity: 0.3; transform-origin: 209.261px 241.421px;" class="animable"><path d="M205,243.17a8.1,8.1,0,0,1,6.81-4.55,1.67,1.67,0,0,1,1.38.39,1.74,1.74,0,0,1,.29,1.4c-.07.68-.55-.24-.74.42-.1.34-.85.78-1.1,1a1.7,1.7,0,0,1-1,.52c-1.54.36-2.3,2-3.88,1.89" id="elez8k5xfv7u" class="animable" style="transform-origin: 209.261px 241.421px;"></path></g></g><path d="M215.25,241.69a3.35,3.35,0,0,0-.06-1.41,1.16,1.16,0,0,0-1.05-.83,1.12,1.12,0,0,0-.82.52,2.67,2.67,0,0,0-.32.95,7.06,7.06,0,0,0-.08,1.45,4.73,4.73,0,0,0-.2-1.24,1.52,1.52,0,0,0-.81-.91.78.78,0,0,0-.54,0,1.13,1.13,0,0,0-.61.83,5.12,5.12,0,0,0-.1,2.27,7.36,7.36,0,0,1-.34-1.22,2.46,2.46,0,0,0-.56-1.13,1.06,1.06,0,0,0-1.16-.28,1.37,1.37,0,0,0-.74.93,5.63,5.63,0,0,0-.13,1.92,5.18,5.18,0,0,0-.51-1.72,1,1,0,0,0-.29-.38.8.8,0,0,0-.87.18,2.51,2.51,0,0,0-.79,1.64,6,6,0,0,0,.57,3.06s1.73-.47,1.84-.53l6.72-3.11Z" style="fill: rgb(205, 135, 123); transform-origin: 210.275px 242.885px;" id="el230o92f1q4n" class="animable"></path><path d="M152.3,134.36a11,11,0,0,0,.36,1.15,11.39,11.39,0,0,0,4.11,5.38,11,11,0,0,0,1.5.92,10.53,10.53,0,0,0,12.42-1.95c4.16-4.12,4.05-8.89,4.53-17a11.17,11.17,0,0,0-15.53-11h0C151.66,115.08,150.56,127.09,152.3,134.36Z" style="fill: rgb(205, 135, 123); transform-origin: 163.417px 126.992px;" id="elek7h932lrga" class="animable"></path><g id="elksxzqyljem"><path d="M156.8,140.89a11,11,0,0,0,1.5.92,10.58,10.58,0,0,0,9,.38,12.22,12.22,0,0,0-1.48-2.73A16.37,16.37,0,0,0,156.8,140.89Z" style="isolation: isolate; opacity: 0.2; transform-origin: 162.05px 141.173px;" class="animable"></path></g><path d="M173.32,151.36c-4,3.61-13.95,2.28-13.95,2.28s-6.19-1.67-4.88-3.56c3.63-.59,5.4-2.26,6.13-4.41a10.48,10.48,0,0,0,.37-4.09,21.91,21.91,0,0,0-.31-2.28l12.25-8.91C171.33,136.27,169.36,147.1,173.32,151.36Z" style="fill: rgb(205, 135, 123); transform-origin: 163.814px 142.135px;" id="ellyg6i5530gs" class="animable"></path><path d="M156.8,127l-1.77.65.88-3.56s-2.59-3.88,0-7.25c0,0-7.15-2.14-3.11-5.83,1.5-1.37,3.37,0,8.3-2.1,2.68-1.16,11.05-1.24,11.47,2.1,0,0,6,0,6.69,10.1a20.09,20.09,0,0,1-6.39,16s-7.29,1.69-10.87-1.19S156.8,127,156.8,127Z" style="fill: rgb(38, 50, 56); transform-origin: 165.432px 122.893px;" id="el6rh5jo2trn5" class="animable"></path><path d="M161.46,127.59a5.18,5.18,0,0,1-2.73,3.58c-1.67.7-2.77-1.61-2.52-4,.22-2.15,1.36-5.18,3.15-4.77S162,125.42,161.46,127.59Z" style="fill: rgb(205, 135, 123); transform-origin: 158.898px 126.83px;" id="elgncdnchqfak" class="animable"></path><path d="M162.64,103.52c-11.72-4-14.66,11.38-3,21.76s25,11.65,26.54,6.39S180.54,109.61,162.64,103.52Z" style="fill: rgb(0, 255, 136); transform-origin: 169.308px 118.784px;" id="elf33l3kwtedj" class="animable"></path><path d="M174.39,102.74c-6,0-14.56,6-14.56,6s-1.22,6.41,4.77,12,11.41,6.53,14.74,4.34,4.27-10.68,4.27-10.68a6.56,6.56,0,0,0-4.27-4.32S178.36,102.81,174.39,102.74Z" style="fill: rgb(0, 255, 136); transform-origin: 171.669px 114.456px;" id="el8dhe475podn" class="animable"></path><g id="elvgm6370pudc"><path d="M164.6,120.8c6,5.63,11.39,6.53,14.74,4.35a5.28,5.28,0,0,0,1.47-1.51c2.17-3.22,2.8-9.15,2.8-9.15-5.73,6.8-12.36-.22-13.28-5a7.4,7.4,0,0,1,1.53-6.5c-4,.84-8.28,3.32-10.51,4.73-1,.6-1.52,1-1.52,1S158.61,115.17,164.6,120.8Z" style="isolation: isolate; opacity: 0.2; transform-origin: 171.669px 114.616px;" class="animable"></path></g><g id="ellctc37haff"><path d="M164.6,120.8c6,5.63,11.39,6.53,14.74,4.35a5.28,5.28,0,0,0,1.47-1.51c-6,1.76-13.16-1.17-17-6.42a12.84,12.84,0,0,1-2.46-9.46c-1,.6-1.52,1-1.52,1S158.61,115.17,164.6,120.8Z" style="fill: rgb(255, 255, 255); isolation: isolate; opacity: 0.6; transform-origin: 170.269px 117.001px;" class="animable"></path></g><path d="M137.4,300.44c.29,4.49,3.67,71.61,3.67,71.61h9.32c2-22.83,3.76-39.43,4.12-51.09.47-15.65-.8-22.51-.31-24.64h0c1.45-6.3,2.82-14.59,3.76-20.78.76-5,1.23-8.51,1.23-8.51l-19-6.49s-1.15,7.79-2,17.13c-.43,4.68-.8,9.76-.91,14.49A79.66,79.66,0,0,0,137.4,300.44Z" style="fill: rgb(205, 135, 123); transform-origin: 148.207px 316.295px;" id="elig9kj9h81gf" class="animable"></path><g id="elirgo99k5smi"><path d="M137.28,292l17.16,3.19c1.29-6.3,3-12.7,3.8-18.89l-18.55,1.32c-.28,3.48-2.88,14-2.26,10.46C137.44,288,137.31,290.82,137.28,292Z" style="isolation: isolate; opacity: 0.2; transform-origin: 147.76px 285.745px;" class="animable"></path></g><path d="M150.86,366.9c.91,2.43,1,12.37,1,12.37l-19.62,0c-1.16-3.59.64-6,2.93-6.37a6.38,6.38,0,0,0,3-2c0-.11,1.21-5.64,1.95-5.9a.59.59,0,0,1,1,0,9.31,9.31,0,0,1,.81,2.44C144.89,363.63,147.89,364.13,150.86,366.9Z" style="fill: rgb(38, 50, 56); transform-origin: 141.869px 371.986px;" id="elsv7p7gg9z0c" class="animable"></path><path d="M151.1,369.79a7,7,0,0,0-6.53.85c-.34.24-.66-.32-.32-.55a7.58,7.58,0,0,1,7-.92c.38.14.22.76-.17.62Z" style="fill: rgb(255, 255, 255); transform-origin: 147.786px 369.7px;" id="eln1ypd6n239f" class="animable"></path><path d="M132.27,377.84h0l19.33,0a.32.32,0,0,0,.32-.32.32.32,0,0,0-.32-.32h0l-19.33,0a.32.32,0,1,0,0,.64Z" style="fill: rgb(255, 255, 255); transform-origin: 141.935px 377.52px;" id="elj0vioniwuvd" class="animable"></path><path d="M167.94,258.81s.45,6.53,1.12,15.28c.44,5.44,1,11.72,1.6,17.79.81,8.16,1.73,15.94,2.65,20.79.85,4.44,12,59.62,12,59.62h7.51c1.78-52.09-6-71.41-6.17-74.41,0-1-.08-2.34-.13-4-.15-5.87-.27-15.14-.35-21.89-.06-4.87-.09-8.41-.09-8.41Z" style="fill: rgb(205, 135, 123); transform-origin: 180.512px 315.55px;" id="ell5bzegh9x9" class="animable"></path><g id="el8bot3hotjzj"><path d="M186.25,272l-17.19,2.08c.44,5.44,1,11.72,1.6,17.79l15.94,2C186.45,288,186.32,278.76,186.25,272Z" style="isolation: isolate; opacity: 0.2; transform-origin: 177.83px 282.935px;" class="animable"></path></g><path d="M193.26,366.93c.93,2.48,1,12.61,1,12.61l-20,0c-1.19-3.66.65-6.16,3-6.5a6.49,6.49,0,0,0,3-2.07c0-.11,1.23-5.74,2-6a.61.61,0,0,1,1,0,9.6,9.6,0,0,1,.83,2.49C187.18,363.59,190.24,364.11,193.26,366.93Z" style="fill: rgb(38, 50, 56); transform-origin: 184.074px 372.113px;" id="elbn43mozgwd" class="animable"></path><path d="M193.5,369.87a7.15,7.15,0,0,0-6.65.87c-.34.24-.67-.32-.33-.56a7.75,7.75,0,0,1,7.16-.94c.39.15.22.78-.18.63Z" style="fill: rgb(255, 255, 255); transform-origin: 190.139px 369.779px;" id="elszoy4kc59v" class="animable"></path><path d="M174.32,378.08h0l19.7,0a.33.33,0,0,0,.32-.33.32.32,0,0,0-.32-.33h0l-19.7,0a.33.33,0,1,0,0,.66Z" style="fill: rgb(255, 255, 255); transform-origin: 184.165px 377.75px;" id="elezk9hj1ntxr" class="animable"></path><path d="M167.26,288.1c-.07-.59-.15-1.21-.23-1.9-1-8.87-2-19.51-2.91-29.77-3.34,8-4.6,19.59-6.35,31.92l-22.2-.25c1.69-31.9,4.53-52.12,6.88-63.19l45.82.14s2,34.66,3.12,61.13Z" style="fill: rgb(0, 255, 136); transform-origin: 163.48px 256.63px;" id="el9t9z6638s2v" class="animable"></path><g id="eleghanpgbmo"><path d="M164.08,256.39c.92,10.25,1.94,20.92,2.91,29.79a155,155,0,0,0,.43-26.1s3.3-.54,8-8.58c4.54-7.82,1.23-14.1,1.23-14.1C176.81,248.89,164.08,256.39,164.08,256.39Z" style="isolation: isolate; opacity: 0.2; transform-origin: 170.947px 261.79px;" class="animable"></path></g><g id="eljsy8vmk2mw"><path d="M141.48,236.64a.26.26,0,0,1-.25-.24.26.26,0,0,1,.25-.26,14.13,14.13,0,0,0,12.45-8.1.26.26,0,0,1,.34-.12.25.25,0,0,1,.12.33,14.66,14.66,0,0,1-12.9,8.39Z" style="opacity: 0.3; transform-origin: 147.821px 232.268px;" class="animable"></path></g><g id="elnze7p65xdc"><path d="M138.49,284.62h0a.26.26,0,0,1-.21-.29c2.11-14.24,3.93-30.71,5.25-47.62a.25.25,0,1,1,.49,0c-1.31,16.92-3.13,33.4-5.25,47.66A.25.25,0,0,1,138.49,284.62Z" style="opacity: 0.3; transform-origin: 141.151px 260.516px;" class="animable"></path></g><g id="elqdotb75ub8n"><path d="M157.93,285.24h0l-21.74-.31a.26.26,0,0,1-.25-.26.25.25,0,0,1,.25-.24l21.75.31a.25.25,0,0,1,.25.25A.26.26,0,0,1,157.93,285.24Z" style="opacity: 0.3; transform-origin: 147.065px 284.835px;" class="animable"></path></g><g id="elulgssv3ivqo"><path d="M166.81,284a.25.25,0,0,1-.25-.23.24.24,0,0,1,.22-.27L191.15,281a.25.25,0,0,1,.27.23.25.25,0,0,1-.22.27L166.83,284Z" style="opacity: 0.3; transform-origin: 178.989px 282.5px;" class="animable"></path></g><path d="M182.91,147.9s2.79.31,4.19.54c2.93.5,5.3,3.21,6.85,6,3.78,6.86,13,21.84,13,21.84l-15.76,7.22-10.6-14.89Z" style="fill: rgb(0, 255, 136); transform-origin: 193.77px 165.7px;" id="elfjxfvgilmf6" class="animable"></path><g id="el58baksrfd8"><path d="M182.91,147.9s3.93,0,6.24,1.28a12.64,12.64,0,0,1,4.8,5.27c3.78,6.86,13,21.84,13,21.84l-15.76,7.22-10.6-14.89Z" style="fill: rgb(255, 255, 255); opacity: 0.5; transform-origin: 193.77px 165.705px;" class="animable"></path></g><path d="M149.34,148.83c4.25-.45,20.16-3,37.76-.39l1.31,64.63a172,172,0,0,0,2.09,18.5c-17.89,7.68-39.05,5.49-51-1,.14.27.53-6.83,1.14-17.24,1.09-18.33,2.86-46.91,5.14-63.46C145.82,149.49,148.91,148.88,149.34,148.83Z" style="fill: rgb(0, 255, 136); transform-origin: 165px 191.866px;" id="elhot937zuxot" class="animable"></path><g id="el0360wcwcr1n5"><g style="opacity: 0.5; transform-origin: 165px 191.866px;" class="animable"><path d="M149.34,148.83c4.25-.45,20.16-3,37.76-.39l1.31,64.63a172,172,0,0,0,2.09,18.5c-17.89,7.68-39.05,5.49-51-1,.14.27.53-6.83,1.14-17.24,1.09-18.33,2.86-46.91,5.14-63.46C145.82,149.49,148.91,148.88,149.34,148.83Z" style="fill: rgb(255, 255, 255); transform-origin: 165px 191.866px;" id="ela389dzvd8mm" class="animable"></path></g></g><path d="M172.74,147.3a6,6,0,0,0-2.13-3.19l-9.8.76-4.6,3Z" style="fill: rgb(0, 255, 136); transform-origin: 164.475px 145.99px;" id="elapcevlyj565" class="animable"></path><g id="el8amrcvnpbbx"><path d="M172.74,147.3a6,6,0,0,0-2.13-3.19l-9.8.76-4.6,3Z" style="fill: rgb(255, 255, 255); opacity: 0.6; transform-origin: 164.475px 145.99px;" class="animable"></path></g><g id="elijw12bzljw"><path d="M149.63,175.19c-1.73,8.05-3.18,14.55-7.86,20.06l1-13.11Z" style="isolation: isolate; opacity: 0.2; transform-origin: 145.7px 185.22px;" class="animable"></path></g><g id="elrzt7g0ie16"><polygon points="187.78 178.65 187.58 166.21 191.22 183.51 187.78 178.65" style="isolation: isolate; opacity: 0.2; transform-origin: 189.4px 174.86px;" class="animable"></polygon></g><path d="M136.22,169.71c-.24.22-8.85,34.28-10.43,36.38s-15.44,28.44-15.44,28.44l6.67,4.39s16.17-20.91,19.2-27.74,12-34.92,12-34.92Z" style="fill: rgb(205, 135, 123); transform-origin: 129.285px 204.315px;" id="el2kwnh0cl2yi" class="animable"></path><path d="M147.54,149.65c5.83,3.09,9.34,11-2.9,37.74l-16.8-8.15c2.5-5.92,4-7.64,6.79-15.75.33-.93,2.07-4.59,2.57-5.43C143.33,147.88,147.54,149.65,147.54,149.65Z" style="fill: rgb(0, 255, 136); transform-origin: 140.354px 168.461px;" id="el998studufq" class="animable"></path><g id="elwyyictwr7dn"><path d="M147.54,149.65c5.83,3.09,9.34,11-2.9,37.74l-16.8-8.15c2.5-5.92,4-7.64,6.79-15.75.33-.93,2.07-4.59,2.57-5.43C143.33,147.88,147.54,149.65,147.54,149.65Z" style="fill: rgb(255, 255, 255); opacity: 0.5; transform-origin: 140.354px 168.461px;" class="animable"></path></g><path d="M113.27,232.8s-3-1.17-5.5,0-4.7,1.38-6.46,2.34.89,1.54,2.36,1.55,3.14.05,3,1.16-6.34,8.52-6.43,10.08,1.28.67,1.28.67-1.45,1.85-.87,2.62c.14.2.82.42,1.61-.32,1.77-1.65,5.32-5.32,5.32-5.32-.2.21-4.26,5-4.78,5.85-.67,1-.45,1.89.17,2.26.89.53,6.13-5.3,6.52-5.4,0,0-3.13,3.26-2.73,4.53s2.48-.68,4-2.74c1.38-1.89,4.59-5.23,5.81-7.29,1.51-2.53,1.95-4.57.37-6.84A9.38,9.38,0,0,0,113.27,232.8Z" style="fill: rgb(205, 135, 123); transform-origin: 109.085px 243.002px;" id="el91bminewhq" class="animable"></path><path d="M287.49,448.68H224.36a1,1,0,1,1,0-2h63.13a47.81,47.81,0,0,0,0-95.62h-51.1a1,1,0,0,1-.53-.16l-217-138.11a1,1,0,0,1,1.07-1.69l216.79,138h50.8a49.81,49.81,0,0,1,0,99.62Z" style="fill: rgb(38, 50, 56); transform-origin: 177.845px 329.832px;" id="elar36zy1b314" class="animable"></path></g><defs>     <filter id="active" height="200%">         <feMorphology in="SourceAlpha" result="DILATED" operator="dilate" radius="2"></feMorphology>                <feFlood flood-color="#32DFEC" flood-opacity="1" result="PINK"></feFlood>        <feComposite in="PINK" in2="DILATED" operator="in" result="OUTLINE"></feComposite>        <feMerge>            <feMergeNode in="OUTLINE"></feMergeNode>            <feMergeNode in="SourceGraphic"></feMergeNode>        </feMerge>    </filter>    <filter id="hover" height="200%">        <feMorphology in="SourceAlpha" result="DILATED" operator="dilate" radius="2"></feMorphology>                <feFlood flood-color="#ff0000" flood-opacity="0.5" result="PINK"></feFlood>        <feComposite in="PINK" in2="DILATED" operator="in" result="OUTLINE"></feComposite>        <feMerge>            <feMergeNode in="OUTLINE"></feMergeNode>            <feMergeNode in="SourceGraphic"></feMergeNode>        </feMerge>            <feColorMatrix type="matrix" values="0   0   0   0   0                0   1   0   0   0                0   0   0   0   0                0   0   0   1   0 "></feColorMatrix>    </filter></defs></svg>