<svg class="animated" id="freepik_stories-curiosity-people" xmlns="http://www.w3.org/2000/svg" viewBox="0 0 500 500" version="1.1" xmlns:xlink="http://www.w3.org/1999/xlink" xmlns:svgjs="http://svgjs.com/svgjs"><style>svg#freepik_stories-curiosity-people:not(.animated) .animable {opacity: 0;}svg#freepik_stories-curiosity-people.animated #freepik--speech-bubble--inject-143 {animation: 1.5s Infinite  linear floating;animation-delay: 0s;}            @keyframes floating {                0% {                    opacity: 1;                    transform: translateY(0px);                }                50% {                    transform: translateY(-10px);                }                100% {                    opacity: 1;                    transform: translateY(0px);                }            }        </style><g id="freepik--Floor--inject-143" class="animable" style="transform-origin: 249.998px 366.155px;"><path id="freepik--floor--inject-143" d="M98.35,278.6C14.59,327,14.6,405.36,98.35,453.71s219.55,48.36,303.3,0,83.75-126.75,0-175.11S182.1,230.25,98.35,278.6Z" style="fill: rgb(245, 245, 245); transform-origin: 249.998px 366.155px;" class="animable"></path></g><g id="freepik--Plants--inject-143" class="animable" style="transform-origin: 251.04px 342.226px;"><g id="freepik--plants--inject-143" class="animable" style="transform-origin: 91.2635px 342.226px;"><path d="M119.38,386l-16.73,9.66c.22-6,.74-14.85-.08-20.83-5-36.57-19.3-48.63-26.07-66.42-7.14-18.75,1.56-24.78,12.86-21.41,10.08,3,24.66,17.92,29.26,45.21C121.67,350.32,121.13,370,119.38,386Z" style="fill: rgb(255, 193, 0); transform-origin: 97.3545px 340.886px;" id="elle2xlmr9ze9" class="animable"></path><g id="elne40atiwuf"><path d="M119.38,386l-16.73,9.66c.22-6,.74-14.85-.08-20.83-5-36.57-19.3-48.63-26.07-66.42-7.14-18.75,1.56-24.78,12.86-21.41,10.08,3,24.66,17.92,29.26,45.21C121.67,350.32,121.13,370,119.38,386Z" style="fill: rgb(255, 255, 255); opacity: 0.65; transform-origin: 97.3545px 340.886px;" class="animable"></path></g><path d="M110.51,391.08l-1.67,1c6-42.64-8.6-79.61-23-94.88a.73.73,0,0,1,0-1,.74.74,0,0,1,1,0C101.3,311.44,115.87,348.66,110.51,391.08Z" style="fill: rgb(255, 255, 255); transform-origin: 98.6438px 344.043px;" id="elh3fj1sc2546" class="animable"></path><path d="M107.35,392.9l-9.42,5.44h0C92.92,383.6,87.78,377.7,81.4,368c-5.82-8.82-12.58-14.29-16.17-20.49-3.18-5.49-5.57-12.39-.84-16.56,7.52-6.65,17.34.39,24.09,8C94.32,345.52,106.06,363,107.35,392.9Z" style="fill: rgb(255, 193, 0); transform-origin: 84.5381px 363.318px;" id="elcwc4mysmspn" class="animable"></path><g id="el9802koqyvo"><path d="M107.35,392.9l-9.42,5.44h0C92.92,383.6,87.78,377.7,81.4,368c-5.82-8.82-12.58-14.29-16.17-20.49-3.18-5.49-5.57-12.39-.84-16.56,7.52-6.65,17.34.39,24.09,8C94.32,345.52,106.06,363,107.35,392.9Z" style="fill: rgb(255, 255, 255); opacity: 0.3; transform-origin: 84.5381px 363.318px;" class="animable"></path></g><path d="M103.49,395.13l-1.38.8c-4-23.31-19.78-50.28-29.62-56.65a.75.75,0,0,1,.82-1.26C83.49,344.62,99.29,371.47,103.49,395.13Z" style="fill: rgb(255, 255, 255); transform-origin: 87.8192px 366.914px;" id="elvdpxaq4xcyb" class="animable"></path></g><g id="freepik--plants--inject-143" class="animable" style="transform-origin: 410.829px 342.226px;"><path d="M382.71,386l16.73,9.66c-.22-6-.74-14.85.08-20.83,5.05-36.57,19.3-48.63,26.07-66.42,7.13-18.75-1.57-24.78-12.87-21.41-10.07,3-24.66,17.92-29.25,45.21C380.42,350.32,381,370,382.71,386Z" style="fill: rgb(255, 193, 0); transform-origin: 404.74px 340.886px;" id="elbvmvg0zg61" class="animable"></path><g id="elhmt9bdrnmsm"><path d="M382.71,386l16.73,9.66c-.22-6-.74-14.85.08-20.83,5.05-36.57,19.3-48.63,26.07-66.42,7.13-18.75-1.57-24.78-12.87-21.41-10.07,3-24.66,17.92-29.25,45.21C380.42,350.32,381,370,382.71,386Z" style="fill: rgb(255, 255, 255); opacity: 0.65; transform-origin: 404.74px 340.886px;" class="animable"></path></g><path d="M391.58,391.08l1.67,1c-6-42.64,8.59-79.61,23-94.88a.73.73,0,0,0,0-1,.74.74,0,0,0-1,0C400.78,311.44,386.21,348.66,391.58,391.08Z" style="fill: rgb(255, 255, 255); transform-origin: 403.444px 344.043px;" id="elxzf9hdt33z" class="animable"></path><path d="M394.74,392.9l9.41,5.44h0c5-14.74,10.14-20.64,16.53-30.33,5.81-8.82,12.57-14.29,16.17-20.49,3.18-5.49,5.57-12.39.84-16.56-7.52-6.65-17.34.39-24.1,8C407.77,345.52,396,363,394.74,392.9Z" style="fill: rgb(255, 193, 0); transform-origin: 417.547px 363.323px;" id="elctdxla84vg5" class="animable"></path><g id="el6ll0dwhafnb"><path d="M394.74,392.9l9.41,5.44h0c5-14.74,10.14-20.64,16.53-30.33,5.81-8.82,12.57-14.29,16.17-20.49,3.18-5.49,5.57-12.39.84-16.56-7.52-6.65-17.34.39-24.1,8C407.77,345.52,396,363,394.74,392.9Z" style="fill: rgb(255, 255, 255); opacity: 0.3; transform-origin: 417.547px 363.323px;" class="animable"></path></g><path d="M398.6,395.13l1.37.8c3.95-23.31,19.79-50.28,29.63-56.65a.75.75,0,0,0,.21-1,.73.73,0,0,0-1-.22C418.59,344.62,402.8,371.47,398.6,395.13Z" style="fill: rgb(255, 255, 255); transform-origin: 414.259px 366.939px;" id="elbvtjzfdrvsh" class="animable"></path></g></g><g id="freepik--Shadows--inject-143" class="animable" style="transform-origin: 250.5px 419.46px;"><ellipse id="freepik--Shadow--inject-143" cx="162.51" cy="419.46" rx="78.16" ry="45.13" style="fill: rgb(224, 224, 224); transform-origin: 162.51px 419.46px;" class="animable"></ellipse><ellipse id="freepik--shadow--inject-143" cx="338.49" cy="419.46" rx="78.16" ry="45.13" style="fill: rgb(224, 224, 224); transform-origin: 338.49px 419.46px;" class="animable"></ellipse></g><g id="freepik--Symbols--inject-143" class="animable" style="transform-origin: 253.573px 161.993px;"><g id="freepik--question-mark--inject-143" class="animable" style="transform-origin: 443.977px 236.065px;"><path d="M433.81,259.86a6.22,6.22,0,0,1-2.1-.38,6.29,6.29,0,0,1-2-1.23,5.76,5.76,0,0,1-1.35-1.82,5.86,5.86,0,0,1-.52-2.18,6.21,6.21,0,0,1,.38-2.34h0a6.16,6.16,0,0,1,1.22-2,5.68,5.68,0,0,1,1.81-1.34,6,6,0,0,1,2.2-.53,6,6,0,0,1,4.4,1.61,6.31,6.31,0,0,1,1.33,1.82,5.9,5.9,0,0,1,.19,4.55,5.63,5.63,0,0,1-1.25,2,5.79,5.79,0,0,1-1.84,1.31,6.21,6.21,0,0,1-2.19.51Zm-.1-10.69h-.24a4.48,4.48,0,0,0-3.22,1.5,5,5,0,0,0-1,1.63h0a5,5,0,0,0-.31,1.89,4.53,4.53,0,0,0,1.49,3.2,5,5,0,0,0,1.67,1,4.81,4.81,0,0,0,1.89.31,5,5,0,0,0,1.77-.41,4.8,4.8,0,0,0,1.48-1.06,4.83,4.83,0,0,0,1.29-3.51,4.71,4.71,0,0,0-.44-1.77,5,5,0,0,0-1.08-1.49,5,5,0,0,0-3.31-1.3Zm6.6-2.13-6.57-2.41,1.56-6.13a5.27,5.27,0,0,1,1.63-2.87,9.66,9.66,0,0,1,2.69-1.63,25.63,25.63,0,0,1,3.17-1,22.82,22.82,0,0,0,3.15-1.05,10.51,10.51,0,0,0,2.69-1.63,6.1,6.1,0,0,0,1.78-2.67,4.63,4.63,0,0,0,.31-2.06,4.55,4.55,0,0,0-.58-1.86,5.37,5.37,0,0,0-1.38-1.58,7.83,7.83,0,0,0-2.12-1.16,10.85,10.85,0,0,0-3.18-.72,11.75,11.75,0,0,0-2.45.1c-.72.12-1.34.24-1.85.36a2.8,2.8,0,0,1-1.61,0,2.52,2.52,0,0,1-1.74-2.09l-1-4.66.46-.18a26.35,26.35,0,0,1,3.25-1,20.45,20.45,0,0,1,3.58-.51,19.94,19.94,0,0,1,3.89.21,20.82,20.82,0,0,1,4.21,1.1,18,18,0,0,1,5.14,2.82,13.31,13.31,0,0,1,3.38,3.94,11.49,11.49,0,0,1,1.38,4.78,13,13,0,0,1-.82,5.26,13.43,13.43,0,0,1-2.45,4.29,13.75,13.75,0,0,1-3.14,2.65,15.59,15.59,0,0,1-3.4,1.53l-3.17,1a19.32,19.32,0,0,0-2.57,1A3.07,3.07,0,0,0,443.1,242Zm-5.19-3.14,4.66,1.72,2.31-4.14a4.18,4.18,0,0,1,2-1.79,21.1,21.1,0,0,1,2.72-1l3.16-1a14.48,14.48,0,0,0,3.15-1.42,12.58,12.58,0,0,0,2.87-2.43,12.27,12.27,0,0,0,2.23-3.92,11.7,11.7,0,0,0,.75-4.79,10.29,10.29,0,0,0-1.24-4.29,12.14,12.14,0,0,0-3.09-3.6,17.1,17.1,0,0,0-4.82-2.64,19.22,19.22,0,0,0-4-1,18.42,18.42,0,0,0-3.66-.2,19.38,19.38,0,0,0-3.38.48,27.06,27.06,0,0,0-2.63.79l.79,3.74a1.4,1.4,0,0,0,1,1.21,1.81,1.81,0,0,0,.95,0c.54-.13,1.18-.25,1.93-.37a12.63,12.63,0,0,1,2.69-.12,11.85,11.85,0,0,1,3.53.79,8.75,8.75,0,0,1,2.43,1.34,6.59,6.59,0,0,1,1.68,1.92,5.76,5.76,0,0,1,.71,2.32,5.62,5.62,0,0,1-.37,2.55,7.21,7.21,0,0,1-2.13,3.17,11.84,11.84,0,0,1-3,1.8,25.07,25.07,0,0,1-3.3,1.11,22.43,22.43,0,0,0-3,1,8.09,8.09,0,0,0-2.36,1.43,4.1,4.1,0,0,0-1.27,2.27Z" style="fill: rgb(224, 224, 224); transform-origin: 443.977px 236.065px;" id="eldmjbg9tvonu" class="animable"></path></g><g id="freepik--question-mark--inject-143" class="animable" style="transform-origin: 72.2644px 236.029px;"><path d="M70,262.82a14.55,14.55,0,0,1-5.09-.88,12.7,12.7,0,0,1-4.58-3,14,14,0,0,1-3.08-5,14.38,14.38,0,0,1-1-5.34,15,15,0,0,1,.72-4.46,17.49,17.49,0,0,1,1.75-3.73l2-3.09a22.93,22.93,0,0,0,1.47-2.67,3.41,3.41,0,0,0,.29-2.17l-1.25-6.16,7.15-2.67,3.09,6.22a5.77,5.77,0,0,1,.68,3.55A10.42,10.42,0,0,1,71,236.7,29.24,29.24,0,0,1,69,239.85,24.42,24.42,0,0,0,67.15,243a11.6,11.6,0,0,0-1.09,3.31,6.79,6.79,0,0,0,.43,3.57A5.08,5.08,0,0,0,69.57,253a6.21,6.21,0,0,0,2.32.33,8.42,8.42,0,0,0,2.63-.55,12,12,0,0,0,3.22-1.7,13.55,13.55,0,0,0,2-1.86c.53-.62,1-1.17,1.3-1.63a3,3,0,0,1,1.34-1.13,2.71,2.71,0,0,1,2.9.5l4.16,3.16-.23.43a28.33,28.33,0,0,1-2,3.18,22.41,22.41,0,0,1-2.64,3,21.83,21.83,0,0,1-3.4,2.62,23.33,23.33,0,0,1-4.31,2.1,20.28,20.28,0,0,1-6.33,1.33Zm-7.52-35.76,1.06,5.19a4.64,4.64,0,0,1-.37,2.88,23.9,23.9,0,0,1-1.55,2.81l-2,3.09A16.26,16.26,0,0,0,58,244.5a14.07,14.07,0,0,0-.66,4.13,13.54,13.54,0,0,0,1,4.91,13.07,13.07,0,0,0,2.83,4.59,11.48,11.48,0,0,0,4.17,2.73,13.55,13.55,0,0,0,5.21.8,19.08,19.08,0,0,0,6-1.26,22.11,22.11,0,0,0,4.11-2,20.47,20.47,0,0,0,3.22-2.48,20.68,20.68,0,0,0,2.5-2.84A29.52,29.52,0,0,0,88,250.46l-3.41-2.59a1.6,1.6,0,0,0-1.77-.31,2,2,0,0,0-.81.73c-.35.48-.81,1.05-1.35,1.69a13.86,13.86,0,0,1-2.16,2,13.26,13.26,0,0,1-3.52,1.87,9.92,9.92,0,0,1-3,.62,6.93,6.93,0,0,1-2.76-.4,6.21,6.21,0,0,1-2.25-1.41,6.33,6.33,0,0,1-1.52-2.4,8,8,0,0,1-.49-4.16,12.87,12.87,0,0,1,1.2-3.64,25.89,25.89,0,0,1,2-3.3,24.21,24.21,0,0,0,1.84-3,9.38,9.38,0,0,0,1-2.92,4.65,4.65,0,0,0-.58-2.86l-2.63-5.3Zm-.84-4.82h-.33a6.91,6.91,0,0,1-2.4-.56,6.5,6.5,0,0,1-3.4-3.65,6.42,6.42,0,0,1,.18-5,6.56,6.56,0,0,1,1.46-2,6.83,6.83,0,0,1,4.8-1.79,6.25,6.25,0,0,1,2.41.55,6.33,6.33,0,0,1,2,1.44,6.67,6.67,0,0,1,1.36,2.22h0a6.75,6.75,0,0,1,.42,2.54,6.45,6.45,0,0,1-.55,2.42,6.81,6.81,0,0,1-1.45,2,6.49,6.49,0,0,1-2.24,1.38A6.35,6.35,0,0,1,61.59,222.24Zm.1-11.83a5.71,5.71,0,0,0-2,.36,5.56,5.56,0,0,0-1.83,1.12,5.49,5.49,0,0,0-1.21,1.64,5.24,5.24,0,0,0-.48,2,5,5,0,0,0,.34,2.11,5.23,5.23,0,0,0,2.79,3,5.53,5.53,0,0,0,2,.47,5,5,0,0,0,2.11-.34,5.11,5.11,0,0,0,1.84-1.14,5.25,5.25,0,0,0,1.2-1.65,5.31,5.31,0,0,0,.45-2,5.71,5.71,0,0,0-.35-2.11A5.56,5.56,0,0,0,65.46,212a5,5,0,0,0-1.63-1.18,4.91,4.91,0,0,0-2-.45Z" style="fill: rgb(224, 224, 224); transform-origin: 72.2644px 236.029px;" id="el75vccb578da" class="animable"></path></g><g id="freepik--question-mark--inject-143" class="animable" style="transform-origin: 428.072px 92.213px;"><path d="M434.6,123.26a7.64,7.64,0,0,1-1.36-.12,6.94,6.94,0,0,1-2.6-1,7,7,0,0,1-2-1.95,7.58,7.58,0,0,1-1.13-2.72h0a7.51,7.51,0,0,1,0-2.91,6.94,6.94,0,0,1,1-2.6,7.47,7.47,0,0,1,4.7-3.15,7.2,7.2,0,0,1,3,0,7.63,7.63,0,0,1,2.58,1,7.38,7.38,0,0,1,3.18,7.62,7.35,7.35,0,0,1-1.08,2.57,7.42,7.42,0,0,1-4.7,3.1A7.8,7.8,0,0,1,434.6,123.26Zm-5.93-6.06a6.29,6.29,0,0,0,.95,2.3,6,6,0,0,0,1.65,1.64,6.09,6.09,0,0,0,2.18.87,6.44,6.44,0,0,0,2.51,0,6.12,6.12,0,0,0,2.3-1,6.43,6.43,0,0,0,1.67-1.66,6.15,6.15,0,0,0,.91-2.17,6.21,6.21,0,0,0-1-4.75,6.06,6.06,0,0,0-1.69-1.66,6.66,6.66,0,0,0-2.2-.89,6,6,0,0,0-2.49,0,6.17,6.17,0,0,0-2.31,1,6.3,6.3,0,0,0-1.66,1.68,6.09,6.09,0,0,0-.87,2.18,6.42,6.42,0,0,0,0,2.47Zm0-11.45-2.37-7.49a6.55,6.55,0,0,1-.15-4.09,11.77,11.77,0,0,1,1.78-3.49,32.09,32.09,0,0,1,2.71-3.21,28.27,28.27,0,0,0,2.7-3.24,13.47,13.47,0,0,0,1.83-3.58,8,8,0,0,0,.15-4.14A6.15,6.15,0,0,0,434.21,74a6.09,6.09,0,0,0-1.91-1.66,7,7,0,0,0-2.59-.79,9.66,9.66,0,0,0-3.1.16,14,14,0,0,0-3.95,1.36,14.69,14.69,0,0,0-2.59,1.76c-.7.6-1.29,1.15-1.76,1.62a3.39,3.39,0,0,1-1.67,1,3,3,0,0,1-3.11-1l-4.09-4.26.29-.39a31.81,31.81,0,0,1,2.81-3.23A25,25,0,0,1,416,65.65a25.46,25.46,0,0,1,4.29-2.35,26.46,26.46,0,0,1,5.23-1.61,23,23,0,0,1,7.36-.39,16.68,16.68,0,0,1,6.2,2,14.27,14.27,0,0,1,4.62,4.17,15.93,15.93,0,0,1,2.59,6.15,16.37,16.37,0,0,1,.22,6.18A17.23,17.23,0,0,1,445,84.67a19.41,19.41,0,0,1-2.62,3.88l-2.76,3.15a26,26,0,0,0-2.14,2.77,4,4,0,0,0-.73,2.45L437,104Zm.07-35.38a10.6,10.6,0,0,1,1.14.06,8.16,8.16,0,0,1,3,.94,7.15,7.15,0,0,1,2.27,2,7.22,7.22,0,0,1,1.27,2.93,9,9,0,0,1-.18,4.75,14.82,14.82,0,0,1-2,3.88,30.6,30.6,0,0,1-2.81,3.37,32.22,32.22,0,0,0-2.61,3.09,10.57,10.57,0,0,0-1.61,3.15,5.44,5.44,0,0,0,.14,3.39l2.06,6.51,6.43-1.32L435.55,97a5.2,5.2,0,0,1,.92-3.14,26.91,26.91,0,0,1,2.23-2.89l2.76-3.14a18.17,18.17,0,0,0,2.46-3.66,16,16,0,0,0,1.49-4.56,15.37,15.37,0,0,0-.22-5.75,14.78,14.78,0,0,0-2.4-5.71,13.11,13.11,0,0,0-4.25-3.84,15.41,15.41,0,0,0-5.77-1.83,21.81,21.81,0,0,0-7,.36,26.66,26.66,0,0,0-5,1.54,24.53,24.53,0,0,0-4.09,2.25,23.37,23.37,0,0,0-3.33,2.78A31.54,31.54,0,0,0,411,72.1l3.44,3.58a1.88,1.88,0,0,0,2,.68,2.28,2.28,0,0,0,1.08-.69c.5-.5,1.11-1.06,1.82-1.68a16.06,16.06,0,0,1,2.79-1.9,14.94,14.94,0,0,1,4.28-1.48A11.65,11.65,0,0,1,428.7,70.37Z" style="fill: rgb(224, 224, 224); transform-origin: 428.072px 92.213px;" id="elb9nvyz8o53l" class="animable"></path></g><g id="freepik--question-mark--inject-143" class="animable" style="transform-origin: 67.5565px 92.2326px;"><path d="M68.81,122.58a26.46,26.46,0,0,1-3.81-.29,26.83,26.83,0,0,1-5.37-1.4,23.1,23.1,0,0,1-6.53-3.59,16.82,16.82,0,0,1-4.29-5,14.57,14.57,0,0,1-1.76-6.05,16.41,16.41,0,0,1,1.05-6.68,16.86,16.86,0,0,1,3.11-5.44,17.44,17.44,0,0,1,4-3.36,19.38,19.38,0,0,1,4.33-1.94l4-1.25a24.19,24.19,0,0,0,3.32-1.24,4,4,0,0,0,1.93-1.72l3.5-6.29,8.15,3-2,7.71a6.5,6.5,0,0,1-2,3.59,11.92,11.92,0,0,1-3.39,2.06A32.62,32.62,0,0,1,69,96a29.62,29.62,0,0,0-4,1.36,13.43,13.43,0,0,0-3.49,2.11,8,8,0,0,0-2.34,3.49,6.26,6.26,0,0,0-.4,2.71,6.11,6.11,0,0,0,.76,2.44,7.33,7.33,0,0,0,1.81,2.08,10.16,10.16,0,0,0,2.76,1.51,14,14,0,0,0,4.13.94,15.64,15.64,0,0,0,3.17-.14c.92-.15,1.72-.3,2.38-.45a3.47,3.47,0,0,1,2,0,3.07,3.07,0,0,1,2.11,2.56l1.25,5.84-.45.17a30.85,30.85,0,0,1-4.14,1.29,24.92,24.92,0,0,1-4.57.65C69.57,122.57,69.19,122.58,68.81,122.58Zm4-42.84-3,5.43a5.27,5.27,0,0,1-2.46,2.21,26.28,26.28,0,0,1-3.46,1.29l-4.06,1.25a18.4,18.4,0,0,0-4.07,1.83,16.48,16.48,0,0,0-3.72,3.14A15.88,15.88,0,0,0,49.18,100a15.1,15.1,0,0,0-1,6.2,13.45,13.45,0,0,0,1.62,5.58,15.62,15.62,0,0,0,4,4.66A22,22,0,0,0,60,119.81a26,26,0,0,0,5.13,1.34,24.75,24.75,0,0,0,4.73.25,24.38,24.38,0,0,0,4.35-.62,34,34,0,0,0,3.53-1.06l-1-4.92a1.92,1.92,0,0,0-1.38-1.67,2.33,2.33,0,0,0-1.31,0c-.69.16-1.52.32-2.46.47a16.57,16.57,0,0,1-3.41.15,15.37,15.37,0,0,1-4.48-1,11.34,11.34,0,0,1-3.07-1.69,8.33,8.33,0,0,1-2.1-2.41,7.12,7.12,0,0,1-.9-2.91,7.29,7.29,0,0,1,.46-3.2,9.26,9.26,0,0,1,2.68-4,14.93,14.93,0,0,1,3.78-2.28,31,31,0,0,1,4.21-1.41,30.39,30.39,0,0,0,3.91-1.27,10.85,10.85,0,0,0,3.07-1.86,5.49,5.49,0,0,0,1.68-3L79.1,82Zm7.85-3a7.63,7.63,0,0,1-2.59-.47,7.25,7.25,0,0,1-2.54-1.57,7.66,7.66,0,0,1-1.67-2.28,7.53,7.53,0,0,1-.69-2.77,7.37,7.37,0,0,1,.45-2.93,7.23,7.23,0,0,1,1.56-2.54,7.54,7.54,0,0,1,2.31-1.65,7.69,7.69,0,0,1,2.75-.64,7.59,7.59,0,0,1,2.94.48,7.88,7.88,0,0,1,2.56,1.54,7.24,7.24,0,0,1,1.69,2.28,7.15,7.15,0,0,1,.65,2.73,7.59,7.59,0,0,1-.48,2.94h0a7.65,7.65,0,0,1-1.53,2.52A7.06,7.06,0,0,1,83.84,76a7.42,7.42,0,0,1-2.76.67ZM80.58,63h-.25a6.51,6.51,0,0,0-2.33.54,6.24,6.24,0,0,0-1.94,1.39,6.35,6.35,0,0,0-1.7,4.62,6.2,6.2,0,0,0,.58,2.33,6.68,6.68,0,0,0,1.42,2,6.27,6.27,0,0,0,2.15,1.32,6.43,6.43,0,0,0,2.51.39A6.19,6.19,0,0,0,83.36,75a6,6,0,0,0,1.9-1.42,6.31,6.31,0,0,0,1.3-2.14h0A6.42,6.42,0,0,0,87,68.93a6.12,6.12,0,0,0-.55-2.3A6,6,0,0,0,85,64.72,6.73,6.73,0,0,0,80.58,63Z" style="fill: rgb(224, 224, 224); transform-origin: 67.5565px 92.2326px;" id="elr1uz8vl029h" class="animable"></path></g></g><g id="freepik--character-2--inject-143" class="animable" style="transform-origin: 337.766px 254.749px;"><g id="freepik--Character--inject-143" class="animable" style="transform-origin: 337.766px 254.749px;"><g id="freepik--Bottom--inject-143" class="animable" style="transform-origin: 335.067px 318.929px;"><path d="M384.35,393c-.38-11.64.5-19.29.34-39.5h0c0-6.06-.12-12.55-.44-18.32-1-19.42-3.92-26.1-4.14-29.85,0,0,0-30.19-.58-72.65-.27-20-5.95-27.7-10.4-38.38H314.18c-6.57,26.05-9.59,83.85-9.85,110.8-.13,13.74,5.2,75.23,5.29,76.92.29,6-.66,9.38-3.05,11.86-5,5.2-12.24,8.42-18.48,12.93.85,2.37,9.31,3.55,13,1.82a93.88,93.88,0,0,0,13.83-8.51c5.13-3.67,12.74-4.7,12.92-10.41,0-.71.35-2.55.32-2.66.15-3.34,5.78-41.18,7.46-52.49,1.49-10.07,1.49-26.75,1.49-26.75l4.9-41.16s3.82,24.56,7.17,41.47c2.48,12.53,7.85,38.39,11.22,52.09,2.39,9.76,5.16,21.4,7.07,32.11-.31,4.31,3.78,26.78,4.78,32s12.33,5.54,13.2-3.39C386.05,415,384.45,395.87,384.35,393Z" style="fill: rgb(255, 168, 167); transform-origin: 336.837px 311.147px;" id="el7qo82p30jia" class="animable"></path><path d="M280.36,414.92c-.32,0-.76,3.46,1,4.92,2,1.67,7.79,4.4,15.41,3.34s11.73-3.47,14.76-6.06,7.27-6.23,10.71-7c3.2-.74,6.66-2.23,7.68-3.23s.83-5.41.83-5.41Z" style="fill: rgb(38, 50, 56); transform-origin: 305.415px 412.449px;" id="eltr5vktp127c" class="animable"></path><path d="M328.49,384.17a1.43,1.43,0,0,1,1,1.19c.25,1.21-.25,4.93.27,6.92.73,2.76,1.26,8.44.86,10.7s-5.61,3.88-8.93,5.19a42.52,42.52,0,0,0-10.76,6.94c-3.55,3-11.06,6-16,6.16-7.59.19-12.52-1.82-14.07-4.54-1.91-3.35-1.54-6.43,7.15-10.56,1.64-.78,7.41-4.27,9.37-5.54a44.1,44.1,0,0,0,5.89-4.47,33.26,33.26,0,0,0,2.64-2.67,11.94,11.94,0,0,0,2.18-2.84c.1-.23.16-.5.25-.74a14.41,14.41,0,0,0,.55-2.05c.13-.73.21-1.79.89-2.23a5.8,5.8,0,0,1,3.12-.4,36.44,36.44,0,0,1,4.73.88,4.35,4.35,0,0,1,3.26,2.24,6.35,6.35,0,0,1,.75,3.15c0,.51,0,1,0,1.53,0,.22-.08.61.22.52s.61-.85.72-1.11c.23-.58.38-1.19.64-1.75a9,9,0,0,1,1.07-1.86,8.31,8.31,0,0,1,1.36-1.42,15.32,15.32,0,0,0,1.49-1A6.73,6.73,0,0,0,328.49,384.17Z" style="fill: rgb(55, 71, 79); transform-origin: 305.339px 402.726px;" id="eln08px56mu1" class="animable"></path><path d="M286.52,406.85c11,.65,15.61,8.5,16.12,12.7a26.08,26.08,0,0,1-7.79,1.72c-7.59.19-12.84-1.82-14.38-4.53C278.67,413.57,278.76,409.89,286.52,406.85Z" style="fill: rgb(250, 250, 250); transform-origin: 291.076px 414.066px;" id="elnsg89nheqrc" class="animable"></path><path d="M304.08,407.9a.53.53,0,0,0,.41-.88c-1.55-1.86-7.07-5.4-11.06-4.92a.54.54,0,0,0-.47.6.55.55,0,0,0,.6.47c3.72-.44,8.88,3.06,10.1,4.54A.55.55,0,0,0,304.08,407.9Z" style="fill: rgb(240, 240, 240); transform-origin: 298.789px 404.978px;" id="elf0ksgavs4mv" class="animable"></path><path d="M308.79,405.1a.62.62,0,0,0,.34-.13.55.55,0,0,0,.06-.76c-1.55-1.86-7.07-5.4-11.05-4.92a.54.54,0,0,0-.47.6.53.53,0,0,0,.59.47c3.73-.44,8.88,3.07,10.11,4.54A.55.55,0,0,0,308.79,405.1Z" style="fill: rgb(240, 240, 240); transform-origin: 303.49px 402.173px;" id="el8mumktee0me" class="animable"></path><path d="M313.14,401.9a.53.53,0,0,0,.41-.88c-1.55-1.86-7.09-5.4-11.06-4.92a.54.54,0,0,0-.47.59.53.53,0,0,0,.6.47c3.72-.43,8.88,3.07,10.1,4.55A.55.55,0,0,0,313.14,401.9Z" style="fill: rgb(240, 240, 240); transform-origin: 307.85px 398.978px;" id="ell1olh8e9jf9" class="animable"></path><path d="M317.41,398.71a.54.54,0,0,0,.33-.12.55.55,0,0,0,.08-.76c-2.13-2.63-8-5.44-12-5a.53.53,0,0,0,.12,1.06c3.59-.42,9.12,2.24,11,4.58A.57.57,0,0,0,317.41,398.71Z" style="fill: rgb(240, 240, 240); transform-origin: 311.642px 395.747px;" id="eltff4a1uf38m" class="animable"></path><path d="M368.64,428.32c.22,5.19,1,8.64,2.76,11.71s5.24,4.08,8.77,3.25,8.07-3.14,9.15-7.59,1.71-7.51,1-12.33Z" style="fill: rgb(38, 50, 56); transform-origin: 379.631px 433.459px;" id="elrjup4hp75lf" class="animable"></path><path d="M384.29,390.63c1.45.14,1.33,7.5,2,14.49.77,7.48,3,10.61,3.65,16.74.8,7-.41,10.12-2.93,14.31s-11.27,8.2-15.45,2.07c-3.4-5-3.07-10.46-3-17.46a123.09,123.09,0,0,0-1-17.71c-.79-6.28-1.33-10.17-.06-10.74.08.78.16,1.75.25,2.51.11.93.36,2.77.36,2.77.15.39.52.84.66.21a4.11,4.11,0,0,0,0-1.31c-.18-1.93.8-2.07,1.32-2.21,1.15-.31,6.57-1.16,7.66-1.21s4.93-.17,5.41.47a4.21,4.21,0,0,1,.45,2c.11,1.06.12,1.72.38,1.5s.31-2.24.3-2.72,0-1.48,0-1.94S384.31,391.08,384.29,390.63Z" style="fill: rgb(55, 71, 79); transform-origin: 378.463px 416.007px;" id="elztmta13rvrm" class="animable"></path><path d="M390.5,425.93a17.46,17.46,0,0,1-2.89,10.58c-2.52,4.19-12,8.2-16.14,2.07-2.08-3.05-2.59-6.62-2.83-10.26C371.28,423.69,386.52,421.88,390.5,425.93Z" style="fill: rgb(250, 250, 250); transform-origin: 379.582px 432.704px;" id="elts670dz4d6" class="animable"></path><path d="M371.93,420.76a.58.58,0,0,0,.18,0c.06,0,6.8-2.69,13.3-1.07a.56.56,0,0,0,.65-.4.54.54,0,0,0-.4-.65c-6.87-1.7-13.74,1-14,1.14a.54.54,0,0,0-.27.71A.55.55,0,0,0,371.93,420.76Z" style="fill: rgb(240, 240, 240); transform-origin: 378.709px 419.424px;" id="elke8ztk6qa2h" class="animable"></path><path d="M385.17,414.43a.54.54,0,0,0,.14-1c-6.46-2.31-13.72.87-14,1a.53.53,0,0,0-.24.72.56.56,0,0,0,.72.24c.06,0,7.14-3.12,13.14-1A.91.91,0,0,0,385.17,414.43Z" style="fill: rgb(240, 240, 240); transform-origin: 378.301px 414.015px;" id="el4oes1qgwtih" class="animable"></path><path d="M385,409.51a.56.56,0,0,0,.46-.35.54.54,0,0,0-.31-.69c-7.1-2.68-14,.82-14.25,1a.53.53,0,0,0-.2.73.54.54,0,0,0,.74.19c.05,0,6.72-3.38,13.33-.89A.59.59,0,0,0,385,409.51Z" style="fill: rgb(240, 240, 240); transform-origin: 378.061px 408.964px;" id="ellr120ckpsr" class="animable"></path><path d="M384.75,404.66a.54.54,0,0,0,.15-1c-6.65-2.61-14.07,1-14.35,1.12a.54.54,0,0,0-.21.73.53.53,0,0,0,.73.21c.07,0,7.26-3.49,13.43-1.06A.55.55,0,0,0,384.75,404.66Z" style="fill: rgb(235, 235, 235); transform-origin: 377.726px 404.252px;" id="el0x9wl52yyyp" class="animable"></path><path d="M373,194.31c6.32,12,9.66,23.39,9.74,58.7s-1.23,45.35-1.17,49.61,3.79,13.73,3.89,34.82c.08,17.85-.08,31.4-.08,31.4s-2.08,4.22-10.1,4.81a25.94,25.94,0,0,1-12.82-2.3s-9.05-29.59-11.48-42.3c-2.81-14.69-8.42-49.64-8.42-49.64l-4,28.41a146.13,146.13,0,0,1-1.14,25.06c-2.43,18.36-5.44,32.31-5.44,32.31a51.09,51.09,0,0,1-13.08,1.66,25.2,25.2,0,0,1-11.05-3s-4.21-39.24-4.57-65.23c-.29-20.84,1.17-73.51,3.27-104.29Z" style="fill: rgb(55, 71, 79); transform-origin: 344.363px 284.018px;" id="elp5bmz1j02p" class="animable"></path><path d="M316.08,225.71c3,8.66,14.34,14.88,19.34,16.16l3.95,37.56-.88,28.39,4-28.41-4.91-44.24S323.7,233.94,316.08,225.71Zm47.74-3.41c.77,3.4,1.46,6.81,2.2,10.23s1.45,6.83,2.23,10.27a68.81,68.81,0,0,0-.52-10.55c-.4-3.5-1-7-1.74-10.42a92.17,92.17,0,0,0-2.85-10.19,49.55,49.55,0,0,0-4.36-9.65c1,3.39,1.88,6.76,2.71,10.14S363.1,218.9,363.82,222.3Zm6-6.41c1.1,2.05,2.15,4.14,3.2,6.22l3.1,6.37a28.08,28.08,0,0,0-1.5-7,45.73,45.73,0,0,0-2.83-6.59,51.52,51.52,0,0,0-3.78-6.09,37.69,37.69,0,0,0-4.68-5.43c1,2.19,2.12,4.27,3.22,6.34S368.79,213.81,369.85,215.89Zm-6.59,89c-1.66-9.81-2.8-19.73-3.91-29.65s-2.16-19.87-3.38-29.8c.44,10,1,20,1.82,30s1.85,19.93,3.48,29.84,3.54,19.67,5.43,29.49,3.86,19.62,6,29.39q-2-14.85-4.44-29.66C366.67,324.54,365,314.66,363.26,304.85Zm-47.08-35.13L318.45,241c-1.64,9.47-2.95,19-4,28.56s-2,19.1-2.19,28.81c.16,9.68.74,19.24,1.37,28.83s1.43,19.16,2.4,28.73q-.17-14.42-.67-28.81l-.49-14.39c-.16-4.79-.37-9.61-.39-14.36s.36-9.53.66-14.3S315.83,274.5,316.18,269.72Z" style="fill: rgb(38, 50, 56); transform-origin: 344.19px 283.075px;" id="elc914n8sui9b" class="animable"></path></g><g id="freepik--Top--inject-143" class="animable" style="transform-origin: 337.766px 166.168px;"><g id="freepik--Arm--inject-143" class="animable" style="transform-origin: 303.23px 159.408px;"><path d="M282.44,186.13c5.07,3,12.87-.16,18.58-5.29,6.8-6.1,23-22.15,23-22.15l-2.85-27.17s-8.77.49-12.75,4.87c-4.56,5-12.9,18-18,25.27C286.08,167.9,282.44,186.13,282.44,186.13Z" style="fill: rgb(242, 143, 143); transform-origin: 303.23px 159.408px;" id="ellrc1pztk1lp" class="animable"></path></g><path id="freepik--Chest--inject-143" d="M379.24,208.09c-1-15.42-1.48-20.88-1.48-29.26s.52-12.52.66-18.71c.35-15.22-5.18-24.37-8.29-27,0,0-4.78-.94-11.58-2.46-2.33-.52-4.4-.78-7.93-1.28-7.85-1.1-11.52,0-14.46.31-1.44.14-7,.4-7,.4-2.07.48-8,1.43-8,1.43A58.93,58.93,0,0,0,313,143.19c-3.38,6-5.91,10.19-6.52,23.76-.82,18.38-1.11,42.8-1.11,42.8C313.86,221.12,365,224.64,379.24,208.09Z" style="fill: rgb(69, 90, 100); transform-origin: 342.305px 174.152px;" class="animable"></path><g id="freepik--Head--inject-143" class="animable" style="transform-origin: 338.467px 102.175px;"><path id="freepik--Hair--inject-143" d="M360.76,80.25c-1.47-9.1-17.26-20.07-35.13-10.78s-13,20.62-12.21,24a35.29,35.29,0,0,1,1.16,8.67,12.17,12.17,0,0,1-2.4,7.44,5.31,5.31,0,0,1-6.56,1.4c.36,4.13,2.69,7.41,8.86,10.15a16.67,16.67,0,0,0,8.08,1c-.95.62-2.32,1.6-6.38,1.35,2.49,3.22,12,6.63,20.83,1.26a2.26,2.26,0,0,1,1.39-.17,4.79,4.79,0,0,1,1.59.66c3.93,2,9.08,1.73,13.3,1a18.37,18.37,0,0,0,6.72-2.37,9.79,9.79,0,0,0,4.33-5.51,9,9,0,0,1-1,6.2,11.61,11.61,0,0,0,4.33-2,10,10,0,0,0,3.64-8,30.18,30.18,0,0,0-2.31-8.31,24.1,24.1,0,0,1-1.72-9.42,51.26,51.26,0,0,0-.16-7.34C366.64,84.94,364.64,80.89,360.76,80.25Z" style="fill: rgb(38, 50, 56); transform-origin: 338.467px 96.7454px;" class="animable"></path><path d="M354.13,125.9V113.1c0,.81,3.81,3.4,7.61.16,4.27-3.63,4.36-8.33,2.45-11.3-2.1-3.29-7.29-3.48-9.71,1.47-1.58,1.73-4.14-.59-2.58-5.48.57-1.79-1-3-1.79-4.3A9.49,9.49,0,0,1,349,89.22c-.32-4.38-1.63-8.26-6.7-8.51a11.64,11.64,0,0,0-6.05,1.57,4.38,4.38,0,0,1-2.94.87c-1-.24-1.65-1.22-2.39-2a4.56,4.56,0,0,0-4.59-1.36c-2.82,1-4.39,4.63-5.09,7.31a61.76,61.76,0,0,0-2,13.52c-.41,11.51,2.58,16.83,5.81,19.46,1.8,1.47,4.24,2.33,8.56,2.27,0,0,.12,1.43.2,3.55.07,1.94-.13,3-1.93,3.51-1.21.31-2.94.68-2.94.68s-6,6.48,5.2,7.94C352,140.39,359.91,131,359.91,131s-2-.48-2.61-.66C354.82,129.55,354.13,129.06,354.13,125.9Z" style="fill: rgb(255, 168, 167); transform-origin: 342.293px 109.021px;" id="elh1sp591l2zp" class="animable"></path><path d="M333.57,122.4c7.77-.23,15-3.13,17.68-9.3a10.85,10.85,0,0,1-4.74,7.75,26,26,0,0,1-12.79,3.87Z" style="fill: rgb(242, 143, 143); transform-origin: 342.41px 118.91px;" id="elrhi4t7l1vsm" class="animable"></path><path d="M323.54,88.86l4.81-.84a2.34,2.34,0,0,0-2.73-2A2.57,2.57,0,0,0,323.54,88.86Z" style="fill: rgb(38, 50, 56); transform-origin: 325.935px 87.4219px;" id="el9zv30qn2heq" class="animable"></path><path d="M344.29,90.26l-4.51-2a2.37,2.37,0,0,1,3.18-1.3A2.6,2.6,0,0,1,344.29,90.26Z" style="fill: rgb(38, 50, 56); transform-origin: 342.123px 88.5057px;" id="elfgbysexl9el" class="animable"></path><path d="M327.88,95.46a2.09,2.09,0,0,1-2,2.08,2,2,0,0,1-2.05-2,2.09,2.09,0,0,1,2-2.08A2,2,0,0,1,327.88,95.46Z" style="fill: rgb(38, 50, 56); transform-origin: 325.855px 95.5px;" id="elzlh8cbonw3l" class="animable"></path><path d="M342.56,96.85a2.08,2.08,0,0,1-2,2.08,2,2,0,0,1-2-1.94,2.09,2.09,0,0,1,2-2.08A2,2,0,0,1,342.56,96.85Z" style="fill: rgb(38, 50, 56); transform-origin: 340.56px 96.92px;" id="el0v9e7nz30ej" class="animable"></path><path d="M336.22,109.92a1.35,1.35,0,0,1-1.32,1.35,1.27,1.27,0,0,1-1.33-1.26,1.37,1.37,0,0,1,1.32-1.36A1.28,1.28,0,0,1,336.22,109.92Z" style="fill: rgb(177, 102, 104); transform-origin: 334.895px 109.96px;" id="elxw9mpgy1wq" class="animable"></path><path d="M349.38,92.21l11.74,7.53a5.06,5.06,0,0,0-3.86.56L348.8,95Z" style="fill: rgb(69, 90, 100); transform-origin: 354.96px 96.255px;" id="elk1ov7lc18q" class="animable"></path><path d="M317.24,92.83c.77,1.51.46,4.19,1.17,5.92.73,3.45,6.72,5.75,10.15,2.57a7.23,7.23,0,0,0,1.35-1.88c.91-1.75.87-4.28,2.2-4.49,3.65-.23-.1,9.16,9.8,9.25,4.8.11,6-4.4,6.73-8,.28-1,1.14-1.19,1.34-2.5s-.88-1.77-1.93-1.87c-3-.57-7.28-1.11-9.71-.61-3,.63-4.14,1.52-5.81,1.39s-2.51-1.19-5.28-2.29c-2.47-1-6.62-1.14-9.69-1C316,89.59,316.52,92.11,317.24,92.83ZM336.07,94c2.23-2.25,9.32-1.89,10.7-.22.76,1,0,4.21-.53,5.71-.06.18-.14.36-.22.55-.69,2-2.88,2.89-5,2.75a5.39,5.39,0,0,1-4-1.87,6,6,0,0,1-1.23-2.82C335.55,96.55,335.46,94.77,336.07,94Zm-12.88-3.16c5.43.9,7.49,2.32,5.53,7.71-.72,2.58-4.56,3.72-7.17,2.18-2-1.17-2.35-3.5-2.53-4.57C318.37,91.66,318.69,90.51,323.19,90.82Z" style="fill: rgb(69, 90, 100); transform-origin: 333.274px 96.7381px;" id="elplzrgm1n37d" class="animable"></path><path d="M326,103l6.2,3.51,1.74-9.81a2.73,2.73,0,0,0-.67-1.3Z" style="fill: rgb(242, 143, 143); transform-origin: 329.97px 100.955px;" id="el7ed15p6inho" class="animable"></path></g><g id="freepik--arm--inject-143" class="animable" style="transform-origin: 381.247px 199.743px;"><path d="M394.49,227.85c-.16,5.37.78,10,.54,12.69a60.82,60.82,0,0,1-.67,6.26,15.39,15.39,0,0,1-2,4.52,31.42,31.42,0,0,1-2,5.32,27.85,27.85,0,0,1-3.91,4.71c-.91,2.58-.88,2.84-1.27,3.94a2.08,2.08,0,0,1-.58,1,.89.89,0,0,1-.95-.07,2.37,2.37,0,0,1-1-1.59c-.4-1.62.16-3.22.5-4.85a40.73,40.73,0,0,0,1.08-6.66,4.58,4.58,0,0,1-.43,1.17c-.25.6-.35,1.22-.57,1.83-1.06,2.9-2.13,5.8-3.19,8.69a1.42,1.42,0,0,1-.44.72.9.9,0,0,1-.95,0,1.7,1.7,0,0,1-.65-.73,6,6,0,0,1-.26-3.72,47.2,47.2,0,0,1,1-4.83,35.06,35.06,0,0,0,1.09-5.18,27.09,27.09,0,0,0,.3-5.16c0-.72,0-3.87-1.49-2.57a2.85,2.85,0,0,0-.67,1.17,10.94,10.94,0,0,1-1.95,3.5,4.79,4.79,0,0,1-3.51,1.7,1.35,1.35,0,0,1-.6-.13,1.08,1.08,0,0,1-.43-1.14,4.09,4.09,0,0,1,.53-1.19,1.91,1.91,0,0,0,.15-.28c1.92-3.73,2.06-7.73,3.74-11.07.53-1,1.48-3.23,2.08-4.78.53-1.35,1.58-2.8,1.77-5.69s-2.55-33.33-2.55-33.33l-7.53-25.58c-5.81-20.27-2.76-28.4.41-33.43,9.71,2.12,13.36,6.3,15.63,12,1.48,3.69,2.24,7,4.52,16.79,2.52,10.81,3.25,14.89,5,23.66.94,4.72,1.11,7,.57,17.95C395.36,213.07,394.66,222.49,394.49,227.85Z" style="fill: rgb(255, 168, 167); transform-origin: 381.247px 199.743px;" id="el4jfpmkf553q" class="animable"></path><path d="M386.42,261.35a41.86,41.86,0,0,0,2.66-7.94,27.16,27.16,0,0,0,.48-6.16c-.24,2-.48,4.07-.88,6.08S387,259.39,386.42,261.35Z" style="fill: rgb(242, 143, 143); transform-origin: 387.999px 254.3px;" id="el3z4fm3l0jno" class="animable"></path><path d="M392.36,251.32a11,11,0,0,0,.85-3,14.49,14.49,0,0,0,.13-3.09c-.24,1-.36,2-.54,3Z" style="fill: rgb(242, 143, 143); transform-origin: 392.865px 248.275px;" id="eleutqmy401mp" class="animable"></path><path d="M384.24,253.14a27.87,27.87,0,0,0,1.27-5.19,11.29,11.29,0,0,1-1.4,7Z" style="fill: rgb(242, 143, 143); transform-origin: 384.854px 251.45px;" id="elpy0qn7xu8eb" class="animable"></path></g><g id="freepik--arm--inject-143" class="animable" style="transform-origin: 301.527px 149.961px;"><path d="M282.13,185.92c-2.36-1.71-4-8.15-1.32-15.77,2.09-6,6-9.33,11.3-14.91,6.7-7.08,10.85-10,10.93-17.06.06-5.55-.34-6.18,1.35-9.8.91-1.93,3-6.33,3.81-7.83s3.63-4.14,5.56-6.61c1.95-2.32,2.92.67,2.33,2.5a23.8,23.8,0,0,1-2.84,5.45,32.21,32.21,0,0,0-1.94,4.69,28.32,28.32,0,0,1,5.56-.85c1,0,2.24-.16,3,.74a7.57,7.57,0,0,1,.81,2.14,1.55,1.55,0,0,1,1,.44,2.53,2.53,0,0,1,.41,1.82,7.16,7.16,0,0,1-.18,1,1.88,1.88,0,0,1,1.43,1.18,8.21,8.21,0,0,1,0,4.31c-.09.21-1,1.79-1.26,2.26-.38.67-.59,1.27-1.05,1.55s-1.72-.68-1.83-1.51a8.42,8.42,0,0,1,.26-2.74,9.5,9.5,0,0,1-2.39.74c-1.22.71.44,2.55-.53,7.32-.73,3.6-3.93,5.81-4.87,7.33-5.73,9.3-7.17,19.72-13.75,27.24C295.24,182.58,286.7,189.25,282.13,185.92Z" style="fill: rgb(255, 168, 167); transform-origin: 301.527px 149.961px;" id="el0kdrylhu23o" class="animable"></path><path d="M308.22,128a12.5,12.5,0,0,1,3.09-1.44c.13-.31.24-.61.35-.92C310.28,126.18,308.62,127,308.22,128Zm1.13,3.16a4.51,4.51,0,0,1,1.23-.78,8.18,8.18,0,0,1,1.35-.52,19.06,19.06,0,0,1,2.86-.58c1-.16,1.94-.29,2.91-.43a24.14,24.14,0,0,1,2.94-.26,11.37,11.37,0,0,0-3-.18,29.28,29.28,0,0,0-3,.3,13.15,13.15,0,0,0-2.92.73A5.5,5.5,0,0,0,309.35,131.18Zm3.81,1.7a5.71,5.71,0,0,0-2.56,1.43,3.85,3.85,0,0,1,1.29-.62,13.62,13.62,0,0,1,1.39-.38c.93-.22,1.88-.42,2.83-.58,1.89-.35,3.79-.67,5.73-.84a13,13,0,0,0-2.93-.08,26,26,0,0,0-2.91.35A21.48,21.48,0,0,0,313.16,132.88Zm6,6.8a4.84,4.84,0,0,1,.21-1.2,9,9,0,0,1,.4-1,1.61,1.61,0,0,0,.33-.06,1.56,1.56,0,0,0,.47-.27,1.68,1.68,0,0,0,.55-.8,3.92,3.92,0,0,1-.76.47,1.9,1.9,0,0,1-.39.11,1.26,1.26,0,0,1-.33,0l-.22,0-.11.23a3.9,3.9,0,0,0-.27,1.13A2.54,2.54,0,0,0,319.16,139.68Z" style="fill: rgb(242, 143, 143); transform-origin: 315.03px 132.66px;" id="elznjaexifrqk" class="animable"></path></g></g></g></g><g id="freepik--character-1--inject-143" class="animable" style="transform-origin: 164.512px 250.971px;"><g id="freepik--character--inject-143" class="animable" style="transform-origin: 164.512px 250.971px;"><g id="freepik--bottom--inject-143" class="animable" style="transform-origin: 164.512px 315.879px;"><path d="M115.63,393c1.27-15,.08-21.37,1.62-44.86h0c.18-6,.48-12.47,1-18.2,1.59-19.28,4.66-25.84,5-29.56,0,0-1-33.7.76-75.9.83-19.85,6.69-25.8,11.43-36.29l58.3.65c3.08,26.28,2.9,75,2.4,101.82-.25,13.67-6.52,81.54-6.65,83.22-.47,6,0,8.32,2.35,10.86,4.86,5.31,11.93,10.39,18,15-.92,2.33-8.34,2.16-12,.34a93.84,93.84,0,0,1-13.59-8.84c-5-3.79-12.37-6.88-12.39-12.56a6,6,0,0,0-.15-1c-.06-3.32-6.48-47.12-7-58.47-.44-9.76.95-26.31.95-26.31l-5.21-33.64S158.14,287.38,154,304c-3.37,13.55-9.31,31.42-13.12,48.09h0c-3.7,19.21-9,32.86-10,42.48-.3,2.3-3.18,24.85-4.32,30s-12.48,5.17-13.1-3.73C113.08,414.93,115.39,395.84,115.63,393Z" style="fill: rgb(177, 102, 104); transform-origin: 161.629px 308.128px;" id="elvu17h3xgxul" class="animable"></path><path d="M220.24,405.9c.31,0,.78,3.44-.92,4.9-2,1.69-7.75,4.46-15.37,3.47s-11.76-3.33-14.8-5.87-7.33-6.13-10.78-6.89a22.63,22.63,0,0,1-8.19-4.09c-1-1-.87-5.36-.87-5.36Z" style="fill: rgb(38, 50, 56); transform-origin: 194.924px 403.269px;" id="el06vqoldhbilm" class="animable"></path><path d="M171.55,376.11s-.57,0-.77,1c-.23,1.21-.49,4.72-1,6.7a28.77,28.77,0,0,0-.33,9.72c.41,2.25,6.12,4.76,9.46,6a42.15,42.15,0,0,1,10.81,6.8c3.58,2.94,11.11,5.89,16.09,6,7.58.11,12.5-1.93,14-4.65,1.88-3.35.41-5.3-8.3-9.32-1.65-.77-7.45-4.18-9.42-5.42a44,44,0,0,1-5.93-4.4,31.33,31.33,0,0,1-2.66-2.62,11.92,11.92,0,0,1-2.21-2.81c-.1-.23-.17-.49-.25-.73a12.12,12.12,0,0,1-.57-2c-.14-.72-.23-1.77-.92-2.2a5.77,5.77,0,0,0-3.11-.37,24,24,0,0,0-3.37.47c-1.28.29-2.77.4-3.53,1.6a6.42,6.42,0,0,0-.72,3.14c0,.51,0,1,0,1.53,0,.21.09.6-.21.51s-.61-.84-.72-1.1c-.24-.57-.4-1.17-.66-1.73a9.7,9.7,0,0,0-1.09-1.84,16.47,16.47,0,0,0-2.28-1.42,16,16,0,0,1-1.5-1A3.55,3.55,0,0,1,171.55,376.11Z" style="fill: rgb(55, 71, 79); transform-origin: 194.858px 394.222px;" id="eldok8ozmh2gg" class="animable"></path><path d="M212.93,399.05c-11,.75-14.45,7.5-14.92,11.67a26.21,26.21,0,0,0,7.8,1.64c7.58.11,12.81-1.93,14.33-4.64C221.92,404.55,220.72,402,212.93,399.05Z" style="fill: rgb(250, 250, 250); transform-origin: 209.435px 405.707px;" id="el8uga5xrmrsc" class="animable"></path><path d="M196.46,399.15a.54.54,0,0,1-.34-.12.53.53,0,0,1-.07-.75,12.93,12.93,0,0,1,9.93-3.89.53.53,0,1,1-.11,1.06,12,12,0,0,0-9,3.51A.54.54,0,0,1,196.46,399.15Z" style="fill: rgb(240, 240, 240); transform-origin: 201.192px 396.761px;" id="elxnwmeyw8tdg" class="animable"></path><path d="M191.73,396.41a.54.54,0,0,1-.34-.12.53.53,0,0,1-.07-.75,12.92,12.92,0,0,1,9.94-3.9.54.54,0,0,1,.47.59.53.53,0,0,1-.59.48,12,12,0,0,0-9,3.5A.55.55,0,0,1,191.73,396.41Z" style="fill: rgb(240, 240, 240); transform-origin: 196.465px 394.016px;" id="ele216tlo2p7" class="animable"></path><path d="M187.35,393.27a.54.54,0,0,1-.34-.12.53.53,0,0,1-.07-.75,13,13,0,0,1,9.94-3.89.53.53,0,0,1-.12,1.06,12,12,0,0,0-9,3.51A.54.54,0,0,1,187.35,393.27Z" style="fill: rgb(240, 240, 240); transform-origin: 192.084px 390.882px;" id="elodifb65w9hf" class="animable"></path><path d="M183.06,390.14a.52.52,0,0,1-.33-.12.53.53,0,0,1-.09-.75c2.11-2.64,6.87-4.38,10.85-3.94a.53.53,0,0,1,.48.58.54.54,0,0,1-.59.48c-3.59-.39-8,1.2-9.9,3.55A.53.53,0,0,1,183.06,390.14Z" style="fill: rgb(240, 240, 240); transform-origin: 188.248px 387.701px;" id="elmkbcgy3cpr" class="animable"></path><path d="M130.1,428.66c-.37,5.15-1.21,8.56-3.09,11.57s-5.35,3.91-8.85,3-8-3.34-8.93-7.79-1.5-7.52-.65-12.29Z" style="fill: rgb(38, 50, 56); transform-origin: 119.132px 433.359px;" id="elors93ewonb" class="animable"></path><path d="M115.77,391.17c-1.45.09-2,7-2.87,13.93-1,7.42-3.25,10.47-4.12,16.55-1,7,.12,10.07,2.53,14.31s11,8.45,15.37,2.48c3.54-4.88,3.75-10.32,3.52-17.28a152.43,152.43,0,0,1,.67-17.6c.34-5.21,1.57-10.45.32-11-.11.76-.22,1.73-.33,2.48a11.84,11.84,0,0,1-.5,2.78c-.15.38-.48.79-.6.15a4,4,0,0,1,0-1.29c.23-1.92-.74-2.09-1.26-2.24a61.58,61.58,0,0,0-6.71-1c-1.1-.09-4.91-.3-5.42.32a4.37,4.37,0,0,0-.51,2c-.13,1.05-.39,1.81-.41,1.48-.06-.75.11-2.7.13-3.17s.1-1.06.12-1.52S115.74,391.61,115.77,391.17Z" style="fill: rgb(55, 71, 79); transform-origin: 120.077px 416.287px;" id="elixarzq6g7o" class="animable"></path><path d="M108.33,425.68a17.26,17.26,0,0,0,2.58,10.6c2.4,4.24,11.73,8.48,16.07,2.5,2.17-3,2.78-6.51,3.12-10.12C127.59,424,112.42,421.77,108.33,425.68Z" style="fill: rgb(250, 250, 250); transform-origin: 119.185px 432.707px;" id="eluwdz70cvjoi" class="animable"></path><path d="M127,421.06l-.18-.05c-.06,0-6.72-2.86-13.26-1.43a.55.55,0,0,1-.64-.41.54.54,0,0,1,.41-.64c6.92-1.5,13.71,1.4,14,1.52a.53.53,0,0,1,.25.71A.54.54,0,0,1,127,421.06Z" style="fill: rgb(240, 240, 240); transform-origin: 120.271px 419.584px;" id="elu48tkw5z0wh" class="animable"></path><path d="M114,414.39a.52.52,0,0,1-.45-.36.53.53,0,0,1,.34-.67c6.51-2.12,13.68,1.24,13.95,1.39a.53.53,0,0,1,.21.72.54.54,0,0,1-.72.22c-.06,0-7-3.29-13.11-1.32A.42.42,0,0,1,114,414.39Z" style="fill: rgb(240, 240, 240); transform-origin: 120.819px 414.205px;" id="el072jjmxnos43" class="animable"></path><path d="M114.26,409.51a.54.54,0,0,1-.44-.36.53.53,0,0,1,.33-.68c7.16-2.46,14,1.2,14.21,1.36a.52.52,0,0,1,.17.73.54.54,0,0,1-.74.17c-.06,0-6.62-3.54-13.29-1.25A.66.66,0,0,1,114.26,409.51Z" style="fill: rgb(240, 240, 240); transform-origin: 121.202px 409.216px;" id="elviyd8lhsqq" class="animable"></path><path d="M114.68,404.7a.56.56,0,0,1-.45-.35.54.54,0,0,1,.32-.69c6.72-2.41,14,1.34,14.31,1.51a.54.54,0,0,1,.19.73.55.55,0,0,1-.74.19c-.06,0-7.16-3.67-13.39-1.42A.69.69,0,0,1,114.68,404.7Z" style="fill: rgb(235, 235, 235); transform-origin: 121.659px 404.508px;" id="el88s8l8iljw" class="animable"></path><path d="M129.26,188.33c-6.65,11.74-6.95,21.36-8,56.46s-1,48.63-1.19,52.86-1,11.77-3.38,32.6a215.86,215.86,0,0,0-.51,40.47s1.46,3.37,9.47,4.17c7.38.74,11.08-2,11.08-2s10.14-35.7,13.23-48.19c4.7-18.93,10.42-57,10.42-57l3.81,25.79s-2.4,11.48-.36,29.79,4.64,31.78,4.64,31.78a44.8,44.8,0,0,0,12.62,2.11,19.76,19.76,0,0,0,10.35-2.77s6.43-48.88,6.68-69.6-1.39-70.63-3.09-95.53Z" style="fill: rgb(55, 71, 79); transform-origin: 156.806px 281.673px;" id="elfajkor78sau" class="animable"></path><path d="M117.52,372.23a11.21,11.21,0,0,0,1.08.72c-1.65-32.79,3-46.33,5.92-58.84.27-1.21.54-2.35.78-3.44,2.18-9.78.43-26.21.59-42.33,0-4.85.09-9.86.2-15.19.13-6.22.4-12.67,1-19.05,11.5-1.24,14.13-12.49,17.43-26.7.46-1.94.92-4,1.43-6l-1-.25c-.5,2.07-1,4.08-1.43,6-3.31,14.24-5.74,24.58-16.31,25.85,1.42-14.48,4.6-28.49,11.86-38.56l-.85-.61c-10.81,15-12.7,38.38-13.13,59.29-.11,5.32-.16,10.34-.21,15.19-.16,16.06,1.59,32.44-.56,42.12-.25,1.08-.51,2.23-.78,3.42C120.63,326.34,116,339.77,117.52,372.23Zm49.92-141.1-7.09,36.57,3.81,25.79.37-24.79L169.31,244c.13,2.46.28,5,.42,7.55,1.21,21.2,1.94,37.48.76,42.52-3.22,13.82-2.42,22.57-1,38.46.15,1.62.3,3.3.46,5.07.79,9,1.82,12.61,2.42,18.39l1.08.27c-.6-5.77-1.65-9.59-2.46-18.75q-.24-2.66-.45-5.07c-1.44-15.78-2.23-24.47.95-38.13,1.21-5.19.53-20.51-.73-42.82-.23-4.05-.46-8-.66-11.71l1-4.44c5-1.14,13.13-4.88,14.68-11.76A26.38,26.38,0,0,1,167.44,231.13Z" style="fill: rgb(38, 50, 56); transform-origin: 151.501px 283.39px;" id="elizvqt9ibzja" class="animable"></path></g><g id="freepik--top--inject-143" class="animable" style="transform-origin: 161.649px 139.786px;"><g id="freepik--arm--inject-143" class="animable" style="transform-origin: 195.745px 146.175px;"><path d="M179.25,121.05c10.18,2,15.07,5.21,20.36,14.22s13.2,31.6,13.13,36.68H191.58Z" style="fill: rgb(177, 102, 104); transform-origin: 195.995px 146.5px;" id="elon3o5lt36ys" class="animable"></path><path d="M192.84,163.84c4.5-1.21,7.83-2.07,10.2-2-1.92-1.25-10.36.2-10.36.2Z" style="fill: rgb(154, 74, 77); transform-origin: 197.86px 162.586px;" id="elp6kx3h7le6" class="animable"></path><path d="M178.75,120.4C186,121,191.2,123,196,128.84s5.22,8.17,7.76,14.59S208,154.15,208,154.15s-4.84,8.66-20.55,7.36l-5.6-16.78Z" style="fill: rgb(55, 71, 79); transform-origin: 193.375px 141.021px;" id="elix758xeybqg" class="animable"></path></g><path id="freepik--chest--inject-143" d="M140.56,117.45s-10.31,3.67-19.41,7c0,0-8.08,3.75-2.63,33.07,1.38,7.39,4.18,18.15,4.94,27.29.44,5.19-.33,17.53-1,28.22,0,0,16.59,10.85,46.27,7.54,23.31-2.6,27.66-13.18,27.66-13.18s-1.51-25.92-3.45-43.25c-2.8-24.89-7.77-38.82-14.17-43.69L165.48,119Z" style="fill: rgb(69, 90, 100); transform-origin: 156.511px 169.324px;" class="animable"></path><g id="freepik--head--inject-143" class="animable" style="transform-origin: 154.856px 93.4732px;"><path d="M133.17,94.17a48.46,48.46,0,0,0,6.05,13,5.86,5.86,0,0,0,3.47,2.66l-.48-9.2-.51-6.4s5-4.82,5.3-9.44a17.78,17.78,0,0,0-.36-5.13l30.62,1.21s2.6-7.83-1.59-13.84c-4-5.76-9.82-9.36-20.06-8.54-12.5,1-18.82,7.35-19.57,12.55h0a8.89,8.89,0,0,0-4.58,4.65C130.35,78.07,129.61,82.28,133.17,94.17Z" style="fill: rgb(38, 50, 56); transform-origin: 154.301px 84.102px;" id="elywz042cug4" class="animable"></path><path d="M134.48,102.85a9.68,9.68,0,0,0,.88.52,6.38,6.38,0,0,0,2.59.74,4.73,4.73,0,0,0,2.18-.74,7.11,7.11,0,0,0,2-1.56l-1.71,16.92c6,11.35,33.6,14,24.37,2l.34-6.15a28.17,28.17,0,0,0,4.07-.51,11.89,11.89,0,0,0,9.2-8.69c1.65-6.81.34-21-1-29-.37-2.25-2.72-4.85-4.77-5.8-5.07-2.38-9.61,1.36-16.52,4.29-2.86,1.22-9.85,1.9-11.73,1.07a9.17,9.17,0,0,1,2,5.75,13,13,0,0,1-.78,4.49,23,23,0,0,0-1.41,3.87,3,3,0,0,1-.65,1.75,1.81,1.81,0,0,1-2.22-.07A9.83,9.83,0,0,1,139.72,90a5.45,5.45,0,0,0-2.54-1.83,5,5,0,0,0-5.31,2A8.24,8.24,0,0,0,130.65,96,9.74,9.74,0,0,0,134.48,102.85Z" style="fill: rgb(177, 102, 104); transform-origin: 154.856px 99.1981px;" id="el1f071pek9kd" class="animable"></path><path d="M165.14,114.62c-5.48.12-10.36-.44-13.63-1.73s-6.25-5.64-7.31-10c.09,3.53,1.79,9.75,6.76,12.22s10.44,2.35,14,2.33Z" style="fill: rgb(154, 74, 77); transform-origin: 154.67px 110.168px;" id="elnj36a1y5b4e" class="animable"></path><path d="M157.77,80.23l-4.07,3a2.68,2.68,0,0,1,.59-3.64A2.45,2.45,0,0,1,157.77,80.23Z" style="fill: rgb(38, 50, 56); transform-origin: 155.502px 81.1784px;" id="elyyeg3vya2sp" class="animable"></path><path d="M175.5,82.57l-5-.78a2.41,2.41,0,0,1,2.79-2.17A2.7,2.7,0,0,1,175.5,82.57Z" style="fill: rgb(38, 50, 56); transform-origin: 173.008px 81.0792px;" id="elhnyqmuvy98l" class="animable"></path><path d="M155.73,87.63A2,2,0,0,0,158,89.48a2.07,2.07,0,1,0-2.24-1.85Z" style="fill: rgb(38, 50, 56); transform-origin: 157.81px 87.4234px;" id="el6w53nmqs2nx" class="animable"></path><path d="M170.9,86.13a2.05,2.05,0,1,0,4.08-.41,2.05,2.05,0,1,0-4.08.41Z" style="fill: rgb(38, 50, 56); transform-origin: 172.94px 85.925px;" id="el10ego2hprmgp" class="animable"></path><path d="M164.2,84.33l2,13.06,7.29-3A30.88,30.88,0,0,0,164.2,84.33Z" style="fill: rgb(154, 74, 77); transform-origin: 168.845px 90.86px;" id="elijn822zwddh" class="animable"></path><path d="M163.87,102.11a1.39,1.39,0,0,1-1.35,1.38,1.3,1.3,0,0,1-1.36-1.29,1.4,1.4,0,0,1,1.35-1.38A1.32,1.32,0,0,1,163.87,102.11Z" style="fill: rgb(154, 74, 77); transform-origin: 162.515px 102.155px;" id="elf9zzxk2e6yk" class="animable"></path></g><g id="freepik--arm--inject-143" class="animable" style="transform-origin: 169.302px 177.786px;"><path d="M137.37,191.63c1,0,2,0,3.07.06a74.74,74.74,0,0,0,7.92-.23c1.64-.14,3.28-.35,4.9-.64a29.45,29.45,0,0,0,4.38-.95c2.81-1,5.61-2.17,8.35-3.33s6.34-1.33,9.21-1.57c6.76-.56,12.8-.54,19.5-1.56a41.44,41.44,0,0,0,11.38-3.4,14.8,14.8,0,0,0,5.74-5c1.79-2.81.83-4.68-1.67-6.43-2.14-1.49-8.39-4.59-17.31-4.72-4.27,1.11-9.27,2.79-14,4.33-4.44,1.46-7.8,2.65-12.33,3.78a16.76,16.76,0,0,1-5.95.17c-1.88-.26-3.51-.85-5.33-1.15a43.63,43.63,0,0,0-7-1c-4,0-8.16,1.29-10.89,1.66s-2.55,1.89-.49,3a7.12,7.12,0,0,0,3.4.48c1.3,0,2.59-.1,3.89-.05.3,0,.9,0,1.06.3s-.26.7-.54.83c-1.62.74-3.41.54-5.14.53l-5.7,0c-.76,0-1.52,0-2.28,0a3.14,3.14,0,0,0-2.77,1.23,1.72,1.72,0,0,0-.27,1c0,.29.17.53-.16.75a2.49,2.49,0,0,1-.87.24,2.07,2.07,0,0,0-1.45,1.19,2.1,2.1,0,0,0,.14,1.87,3.15,3.15,0,0,0,1.08,1,1.65,1.65,0,0,1,.59.41,2.16,2.16,0,0,1,.27.55,3.17,3.17,0,0,0,.94,1.26,5.58,5.58,0,0,0,2.62,1c.8.15,1.6.23,2.4.32,1.09.12,2.18.3,3.27.43l1.41.16.71.08a2.47,2.47,0,0,1,.67.1c-.13.13-.68.08-.88.09l-1,.07a18.1,18.1,0,0,0-1.93.22,4.26,4.26,0,0,0-1.27.39,1.62,1.62,0,0,0-1,1.85.94.94,0,0,0,.73.5,8.27,8.27,0,0,0,.85.12C136.23,191.58,136.8,191.61,137.37,191.63Z" style="fill: rgb(177, 102, 104); transform-origin: 169.302px 177.786px;" id="elqw0883vn3u8" class="animable"></path><path d="M155.39,181.56a41.57,41.57,0,0,0,4-9.65c-1.4-.3-2.72-.7-4.14-.94a43.63,43.63,0,0,0-7-1c-4,0-8.16,1.29-10.89,1.66s-2.55,1.89-.49,3a7.12,7.12,0,0,0,3.4.48c1.3,0,2.59-.1,3.89-.05.3,0,.9,0,1.06.3s-.26.7-.54.83c-1.62.74-3.41.54-5.14.53l-5.7,0c-.76,0-1.52,0-2.28,0a3.14,3.14,0,0,0-2.77,1.23,1.72,1.72,0,0,0-.27,1c0,.25.11.46-.06.65a3.37,3.37,0,0,1,1,1l1.81,3.11a17.49,17.49,0,0,1-4.57-.12,6,6,0,0,0,.52.36,2,2,0,0,1,.56.39,26.79,26.79,0,0,1,3.4,1,9.66,9.66,0,0,1,2.61,2.21l.25,0c1.09.12,2.18.3,3.27.43l1.41.16.71.08a2.47,2.47,0,0,1,.67.1c-.13.13-.68.08-.88.09l-1,.07a18.1,18.1,0,0,0-1.93.22,4.71,4.71,0,0,0-.91.25c3.19,2.47,7.65,3.64,11.4,1.94a10.67,10.67,0,0,0,1.37-.74C151.4,188.1,153.54,184.79,155.39,181.56Z" style="fill: rgb(154, 74, 77); transform-origin: 143.045px 180.831px;" id="elf0q652fooso" class="animable"></path></g><g id="freepik--arm--inject-143" class="animable" style="transform-origin: 146.1px 148.433px;"><path d="M143.05,190.56c-3.75-.33-7.16-.64-12.6-9.38-4.22-6.77-6.83-11.55-11.57-20.74s-7.64-16-7.17-21.58c.42-4.92,1.05-10.56,9.7-13.89,9.61,4.37,13.11,12.46,16.43,20.9s10.22,24.21,10.22,24.21Z" style="fill: rgb(177, 102, 104); transform-origin: 129.86px 157.765px;" id="el7o672dykwii" class="animable"></path><path d="M121.15,124.4c-9,3.68-12.27,10.49-9.79,20.61,2.8,11.38,11.12,26.07,11.12,26.07s4.4.64,10.8-3.5a30.92,30.92,0,0,0,9.78-11.13s-3.71-8.69-5.46-13.49C134.15,133.48,127.65,125.94,121.15,124.4Z" style="fill: rgb(55, 71, 79); transform-origin: 126.809px 147.758px;" id="elloboksfhsb" class="animable"></path><path d="M133.93,171.93c.26-10.19,4.91-16.39,8.45-24s5.49-12.22,6.8-16.84,2-11.34,1.34-14.77a49.14,49.14,0,0,0-2.22-7.66c-.65-1.71,0-1.89,1.66-1.82s3.36.84,4.86,3.83,1.92,4.77,2.6,4.58,4.23-4.24,6.28-6.17,2.82-2,6-2.37a22.39,22.39,0,0,1,7.62.17c1.31.41,3.23,2.24,4,2.86,1.09.85-.76,2.41-2.8,1.68l-2-.74c.8.63.74,1.49.87,2.56a3,3,0,0,1-.63,2s.75.22,1,1.57a5,5,0,0,1-.09,2.45,1.16,1.16,0,0,1,1.17.62c.46.75,1.07,2-1.65,4.45s-4.72,4.14-7.06,6.08a18.19,18.19,0,0,0-4,4.25c-1.43,2.08-1.86,5.59-2.77,11.23-2,12.51-2.41,15.62-4.56,23.27-1.63,5.82-3.53,11.84-9.86,18.35-5.57,5.75-9.28,2.44-11.46-1.68A33.8,33.8,0,0,1,133.93,171.93Z" style="fill: rgb(177, 102, 104); transform-origin: 157.787px 148.528px;" id="elsaaz5x8m1nd" class="animable"></path><path d="M133.93,171.93c-.24-9.45,5.2-17.55,8.91-25.83,1.86-4.19,3.76-8.37,5.19-12.71a41.15,41.15,0,0,0,2.09-16.76,48.55,48.55,0,0,0-2.34-8.21c-1-2.74,3-2.21,4.4-1.41,2.69,1.55,3.46,4.72,4.74,7.29.1.21.34.63.43.57,2.76-2.17,4.85-5.26,7.79-7.3a7.8,7.8,0,0,1,3.38-1,31.32,31.32,0,0,1,6.91-.19c2.45,0,4.2,1.79,5.91,3.3-1.76-1.42-3.52-3.13-5.93-3.06a31.27,31.27,0,0,0-6.83.39,7.39,7.39,0,0,0-3.17,1c-2.93,2.1-4.88,5.29-7.77,7.51-1.17.48-1.69-1.75-2.12-2.46-.92-2-1.77-4.26-3.72-5.33a4.84,4.84,0,0,0-3.05-.44c-.46.11-.24.51-.17.89,1.37,3.78,2.78,7.75,2.63,11.82,0,9.36-3.78,18.11-7.74,26.39s-9.37,16.1-9.54,25.54Z" style="fill: rgb(154, 74, 77); transform-origin: 157.631px 139.101px;" id="elo0t7bbailqh" class="animable"></path><path d="M168.28,111.8c2.4-1.34,5.69-3,8.22-1.14a6.3,6.3,0,0,0-4.07.06c-1.22.35-2.93.81-4.15,1.08Z" style="fill: rgb(154, 74, 77); transform-origin: 172.39px 110.815px;" id="el75d0gew82vi" class="animable"></path><path d="M170.5,116.93a9.55,9.55,0,0,1,6.24-1.71,44.62,44.62,0,0,1-6.24,1.71Z" style="fill: rgb(154, 74, 77); transform-origin: 173.62px 116.06px;" id="elsrf2rm5adbj" class="animable"></path><path d="M172.26,121.92a37.4,37.4,0,0,1,5.42-2.68,8.49,8.49,0,0,1-5.42,2.68Z" style="fill: rgb(154, 74, 77); transform-origin: 174.97px 120.58px;" id="elwb5h17xdu8" class="animable"></path></g></g></g></g><g id="freepik--speech-bubble--inject-143" class="animable animator-active" style="transform-origin: 245.12px 72.2788px;"><g id="freepik--speech-bubble--inject-143" class="animable" style="transform-origin: 245.12px 72.2788px;"><g id="freepik--speech-bubble--inject-143" class="animable" style="transform-origin: 245.12px 72.2788px;"><path d="M245,32.68a35.93,35.93,0,0,0-5.82,71.37l4,10.4a2.09,2.09,0,0,0,3.9,0l4-10.42A35.92,35.92,0,0,0,245,32.68Zm.1,69a33.12,33.12,0,1,1,33.1-33.12A33.12,33.12,0,0,1,245.13,101.72Z" style="fill: rgb(69, 90, 100); transform-origin: 245.126px 74.2338px;" id="elef1er8jrcog" class="animable"></path><g id="el6uurkoqp8gd"><circle cx="245.12" cy="68.6" r="33.11" style="fill: rgb(255, 255, 255); transform-origin: 245.12px 68.6px; transform: rotate(-76.72deg);" class="animable"></circle></g></g><path d="M231.62,51.65a22.93,22.93,0,0,1,2.59-2,18.25,18.25,0,0,1,3-1.63A19.18,19.18,0,0,1,240.77,47a19.89,19.89,0,0,1,4.13-.4,17.28,17.28,0,0,1,5.49.83,12.47,12.47,0,0,1,4.25,2.38,10.66,10.66,0,0,1,2.74,3.72,12.06,12.06,0,0,1,1,4.89,12.29,12.29,0,0,1-.77,4.56,12.71,12.71,0,0,1-1.9,3.34,14.27,14.27,0,0,1-2.52,2.46l-2.58,2a18.77,18.77,0,0,0-2.09,1.8,3.54,3.54,0,0,0-1.06,2l-.8,5.06h-5.86l-.58-5.65a4.58,4.58,0,0,1,.46-2.86,8.7,8.7,0,0,1,1.81-2.26,22.57,22.57,0,0,1,2.51-2,23.93,23.93,0,0,0,2.6-2.08,10.66,10.66,0,0,0,2-2.53,6.5,6.5,0,0,0,.82-3.35,5.17,5.17,0,0,0-.47-2.23,4.92,4.92,0,0,0-1.3-1.7,5.8,5.8,0,0,0-2-1.09,8.15,8.15,0,0,0-2.51-.38,11.18,11.18,0,0,0-3.35.43,12.19,12.19,0,0,0-2.32,1c-.64.36-1.17.68-1.61,1a2.22,2.22,0,0,1-1.18.44,1.9,1.9,0,0,1-1.8-1Zm6.56,37a5.4,5.4,0,0,1,.39-2A5.2,5.2,0,0,1,239.66,85a5.42,5.42,0,0,1,1.67-1.11,5.36,5.36,0,0,1,2.08-.41,5.22,5.22,0,0,1,2.06.41A5.49,5.49,0,0,1,247.13,85a5.13,5.13,0,0,1,1.13,1.67,5.17,5.17,0,0,1-2.79,6.84,5.22,5.22,0,0,1-2.06.4,5.35,5.35,0,0,1-2.08-.4,5,5,0,0,1-1.67-1.09,5.1,5.1,0,0,1-1.09-1.65A5.36,5.36,0,0,1,238.18,88.68Z" style="fill: rgb(255, 193, 0); transform-origin: 245.001px 70.2546px;" id="el69pomlib9h4" class="animable"></path></g></g><defs>     <filter id="active" height="200%">         <feMorphology in="SourceAlpha" result="DILATED" operator="dilate" radius="2"></feMorphology>                <feFlood flood-color="#32DFEC" flood-opacity="1" result="PINK"></feFlood>        <feComposite in="PINK" in2="DILATED" operator="in" result="OUTLINE"></feComposite>        <feMerge>            <feMergeNode in="OUTLINE"></feMergeNode>            <feMergeNode in="SourceGraphic"></feMergeNode>        </feMerge>    </filter>    <filter id="hover" height="200%">        <feMorphology in="SourceAlpha" result="DILATED" operator="dilate" radius="2"></feMorphology>                <feFlood flood-color="#ff0000" flood-opacity="0.5" result="PINK"></feFlood>        <feComposite in="PINK" in2="DILATED" operator="in" result="OUTLINE"></feComposite>        <feMerge>            <feMergeNode in="OUTLINE"></feMergeNode>            <feMergeNode in="SourceGraphic"></feMergeNode>        </feMerge>            <feColorMatrix type="matrix" values="0   0   0   0   0                0   1   0   0   0                0   0   0   0   0                0   0   0   1   0 "></feColorMatrix>    </filter></defs></svg>